<?xml version="1.0" encoding="utf-8"?>
<!-- Generator: Adobe Illustrator 21.0.2, SVG Export Plug-In . SVG Version: 6.00 Build 0)  -->
<svg version="1.1" xmlns="http://www.w3.org/2000/svg" xmlns:xlink="http://www.w3.org/1999/xlink" x="0px" y="0px"
	 viewBox="0 0 48 48" style="enable-background:new 0 0 48 48;" xml:space="preserve">
<style type="text/css">
	.st0{fill:#6B6B6B;}
	.st1{fill:none;stroke:#6B6B6B;}
	.st2{fill:none;stroke:#6B6B6B;stroke-width:3;stroke-linecap:round;stroke-linejoin:round;stroke-miterlimit:10;}
	.st3{fill:none;stroke:#6B6B6B;stroke-width:3;stroke-linecap:round;stroke-linejoin:round;}
</style>
<g id="Monitor_1_">
	<path class="st0" d="M41.4,209H6.6c-2.5,0-4.6,2.1-4.6,4.6v21.8c0,2.5,2.1,4.6,4.6,4.6H17v4h-1.8c-0.6,0-1,0.4-1,1s0.4,1,1,1H33
		c0.6,0,1-0.4,1-1s-0.4-1-1-1h-2v-4h10.4c2.5,0,4.6-2.1,4.6-4.6v-21.8C46,211.1,43.9,209,41.4,209z M29,240v4H19v-4H29z M4,213.6
		c0-1.4,1.2-2.6,2.6-2.6h34.8c1.4,0,2.6,1.2,2.6,2.6V233c0,0-0.1,0-0.1,0H4V213.6z M41.4,238H6.6c-1.4,0-2.6-1.2-2.6-2.6V235h39.9
		c0,0,0.1,0,0.1,0v0.4C44,236.8,42.8,238,41.4,238z"/>
	<g>
		<path class="st1" d="M-180.4,267.6c-0.1,0.1-6.1,6.1-15.6,3.1l-0.6-0.2l-0.1,0.6c-0.1,0.6-2.2,15.9-1,21.8l0,0.1l0,0.1
			c0.1,0.1,6.1,10.8,17.4,15.7l0.2,0.1l0.2-0.1c11.3-4.9,17.3-15.6,17.4-15.7l0-0.1l0-0.1c0.5-2.5,0.5-6.9-0.1-13.2
			c-0.2-2.4-0.5-4.6-0.6-6.1l-0.2-1.9c-0.1-1-0.1-1-0.4-1.1l-0.2-0.1l-0.2,0.1c-9.6,3-15.6-3-15.6-3.1l-0.4-0.4L-180.4,267.6z"/>
	</g>
	<g>
		<path class="st0" d="M-180,269.3c1.5,1.2,5.2,3.7,10.6,3.7c1.5,0,3.1-0.2,4.6-0.6c0.5,3.7,1.8,15.1,0.9,20
			c-0.7,1.2-6.3,10.3-16.2,14.7c-9.9-4.4-15.5-13.5-16.2-14.7c-0.9-4.9,0.4-16.3,0.9-20c1.6,0.4,3.1,0.6,4.6,0.6
			C-185.2,273-181.5,270.5-180,269.3 M-180,267.9c0,0-3.9,4.1-10.6,4.1c-1.7,0-3.5-0.3-5.5-0.9c0,0-2.2,15.7-1,21.6
			c0,0,5.9,10.6,17.2,15.5c11.3-4.8,17.2-15.5,17.2-15.5c1.2-5.9-1-21.6-1-21.6c-2,0.6-3.8,0.9-5.5,0.9
			C-176.1,272-180,267.9-180,267.9L-180,267.9z"/>
	</g>
	<g>
		<path class="st0" d="M-180,274.5c1.6,1.1,4.5,2.7,8.5,2.7c0.9,0,1.8-0.1,2.7-0.2c0.5,4.1,1.1,11,0.6,14.1
			c-0.8,1.4-4.9,7.6-11.8,10.9c-6.9-3.3-11-9.5-11.8-10.9c-0.5-3.2,0.1-10,0.6-14.1c0.9,0.2,1.8,0.2,2.7,0.2
			C-184.6,277.2-181.6,275.7-180,274.5 M-180,272c0,0-3.2,3.3-8.5,3.3c-1.3,0-2.8-0.2-4.4-0.7c0,0-1.8,12.6-0.8,17.3
			c0,0,4.7,8.5,13.7,12.4c9-3.9,13.7-12.4,13.7-12.4c0.9-4.7-0.8-17.3-0.8-17.3c-1.6,0.5-3.1,0.7-4.4,0.7
			C-176.9,275.2-180,272-180,272L-180,272z"/>
	</g>
	<polyline class="st2" points="-261.7,290.4 -253.7,296.1 -234.4,277.7 	"/>
	<circle class="st0" cx="-112.5" cy="274.5" r="7"/>
	<path class="st0" d="M-112.5,283.5L-112.5,283.5c-3.9,0-7,3.1-7,7v3c0,3.9,3.1,7,7,7h0c3.8,0,7-3.1,7-7v-3
		C-105.5,286.6-108.6,283.5-112.5,283.5z"/>
	<circle class="st0" cx="-127.5" cy="280.5" r="5.5"/>
	<path class="st0" d="M-127.5,287.6L-127.5,287.6c-3,0-5.5,2.5-5.5,5.5v2.4c0,3,2.5,5.5,5.5,5.5h0c3,0,5.5-2.5,5.5-5.5v-2.4
		C-122,290.1-124.5,287.6-127.5,287.6z"/>
	<circle class="st0" cx="-97.5" cy="280.5" r="5.5"/>
	<path class="st0" d="M-97.5,287.6L-97.5,287.6c-3,0-5.5,2.5-5.5,5.5v2.4c0,3,2.5,5.5,5.5,5.5h0c3,0,5.5-2.5,5.5-5.5v-2.4
		C-92,290.1-94.5,287.6-97.5,287.6z"/>
	<g>
		<g>
			<path class="st3" d="M-30.6,268.4c0,0,0,4.2,0,5c-0.8,0-3.4,0-4.2,0c0-0.9,0-5,0-5h-6.3c0,0,0,4.2,0,5c-0.8,0-3.4,0-4.2,0
				c0-0.9,0-5,0-5h-6.3c0,0,0,4.2,0,5c-0.8,0-3.4,0-4.2,0c0-0.9,0-5,0-5h-6.3l0,0.5c-0.1,1-1.9,24.5,4.3,31.7
				c6.7,7.8,14.2,8.9,14.6,8.9l0.1,0l0.1,0c0.3,0,7.9-1.1,14.6-8.9c6.2-7.2,4.4-30.7,4.3-31.6l0-0.5H-30.6z"/>
		</g>
	</g>
	<g>
		<path class="st3" d="M-53.3,297.6c4.7,5.5,10.1,6.2,10.1,6.2s5.4-0.7,10.1-6.2c2.8-3.2,3.2-11.5,3.2-17h-26.5
			C-56.6,286.1-56.1,294.3-53.3,297.6z"/>
	</g>
</g>
<g id="Computer_1_">
	<path class="st0" d="M-22.1,240.6l-3.9-8.8V210c0-0.6-0.4-1-1-1h-34c-0.6,0-1,0.4-1,1v21.8l-3.9,8.8c-0.1,0.3-0.1,0.7,0.1,1
		s0.5,0.5,0.8,0.5h42c0.3,0,0.7-0.2,0.8-0.5S-21.9,240.9-22.1,240.6z M-60,211h32v20h-32V211z M-63.5,240l3.1-7h32.7l3.1,7H-63.5z"
		/>
	<path class="st0" d="M-31,213h-26c-0.6,0-1,0.4-1,1v14c0,0.6,0.4,1,1,1h26c0.6,0,1-0.4,1-1v-14C-30,213.4-30.4,213-31,213z
		 M-32,227h-24v-12h24V227z"/>
</g>
<g id="Wifi_1_">
	<path class="st0" d="M-111.7,242.5c-2.4,0-4.3-1.9-4.3-4.3s1.9-4.3,4.3-4.3s4.3,1.9,4.3,4.3S-109.3,242.5-111.7,242.5z
		 M-111.7,236.1c-1.1,0-2,0.9-2,2c0,1.1,0.9,2,2,2c1.1,0,2-0.9,2-2C-109.6,237-110.5,236.1-111.7,236.1z"/>
	<g>
		<path class="st0" d="M-111.7,243"/>
		<path class="st0" d="M-92.4,224.9c-0.3,0-0.7-0.2-0.9-0.5c-4.4-5.8-11-9.2-18.3-9.2s-13.9,3.3-18.3,9.2c-0.4,0.5-1.1,0.6-1.6,0.2
			c-0.5-0.4-0.6-1.1-0.2-1.6c4.8-6.4,12.1-10.1,20.1-10.1c8,0,15.3,3.7,20.1,10.1c0.4,0.5,0.3,1.2-0.2,1.6
			C-92,224.8-92.2,224.9-92.4,224.9z"/>
	</g>
	<g>
		<path class="st0" d="M-111.7,243"/>
		<path class="st0" d="M-96.6,229.1c-0.4,0-0.7-0.2-0.9-0.5c-3.2-4.7-8.5-7.5-14.1-7.5s-10.9,2.8-14.1,7.5c-0.3,0.5-1,0.6-1.6,0.3
			c-0.5-0.3-0.6-1-0.3-1.6c3.6-5.3,9.6-8.5,16-8.5c6.4,0,12.4,3.2,16,8.5c0.3,0.5,0.2,1.2-0.3,1.6C-96.2,229-96.4,229.1-96.6,229.1z
			"/>
	</g>
	<g>
		<path class="st0" d="M-100.3,232.7c-0.4,0-0.8-0.2-1-0.6c-2.2-3.7-6.1-6-10.4-6c-4.3,0-8.3,2.3-10.4,6c-0.3,0.5-1,0.7-1.5,0.4
			c-0.5-0.3-0.7-1-0.4-1.5c2.6-4.4,7.3-7.2,12.4-7.2c5.1,0,9.8,2.7,12.4,7.2c0.3,0.5,0.1,1.2-0.4,1.5
			C-99.9,232.7-100.1,232.7-100.3,232.7z"/>
		<path class="st0" d="M-123.1,231.6"/>
		<path class="st0" d="M-100.3,231.6"/>
	</g>
	<g>
		<path class="st0" d="M-111.7,243"/>
		<path class="st0" d="M-104,236.5c-0.5,0-0.9-0.3-1.1-0.7c-1-2.8-3.7-4.6-6.6-4.6c-2.9,0-5.6,1.9-6.6,4.6c-0.2,0.6-0.9,0.9-1.4,0.7
			c-0.6-0.2-0.9-0.9-0.7-1.4c1.3-3.6,4.8-6.1,8.7-6.1c3.9,0,7.4,2.4,8.7,6.1c0.2,0.6-0.1,1.2-0.7,1.4
			C-103.7,236.4-103.9,236.5-104,236.5z"/>
		<path class="st0" d="M-119.3,235.3"/>
		<path class="st0" d="M-111.7,243"/>
		<path class="st0" d="M-104,235.3"/>
	</g>
</g>
<g id="Credit_Card_1_">
	<path class="st0" d="M-164.6,213h-27.8c-2.4,0-4.3,1.8-4.5,4.1c-2.3,0.3-4.1,2.2-4.1,4.5v16.8c0,2.5,2.1,4.6,4.6,4.6h27.8
		c2.4,0,4.3-1.8,4.5-4.1c2.3-0.3,4.1-2.2,4.1-4.5v-16.8C-160,215.1-162.1,213-164.6,213z M-166,238.4c0,1.4-1.2,2.6-2.6,2.6h-27.8
		c-1.4,0-2.6-1.2-2.6-2.6v-16.8c0-1.4,1.2-2.6,2.6-2.6h27.8c1.4,0,2.6,1.2,2.6,2.6V238.4z M-162,234.4c0,1.2-0.9,2.3-2,2.5v-15.3
		c0-2.5-2.1-4.6-4.6-4.6h-26.3c0.3-1.1,1.3-2,2.5-2h27.8c1.4,0,2.6,1.2,2.6,2.6V234.4z"/>
	<path class="st0" d="M-176,223"/>
	<path class="st0" d="M-196,223"/>
	<rect x="-196" y="233" class="st0" width="7" height="2"/>
	<rect x="-196" y="237" class="st0" width="10" height="2"/>
	<path class="st0" d="M-171,233c-0.8,0-1.5,0.3-2,0.8c-0.5-0.5-1.2-0.8-2-0.8c-1.7,0-3,1.3-3,3s1.3,3,3,3c0.8,0,1.5-0.3,2-0.8
		c0.5,0.5,1.2,0.8,2,0.8c1.7,0,3-1.3,3-3S-169.3,233-171,233z M-175,237c-0.6,0-1-0.4-1-1s0.4-1,1-1s1,0.4,1,1S-174.4,237-175,237z
		 M-171,237c-0.6,0-1-0.4-1-1s0.4-1,1-1s1,0.4,1,1S-170.4,237-171,237z"/>
	<path class="st0" d="M-176,225.1"/>
	<path class="st0" d="M-196,225.1"/>
	<rect x="-196" y="222" class="st0" width="20" height="3"/>
</g>
<g id="Lock_1_">
	<path class="st0" d="M-237,222.3V221c0-6.1-4.9-11-11-11s-11,4.9-11,11v1.1c-2.3,0.3-4,2.2-4,4.5v15.8c0,2.5,2.1,4.6,4.6,4.6h19.8
		c2.5,0,4.6-2.1,4.6-4.6v-15.8C-234,224.6-235.3,223-237,222.3z M-257,221c0-5,4-9,9-9s9,4,9,9v1h-4v-1c0-2.8-2.2-5-5-5s-5,2.2-5,5
		v1h-4V221z M-245,222h-6v-1c0-1.7,1.3-3,3-3s3,1.3,3,3V222z M-236,242.4c0,1.4-1.2,2.6-2.6,2.6h-19.8c-1.4,0-2.6-1.2-2.6-2.6v-15.8
		c0-1.4,1.2-2.6,2.6-2.6h5.4h10h4.4c1.4,0,2.6,1.2,2.6,2.6V242.4z"/>
</g>
<g id="Documents_1_">
	<path class="st0" d="M41.6,147.2l-12-10c-0.2-0.1-0.4-0.2-0.6-0.2H11c-0.6,0-1,0.4-1,1v3H7c-0.6,0-1,0.4-1,1v39c0,0.6,0.4,1,1,1h30
		c0.6,0,1-0.4,1-1v-3h3c0.6,0,1-0.4,1-1v-29C42,147.7,41.9,147.4,41.6,147.2z M39.4,148H29v-8.7L39.4,148z M36,180H8v-37h2v34
		c0,0.6,0.4,1,1,1h25V180z M12,176v-37h15v10c0,0.6,0.4,1,1,1h12v26H12z"/>
</g>
<g id="Phone_1_">
	<path class="st0" d="M-34,181h-22c-0.6,0-1-0.4-1-1v-40c0-0.6,0.4-1,1-1h22c0.6,0,1,0.4,1,1v40C-33,180.6-33.4,181-34,181z
		 M-55,179h20v-38h-20V179z"/>
	<path class="st0" d="M-38,172h-14c-0.6,0-1-0.4-1-1v-25c0-0.6,0.4-1,1-1h14c0.6,0,1,0.4,1,1v25C-37,171.6-37.4,172-38,172z
		 M-51,170h12v-23h-12V170z"/>
	<path class="st0" d="M-42.5,144h-5c-0.6,0-1-0.4-1-1s0.4-1,1-1h5c0.6,0,1,0.4,1,1S-41.9,144-42.5,144z"/>
	<path class="st0" d="M-45,178c-1.4,0-2.5-1.1-2.5-2.5s1.1-2.5,2.5-2.5s2.5,1.1,2.5,2.5S-43.6,178-45,178z M-45,175
		c-0.3,0-0.5,0.2-0.5,0.5s0.2,0.5,0.5,0.5s0.5-0.2,0.5-0.5S-44.7,175-45,175z"/>
</g>
<g id="Download_1_">
	<path class="st0" d="M-101,168h-7v-2h5v-1l0.9-0.1c3.4-0.4,7.1-3.5,7.1-7.3c0-4.1-3.1-7.3-7-7.3c-1,0-1.8,0.2-2.8,0.6l-1.1,0.5
		l-0.2-1.2c-0.8-4.2-4.5-7.2-8.7-7.2c-4.8,0-8.6,3.7-8.9,8.5l0,0.8l-0.8,0.1c-3,0.4-5.4,3.4-5.4,6.7c0,3.6,3,6.8,6.3,6.8h5.7v2h-5.7
		c-4.4,0-8.3-4.1-8.3-8.8c0-4,2.8-7.6,6.3-8.6c0.6-5.5,5.2-9.6,10.8-9.6c4.8,0,8.9,3.2,10.3,7.7c0.8-0.2,1.6-0.4,2.5-0.4
		c5.1,0,9,4.1,9,9.3c0,4.7-4,8.2-7.9,9.1V168z"/>
	<path class="st0" d="M-107.4,171.3c-0.4-0.4-1-0.4-1.4,0l-3.2,3.2V160h-2v14.6l-3.3-3.2c-0.4-0.4-1-0.4-1.4,0s-0.4,1,0,1.4l4.9,5
		c0.2,0.2,0.4,0.3,0.7,0.3s0.5-0.1,0.7-0.3l4.9-5C-107,172.4-107,171.7-107.4,171.3z"/>
</g>
<g id="Upload_1_">
	<path class="st0" d="M-169,168h-7v-2h5v-1l0.9-0.1c3.4-0.4,7.1-3.5,7.1-7.3c0-4.1-3.1-7.3-7-7.3c-1,0-1.8,0.2-2.8,0.6l-1.1,0.5
		l-0.2-1.2c-0.8-4.2-4.5-7.2-8.7-7.2c-4.8,0-8.6,3.7-8.9,8.5l0,0.8l-0.8,0.1c-3,0.4-5.4,3.4-5.4,6.7c0,3.6,3,6.8,6.3,6.8h5.7v2h-5.7
		c-4.4,0-8.3-4.1-8.3-8.8c0-4,2.8-7.6,6.3-8.6c0.6-5.5,5.2-9.6,10.8-9.6c4.8,0,8.9,3.2,10.3,7.7c0.8-0.2,1.6-0.4,2.5-0.4
		c5.1,0,9,4.1,9,9.3c0,4.7-4,8.2-7.9,9.1V168z"/>
	<path class="st0" d="M-175.4,160.2l-4.9-5c-0.4-0.4-1-0.4-1.4,0l-4.9,5c-0.4,0.4-0.4,1,0,1.4s1,0.4,1.4,0l3.3-3.2V173h2v-14.6
		l3.2,3.2c0.2,0.2,0.4,0.3,0.7,0.3s0.5-0.1,0.7-0.3C-175,161.3-175,160.6-175.4,160.2z"/>
</g>
<g id="Cloud_1_">
	<path class="st0" d="M-237,168h-22.7c-4.4,0-8.3-4.1-8.3-8.8c0-4,2.8-7.6,6.3-8.6c0.6-5.5,5.2-9.6,10.8-9.6c4.8,0,8.9,3.2,10.3,7.7
		c0.8-0.2,1.6-0.4,2.5-0.4c5.1,0,9,4.1,9,9.3c0,4.7-4,8.2-7.9,9.1V168z M-250.9,143c-4.8,0-8.6,3.7-8.9,8.5l0,0.8l-0.8,0.1
		c-3,0.4-5.4,3.4-5.4,6.7c0,3.6,3,6.8,6.3,6.8h20.7v-1l0.9-0.1c3.4-0.4,7.1-3.5,7.1-7.3c0-4.1-3.1-7.3-7-7.3c-1,0-1.8,0.2-2.8,0.6
		l-1.1,0.5l-0.2-1.2C-243.1,146-246.7,143-250.9,143z"/>
</g>
<g id="Award_1_">
	<path class="st0" d="M24.1,96.6l-2.9-1.7l-3.4,0L16.1,92l-2.9-1.7l0-3.4l-1.7-2.9l1.7-2.9l0-3.4l2.9-1.7l1.7-2.9l3.4,0l2.9-1.7
		l2.9,1.7l3.4,0l1.7,2.9l2.9,1.7l0,3.4l1.7,2.9l-1.7,2.9l0,3.4L32,91.9l-1.7,2.9l-3.4,0L24.1,96.6z M21.7,92.9l2.4,1.4l2.4-1.4
		l2.7,0l1.4-2.4l2.4-1.4l0-2.7l1.4-2.4l-1.4-2.4l0-2.7l-2.4-1.4l-1.4-2.4l-2.7,0l-2.4-1.4l-2.4,1.4l-2.7,0l-1.4,2.4l-2.4,1.4l0,2.7
		l-1.4,2.4l1.4,2.4l0,2.7l2.4,1.4l1.4,2.4L21.7,92.9z"/>
	<path class="st0" d="M24,92c-1,0-2-0.2-3-0.6c-2-0.8-3.5-2.3-4.4-4.3c-0.8-2-0.9-4.1-0.1-6.1s2.3-3.5,4.3-4.4
		c2-0.8,4.1-0.9,6.1-0.1c2,0.8,3.5,2.3,4.4,4.3c0.8,2,0.9,4.1,0.1,6.1s-2.3,3.5-4.3,4.4C26.1,91.8,25.1,92,24,92z M24,78
		c-0.8,0-1.6,0.2-2.4,0.5c-1.5,0.6-2.6,1.8-3.2,3.3c-0.6,1.5-0.6,3.1,0.1,4.6c0.6,1.5,1.8,2.6,3.3,3.2c1.5,0.6,3.1,0.6,4.6-0.1
		c1.5-0.6,2.6-1.8,3.2-3.3v0c0.6-1.5,0.6-3.1-0.1-4.6c-0.6-1.5-1.8-2.6-3.3-3.2C25.5,78.1,24.8,78,24,78z"/>
	<path class="st0" d="M17.7,114l-4.6-3.6l-4.9,0.8l5.3-16.4l9.4,3L17.7,114z M13.7,108.2l3,2.4L20.4,99l-5.6-1.8l-3.7,11.4
		L13.7,108.2z"/>
	<path class="st0" d="M30,114l-5.2-16.2l9.4-3l5.3,16.4l-4.9-0.8L30,114z M27.3,99l3.7,11.5l3-2.4l2.6,0.4l-3.7-11.4L27.3,99z"/>
</g>
<g id="Clipboard_1_">
	<path class="st0" d="M-37,73v-2h-15v2h-8v41h31V73H-37z M-50,73h11v1h-1v2h-9v-2h-1V73z M-31,112h-27V75h6v1h1v2h13v-2h1v-1h6V112z
		"/>
	<rect x="-56" y="82" class="st0" width="15" height="2"/>
	<rect x="-56" y="96" class="st0" width="13" height="2"/>
	<rect x="-56" y="89" class="st0" width="17" height="2"/>
	<rect x="-56" y="103" class="st0" width="15" height="2"/>
</g>
<g id="Stopwatch_1_">
	<path class="st0" d="M-109,74.3V72h1c0.6,0,1-0.4,1-1s-0.4-1-1-1h-2h-4h-2c-0.6,0-1,0.4-1,1s0.4,1,1,1h1v2.3
		c-9.6,1.5-17,9.7-17,19.7c0,11,9,20,20,20c11,0,20-9,20-20C-92,84-99.4,75.7-109,74.3z M-113,74v-2h2v2H-113z M-112,112
		c-9.9,0-18-8.1-18-18c0-9.9,8.1-18,18-18c9.9,0,18,8.1,18,18C-94,103.9-102.1,112-112,112z"/>
	<path class="st0" d="M-112,78c-8.8,0-16,7.2-16,16s7.2,16,16,16s16-7.2,16-16S-103.2,78-112,78z M-112,108c-7.7,0-14-6.3-14-14
		s6.3-14,14-14s14,6.3,14,14S-104.3,108-112,108z"/>
	<path class="st0" d="M-104.7,85.3l-6,6c-0.4-0.2-0.8-0.3-1.3-0.3c-1.3,0-2.4,0.8-2.8,2h-7.2c-0.6,0-1,0.4-1,1s0.4,1,1,1h7.2
		c0.4,1.2,1.5,2,2.8,2c1.7,0,3-1.3,3-3c0-0.5-0.1-0.9-0.3-1.3l6-6c0.4-0.4,0.4-1,0-1.4S-104.3,84.9-104.7,85.3z M-112,95
		c-0.6,0-1-0.4-1-1s0.4-1,1-1c0,0.3,0.1,0.5,0.3,0.7s0.5,0.3,0.7,0.3C-111,94.6-111.4,95-112,95z"/>
</g>
<g id="Bulb_1_">
	<g>
		<path class="st0" d="M-183.8,104.9h-1v-2.7c-1-0.8-1.7-2-1.7-3.3c0.3-2.8-2.1-6.8-3.1-8.4c-0.2-0.3-0.4-0.6-0.6-0.9l-0.5-0.7
			l0.1-0.1c-1-1.9-1.5-4-1.5-6.1c0-7.4,6-13.4,13.4-13.4s13.4,6,13.4,13.4c0,2.1-0.5,4.2-1.5,6.1l0,0.1l-0.5,0.7
			c-0.2,0.3-0.4,0.6-0.6,0.9c-1,1.5-3.3,5.5-3,8.1c0,1.2,0,3-1,4v2.1h-1c-1.1,0-3.5,0-5.9,0C-180.9,104.9-182.9,104.9-183.8,104.9z
			 M-188.4,88.5L-188.4,88.5c0.2,0.3,0.4,0.6,0.6,0.8c1.4,2.2,3.7,6.4,3.4,9.6c0,0.7,0.4,1.4,1.1,1.8l0.5,0.3v1.9c1,0,2.5,0,4,0
			c1.8,0,3.6,0,4.9,0v-1.2l0.5-0.3c0.5-0.3,0.5-1.9,0.5-2.5c-0.3-3.1,2-7.2,3.4-9.4c0.2-0.3,0.4-0.6,0.6-0.9l0.1-0.1
			c1-1.7,1.6-3.7,1.6-5.7c0-6.3-5.1-11.4-11.4-11.4S-190,76.4-190,82.7C-190,84.7-189.5,86.7-188.4,88.5L-188.4,88.5z"/>
	</g>
	<rect x="-185" y="106" class="st0" width="13" height="2"/>
	<rect x="-185" y="108.9" class="st0" width="13" height="2"/>
	<rect x="-182" y="112" class="st0" width="7" height="2"/>
</g>
<g id="Trash_1_">
	<path class="st0" d="M-256,83c-0.6,0-1,0.4-1,1v22c0,0.6,0.4,1,1,1s1-0.4,1-1V84C-255,83.4-255.4,83-256,83z"/>
	<path class="st0" d="M-248,83c-0.6,0-1,0.4-1,1v22c0,0.6,0.4,1,1,1s1-0.4,1-1V84C-247,83.4-247.4,83-248,83z"/>
	<path class="st0" d="M-240,107c0.6,0,1-0.4,1-1V84c0-0.6-0.4-1-1-1s-1,0.4-1,1v22C-241,106.6-240.6,107-240,107z"/>
	<path class="st0" d="M-232,79h-3h-8v-3c0-0.6-0.4-1-1-1h-8c-0.6,0-1,0.4-1,1v3h-8h-3c-0.6,0-1,0.4-1,1s0.4,1,1,1h2v29
		c0,0.6,0.4,1,1,1h26c0.6,0,1-0.4,1-1V81h2c0.6,0,1-0.4,1-1S-231.4,79-232,79z M-251,77h6v2h-6V77z M-236,109h-24V81h8h8h8V109z"/>
</g>
<g id="Bolt_1_">
	<path class="st0" d="M17,46c-0.1,0-0.2,0-0.3-0.1c-0.4-0.2-0.7-0.6-0.6-1.1L18.8,25H14c-0.3,0-0.6-0.2-0.8-0.4
		C13,24.3,13,24,13,23.7l7-22C20.2,1.3,20.6,1,21,1h15c0.3,0,0.7,0.2,0.8,0.5c0.2,0.3,0.2,0.7,0.1,1L30.6,16H35
		c0.4,0,0.7,0.2,0.9,0.5c0.2,0.3,0.2,0.7,0,1l-18,28C17.7,45.8,17.3,46,17,46z M15.4,23H20c0.3,0,0.6,0.1,0.8,0.3
		c0.2,0.2,0.3,0.5,0.2,0.8l-2.4,16.5L33.2,18H29c-0.3,0-0.7-0.2-0.8-0.5c-0.2-0.3-0.2-0.7-0.1-1L34.4,3H21.7L15.4,23z"/>
</g>
<g id="Magnifying_Glass_1_">
	<path class="st0" d="M-30.6,9.9c-2.1-2.1-4.9-3.2-7.8-3.2c-2.9,0-5.7,1.1-7.8,3.2c-4.3,4.3-4.3,11.3,0,15.6
		c2.1,2.1,4.9,3.2,7.8,3.2c2.9,0,5.7-1.1,7.8-3.2C-26.3,21.2-26.3,14.2-30.6,9.9z M-32,24.1c-1.7,1.7-4,2.6-6.4,2.6
		c-2.4,0-4.7-0.9-6.4-2.6c-3.5-3.5-3.5-9.3,0-12.8c1.7-1.7,4-2.6,6.4-2.6c2.4,0,4.7,0.9,6.4,2.6C-28.5,14.8-28.5,20.5-32,24.1z"/>
	<path class="st0" d="M-27.4,6.7c-6-6-15.9-6-21.9,0c-4.7,4.7-5.7,11.6-3.1,17.3c0,0,0,0,0,0l-13.4,13.4c-0.2,0.2-0.3,0.4-0.3,0.7
		s0.1,0.5,0.3,0.7l6.3,6.3c0.2,0.2,0.5,0.3,0.7,0.3s0.5-0.1,0.7-0.3l13.4-13.4c0,0,0,0,0,0c2,0.9,4.1,1.4,6.4,1.4
		c4.1,0,8-1.6,11-4.5c2.9-2.9,4.5-6.8,4.5-11S-24.5,9.6-27.4,6.7z M-46.9,31.1l-12,12l-4.9-4.9l12-12l2.4,2.4c0,0,0,0,0,0
		c0,0,0,0,0,0L-46.9,31.1z M-28.8,27.2c-2.5,2.5-5.9,4-9.5,4c-3.6,0-7-1.4-9.5-4l0,0c-5.3-5.3-5.3-13.8,0-19.1
		c2.6-2.6,6.1-3.9,9.5-3.9c3.5,0,6.9,1.3,9.5,3.9c2.5,2.5,4,5.9,4,9.5S-26.3,24.7-28.8,27.2z"/>
</g>
<g id="Pencil_1_">
	<path class="st0" d="M-89.6,10.8l-8.6-8.6c-0.4-0.4-1-0.4-1.4,0l-31.8,31.8c-0.1,0.1-0.2,0.3-0.3,0.4l-2.7,10.8
		c-0.1,0.3,0,0.7,0.2,0.9c0.2,0.2,0.4,0.3,0.7,0.3c0.1,0,0.1,0,0.2,0l11.3-2.3c0.2,0,0.4-0.1,0.5-0.3l31.8-31.8
		C-89.3,11.8-89.3,11.2-89.6,10.8z M-104.7,10.3l7.1,7.1l-1.6,1.6l-7.1-7.1c0,0-0.1-0.1-0.1-0.1l1.6-1.6
		C-104.7,10.2-104.7,10.2-104.7,10.3z M-131,39.9l3.5,3.5l-4.7,0.9L-131,39.9z M-122.6,42.5l-2.8,0.6c0-0.2-0.1-0.3-0.2-0.5
		l-4.5-4.5c-0.1-0.1-0.2-0.2-0.3-0.2l0.6-2.6l22.2-22.2c0,0,0,0.1,0.1,0.1l7.1,7.1L-122.6,42.5z M-96.2,16l-7.1-7.1
		c0,0-0.1-0.1-0.1-0.1l4.5-4.5l7.2,7.2L-96.2,16z"/>
</g>
<g id="Chart_Up">
	<path class="st0" d="M-166.8,15.7l1.5-6.8c0.1-0.5-0.2-1.1-0.8-1.2l-6.8-1.5c-0.5-0.1-1.1,0.2-1.2,0.8s0.2,1.1,0.8,1.2l4.5,1
		l-29.3,18.9l1.1,1.7l29.3-18.9l-1,4.5c-0.1,0.3,0,0.5,0.1,0.7c0.1,0.2,0.4,0.4,0.6,0.4C-167.5,16.6-166.9,16.3-166.8,15.7z"/>
	<path class="st0" d="M-159,10c-0.6,0-1,0.4-1,1v29h-2V20c0-0.6-0.4-1-1-1h-6c-0.6,0-1,0.4-1,1v20h-2V25c0-0.6-0.4-1-1-1h-6
		c-0.6,0-1,0.4-1,1v15h-2V30c0-0.6-0.4-1-1-1h-6c-0.6,0-1,0.4-1,1v10h-2v-5c0-0.6-0.4-1-1-1h-6c-0.6,0-1,0.4-1,1v5h-1
		c-0.6,0-1,0.4-1,1s0.4,1,1,1h2h6h4h6h4h6h4h6h5V11C-158,10.4-158.4,10-159,10z M-198,40v-4h4v4H-198z M-188,40v-9h4v9H-188z
		 M-178,40V26h4v14H-178z M-168,40V21h4v19H-168z"/>
</g>
<g id="Graph_2_">
	<path class="st0" d="M-227,10c-0.6,0-1,0.4-1,1v29h-2V13c0-0.6-0.4-1-1-1h-6c-0.6,0-1,0.4-1,1v27h-2V22c0-0.6-0.4-1-1-1h-6
		c-0.6,0-1,0.4-1,1v18h-2V19c0-0.6-0.4-1-1-1h-6c-0.6,0-1,0.4-1,1v21h-2V24c0-0.6-0.4-1-1-1h-6c-0.6,0-1,0.4-1,1v16h-1
		c-0.6,0-1,0.4-1,1s0.4,1,1,1h2h6h4h6h4h6h4h6h5V11C-226,10.4-226.4,10-227,10z M-266,40V25h4v15H-266z M-256,40V20h4v20H-256z
		 M-246,40V23h4v17H-246z M-236,40V14h4v26H-236z"/>
</g>
<g id="Mail_1_">
	<path class="st0" d="M47-59c0-0.5-0.4-1-1-1H2c-0.5,0-1,0.4-1,1V-28c0,0.5,0.4,1,1,1H46c0.5,0,1-0.4,1-1V-59z M43.7-58L24.1-39.1
		L4.6-58H43.7z M3-29v-27.4l20.4,19.6c0.2,0.2,0.5,0.3,0.7,0.3c0.2,0,0.5-0.1,0.7-0.3L45-56.4V-29H3z"/>
</g>
<g id="Pin_1_">
	<path class="st0" d="M-44.4-21.8c-0.3,0-0.6-0.2-0.8-0.4c-0.6-0.9-14-21.2-14-29.1c0-8.2,6.6-14.8,14.8-14.8s14.8,6.6,14.8,14.8
		c0,7.8-13.4,28.2-14,29.1C-43.7-22-44.1-21.8-44.4-21.8z M-44.4-64.2c-7.1,0-12.8,5.7-12.8,12.8c0,6.2,9.8,22,12.8,26.7
		c3-4.6,12.8-20.5,12.8-26.7C-31.6-58.4-37.3-64.2-44.4-64.2z"/>
	<path class="st0" d="M-44.4-44.9c-3.6,0-6.5-2.9-6.5-6.5s2.9-6.5,6.5-6.5s6.5,2.9,6.5,6.5S-40.8-44.9-44.4-44.9z M-44.4-55.9
		c-2.5,0-4.5,2-4.5,4.5s2,4.5,4.5,4.5c2.5,0,4.5-2,4.5-4.5S-41.9-55.9-44.4-55.9z"/>
</g>
<g id="House_1_">
	<path class="st0" d="M-89.6-51.9l-22-11c-0.3-0.1-0.6-0.1-0.9,0l-22,11c-0.5,0.2-0.7,0.8-0.4,1.3c0.2,0.5,0.8,0.7,1.3,0.4l4.6-2.3
		V-24c0,0.6,0.4,1,1,1h11h10h11c0.6,0,1-0.4,1-1v-28.4l4.6,2.3C-90.3-50-90.2-50-90-50c0.4,0,0.7-0.2,0.9-0.6
		C-88.9-51-89.1-51.6-89.6-51.9z M-116-25v-16h8v16H-116z M-97-25h-9v-16.9c0-0.6-0.4-1.1-1-1.1h-10c-0.6,0-1,0.5-1,1.1V-25h-9
		v-28.4l15-7.5l15,7.5V-25z"/>
</g>
<g id="Money_1_">
	<rect x="-193" y="-34" class="st0" width="5" height="2"/>
	<rect x="-197" y="-41" class="st0" width="5" height="2"/>
	<rect x="-171" y="-57" class="st0" width="5" height="2"/>
	<path class="st0" d="M-162-54v-7h-40v26h4v7h40v-26H-162z M-200-37v-22h36v5v17h-34H-200z M-160-30h-36v-5h34v-12h1v-2h-1v-3h2V-30
		z"/>
	<path class="st0" d="M-180.6-42h-2.8c-2.5,0-4.6-2.1-4.6-4.6v-2.8c0-2.5,2.1-4.6,4.6-4.6h2.8c2.5,0,4.6,2.1,4.6,4.6v2.8
		C-176-44.1-178.1-42-180.6-42z M-183.4-52c-1.4,0-2.6,1.2-2.6,2.6v2.8c0,1.4,1.2,2.6,2.6,2.6h2.8c1.4,0,2.6-1.2,2.6-2.6v-2.8
		c0-1.4-1.2-2.6-2.6-2.6H-183.4z"/>
</g>
<g id="Shopping_Cart">
	<path class="st0" d="M-257.5-23.9c-1.8,0-3.3-1.5-3.3-3.3s1.5-3.3,3.3-3.3s3.3,1.5,3.3,3.3S-255.7-23.9-257.5-23.9z M-257.5-28.5
		c-0.7,0-1.3,0.6-1.3,1.3c0,0.7,0.6,1.3,1.3,1.3c0.7,0,1.3-0.6,1.3-1.3C-256.2-27.9-256.8-28.5-257.5-28.5z"/>
	<path class="st0" d="M-236.5-23.9c-1.8,0-3.3-1.5-3.3-3.3s1.5-3.3,3.3-3.3s3.3,1.5,3.3,3.3S-234.6-23.9-236.5-23.9z M-236.5-28.5
		c-0.7,0-1.3,0.6-1.3,1.3c0,0.7,0.6,1.3,1.3,1.3s1.3-0.6,1.3-1.3C-235.2-27.9-235.7-28.5-236.5-28.5z"/>
	<path class="st0" d="M-226-62h-7c-0.6,0-1,0.4-1,1v4h-35c-0.3,0-0.6,0.1-0.8,0.4s-0.3,0.5-0.2,0.8l3.8,19c0.1,0.5,0.5,0.8,1,0.8
		h31.2v3h-28c-0.6,0-1,0.4-1,1s0.4,1,1,1h29c0.6,0,1-0.4,1-1v-28h6c0.6,0,1-0.4,1-1S-225.4-62-226-62z M-264.4-38l-3.4-17h33.8v17
		H-264.4z"/>
</g>
</svg>
