<?xml version="1.0" encoding="utf-8"?>
<!-- Generator: Adobe Illustrator 21.0.2, SVG Export Plug-In . SVG Version: 6.00 Build 0)  -->
<svg version="1.1" xmlns="http://www.w3.org/2000/svg" xmlns:xlink="http://www.w3.org/1999/xlink" x="0px" y="0px"
	 viewBox="0 0 48 48" style="enable-background:new 0 0 48 48;" xml:space="preserve">
<style type="text/css">
	.st0{fill:#6B6B6B;}
	.st1{fill:none;stroke:#6B6B6B;}
	.st2{fill:none;stroke:#6B6B6B;stroke-width:3;stroke-linecap:round;stroke-linejoin:round;stroke-miterlimit:10;}
</style>
<g id="Monitor_1_">
	<path class="st0" d="M41.4,141H6.6c-2.5,0-4.6,2.1-4.6,4.6v21.8c0,2.5,2.1,4.6,4.6,4.6H17v4h-1.8c-0.6,0-1,0.4-1,1s0.4,1,1,1H33
		c0.6,0,1-0.4,1-1s-0.4-1-1-1h-2v-4h10.4c2.5,0,4.6-2.1,4.6-4.6v-21.8C46,143.1,43.9,141,41.4,141z M29,172v4H19v-4H29z M4,145.6
		c0-1.4,1.2-2.6,2.6-2.6h34.8c1.4,0,2.6,1.2,2.6,2.6V165c0,0-0.1,0-0.1,0H4V145.6z M41.4,170H6.6c-1.4,0-2.6-1.2-2.6-2.6V167h39.9
		c0,0,0.1,0,0.1,0v0.4C44,168.8,42.8,170,41.4,170z"/>
	<g>
		<path class="st1" d="M-180.4,199.6c-0.1,0.1-6.1,6.1-15.6,3.1l-0.6-0.2l-0.1,0.6c-0.1,0.6-2.2,15.9-1,21.8l0,0.1l0,0.1
			c0.1,0.1,6.1,10.8,17.4,15.7l0.2,0.1l0.2-0.1c11.3-4.9,17.3-15.6,17.4-15.7l0-0.1l0-0.1c0.5-2.5,0.5-6.9-0.1-13.2
			c-0.2-2.4-0.5-4.6-0.6-6.1l-0.2-1.9c-0.1-1-0.1-1-0.4-1.1l-0.2-0.1l-0.2,0.1c-9.6,3-15.6-3-15.6-3.1l-0.4-0.4L-180.4,199.6z"/>
	</g>
	<g>
		<path class="st0" d="M-180,201.3c1.5,1.2,5.2,3.7,10.6,3.7c1.5,0,3.1-0.2,4.6-0.6c0.5,3.7,1.8,15.1,0.9,20
			c-0.7,1.2-6.3,10.3-16.2,14.7c-9.9-4.4-15.5-13.5-16.2-14.7c-0.9-4.9,0.4-16.3,0.9-20c1.6,0.4,3.1,0.6,4.6,0.6
			C-185.2,205-181.5,202.5-180,201.3 M-180,199.9c0,0-3.9,4.1-10.6,4.1c-1.7,0-3.5-0.3-5.5-0.9c0,0-2.2,15.7-1,21.6
			c0,0,5.9,10.6,17.2,15.5c11.3-4.8,17.2-15.5,17.2-15.5c1.2-5.9-1-21.6-1-21.6c-2,0.6-3.8,0.9-5.5,0.9
			C-176.1,204-180,199.9-180,199.9L-180,199.9z"/>
	</g>
	<g>
		<path class="st0" d="M-180,206.5c1.6,1.1,4.5,2.7,8.5,2.7c0.9,0,1.8-0.1,2.7-0.2c0.5,4.1,1.1,11,0.6,14.1
			c-0.8,1.4-4.9,7.6-11.8,10.9c-6.9-3.3-11-9.5-11.8-10.9c-0.5-3.2,0.1-10,0.6-14.1c0.9,0.2,1.8,0.2,2.7,0.2
			C-184.6,209.2-181.6,207.7-180,206.5 M-180,204c0,0-3.2,3.3-8.5,3.3c-1.3,0-2.8-0.2-4.4-0.7c0,0-1.8,12.6-0.8,17.3
			c0,0,4.7,8.5,13.7,12.4c9-3.9,13.7-12.4,13.7-12.4c0.9-4.7-0.8-17.3-0.8-17.3c-1.6,0.5-3.1,0.7-4.4,0.7
			C-176.9,207.2-180,204-180,204L-180,204z"/>
	</g>
	<polyline class="st2" points="-261.7,222.4 -253.7,228.1 -234.4,209.7 	"/>
</g>
<g id="Computer_1_">
	<path class="st0" d="M-22.1,172.6l-3.9-8.8V142c0-0.6-0.4-1-1-1h-34c-0.6,0-1,0.4-1,1v21.8l-3.9,8.8c-0.1,0.3-0.1,0.7,0.1,1
		s0.5,0.5,0.8,0.5h42c0.3,0,0.7-0.2,0.8-0.5S-21.9,172.9-22.1,172.6z M-60,143h32v20h-32V143z M-63.5,172l3.1-7h32.7l3.1,7H-63.5z"
		/>
	<path class="st0" d="M-31,145h-26c-0.6,0-1,0.4-1,1v14c0,0.6,0.4,1,1,1h26c0.6,0,1-0.4,1-1v-14C-30,145.4-30.4,145-31,145z
		 M-32,159h-24v-12h24V159z"/>
</g>
<g id="Wifi_1_">
	<path class="st0" d="M-111.7,174.5c-2.4,0-4.3-1.9-4.3-4.3s1.9-4.3,4.3-4.3s4.3,1.9,4.3,4.3S-109.3,174.5-111.7,174.5z
		 M-111.7,168.1c-1.1,0-2,0.9-2,2c0,1.1,0.9,2,2,2c1.1,0,2-0.9,2-2C-109.6,169-110.5,168.1-111.7,168.1z"/>
	<g>
		<path class="st0" d="M-111.7,175"/>
		<path class="st0" d="M-92.4,156.9c-0.3,0-0.7-0.2-0.9-0.5c-4.4-5.8-11-9.2-18.3-9.2s-13.9,3.3-18.3,9.2c-0.4,0.5-1.1,0.6-1.6,0.2
			c-0.5-0.4-0.6-1.1-0.2-1.6c4.8-6.4,12.1-10.1,20.1-10.1c8,0,15.3,3.7,20.1,10.1c0.4,0.5,0.3,1.2-0.2,1.6
			C-92,156.8-92.2,156.9-92.4,156.9z"/>
	</g>
	<g>
		<path class="st0" d="M-111.7,175"/>
		<path class="st0" d="M-96.6,161.1c-0.4,0-0.7-0.2-0.9-0.5c-3.2-4.7-8.5-7.5-14.1-7.5s-10.9,2.8-14.1,7.5c-0.3,0.5-1,0.6-1.6,0.3
			c-0.5-0.3-0.6-1-0.3-1.6c3.6-5.3,9.6-8.5,16-8.5c6.4,0,12.4,3.2,16,8.5c0.3,0.5,0.2,1.2-0.3,1.6C-96.2,161-96.4,161.1-96.6,161.1z
			"/>
	</g>
	<g>
		<path class="st0" d="M-100.3,164.7c-0.4,0-0.8-0.2-1-0.6c-2.2-3.7-6.1-6-10.4-6c-4.3,0-8.3,2.3-10.4,6c-0.3,0.5-1,0.7-1.5,0.4
			c-0.5-0.3-0.7-1-0.4-1.5c2.6-4.4,7.3-7.2,12.4-7.2c5.1,0,9.8,2.7,12.4,7.2c0.3,0.5,0.1,1.2-0.4,1.5
			C-99.9,164.7-100.1,164.7-100.3,164.7z"/>
		<path class="st0" d="M-123.1,163.6"/>
		<path class="st0" d="M-100.3,163.6"/>
	</g>
	<g>
		<path class="st0" d="M-111.7,175"/>
		<path class="st0" d="M-104,168.5c-0.5,0-0.9-0.3-1.1-0.7c-1-2.8-3.7-4.6-6.6-4.6c-2.9,0-5.6,1.9-6.6,4.6c-0.2,0.6-0.9,0.9-1.4,0.7
			c-0.6-0.2-0.9-0.9-0.7-1.4c1.3-3.6,4.8-6.1,8.7-6.1c3.9,0,7.4,2.4,8.7,6.1c0.2,0.6-0.1,1.2-0.7,1.4
			C-103.7,168.4-103.9,168.5-104,168.5z"/>
		<path class="st0" d="M-119.3,167.3"/>
		<path class="st0" d="M-111.7,175"/>
		<path class="st0" d="M-104,167.3"/>
	</g>
</g>
<g id="Credit_Card_1_">
	<path class="st0" d="M-164.6,145h-27.8c-2.4,0-4.3,1.8-4.5,4.1c-2.3,0.3-4.1,2.2-4.1,4.5v16.8c0,2.5,2.1,4.6,4.6,4.6h27.8
		c2.4,0,4.3-1.8,4.5-4.1c2.3-0.3,4.1-2.2,4.1-4.5v-16.8C-160,147.1-162.1,145-164.6,145z M-166,170.4c0,1.4-1.2,2.6-2.6,2.6h-27.8
		c-1.4,0-2.6-1.2-2.6-2.6v-16.8c0-1.4,1.2-2.6,2.6-2.6h27.8c1.4,0,2.6,1.2,2.6,2.6V170.4z M-162,166.4c0,1.2-0.9,2.3-2,2.5v-15.3
		c0-2.5-2.1-4.6-4.6-4.6h-26.3c0.3-1.1,1.3-2,2.5-2h27.8c1.4,0,2.6,1.2,2.6,2.6V166.4z"/>
	<path class="st0" d="M-176,155"/>
	<path class="st0" d="M-196,155"/>
	<rect x="-196" y="165" class="st0" width="7" height="2"/>
	<rect x="-196" y="169" class="st0" width="10" height="2"/>
	<path class="st0" d="M-171,165c-0.8,0-1.5,0.3-2,0.8c-0.5-0.5-1.2-0.8-2-0.8c-1.7,0-3,1.3-3,3s1.3,3,3,3c0.8,0,1.5-0.3,2-0.8
		c0.5,0.5,1.2,0.8,2,0.8c1.7,0,3-1.3,3-3S-169.3,165-171,165z M-175,169c-0.6,0-1-0.4-1-1s0.4-1,1-1s1,0.4,1,1S-174.4,169-175,169z
		 M-171,169c-0.6,0-1-0.4-1-1s0.4-1,1-1s1,0.4,1,1S-170.4,169-171,169z"/>
	<path class="st0" d="M-176,157.1"/>
	<path class="st0" d="M-196,157.1"/>
	<rect x="-196" y="154" class="st0" width="20" height="3"/>
</g>
<g id="Lock_1_">
	<path class="st0" d="M-237,154.3V153c0-6.1-4.9-11-11-11s-11,4.9-11,11v1.1c-2.3,0.3-4,2.2-4,4.5v15.8c0,2.5,2.1,4.6,4.6,4.6h19.8
		c2.5,0,4.6-2.1,4.6-4.6v-15.8C-234,156.6-235.3,155-237,154.3z M-257,153c0-5,4-9,9-9s9,4,9,9v1h-4v-1c0-2.8-2.2-5-5-5s-5,2.2-5,5
		v1h-4V153z M-245,154h-6v-1c0-1.7,1.3-3,3-3s3,1.3,3,3V154z M-236,174.4c0,1.4-1.2,2.6-2.6,2.6h-19.8c-1.4,0-2.6-1.2-2.6-2.6v-15.8
		c0-1.4,1.2-2.6,2.6-2.6h5.4h10h4.4c1.4,0,2.6,1.2,2.6,2.6V174.4z"/>
</g>
<g id="Documents_1_">
	<path class="st0" d="M41.6,79.2l-12-10C29.5,69.1,29.2,69,29,69H11c-0.6,0-1,0.4-1,1v3H7c-0.6,0-1,0.4-1,1v39c0,0.6,0.4,1,1,1h30
		c0.6,0,1-0.4,1-1v-3h3c0.6,0,1-0.4,1-1V80C42,79.7,41.9,79.4,41.6,79.2z M39.4,80H29v-8.7L39.4,80z M36,112H8V75h2v34
		c0,0.6,0.4,1,1,1h25V112z M12,108V71h15v10c0,0.6,0.4,1,1,1h12v26H12z"/>
</g>
<g id="Phone_1_">
	<path class="st0" d="M-34,113h-22c-0.6,0-1-0.4-1-1V72c0-0.6,0.4-1,1-1h22c0.6,0,1,0.4,1,1v40C-33,112.6-33.4,113-34,113z M-55,111
		h20V73h-20V111z"/>
	<path class="st0" d="M-38,104h-14c-0.6,0-1-0.4-1-1V78c0-0.6,0.4-1,1-1h14c0.6,0,1,0.4,1,1v25C-37,103.6-37.4,104-38,104z M-51,102
		h12V79h-12V102z"/>
	<path class="st0" d="M-42.5,76h-5c-0.6,0-1-0.4-1-1s0.4-1,1-1h5c0.6,0,1,0.4,1,1S-41.9,76-42.5,76z"/>
	<path class="st0" d="M-45,110c-1.4,0-2.5-1.1-2.5-2.5s1.1-2.5,2.5-2.5s2.5,1.1,2.5,2.5S-43.6,110-45,110z M-45,107
		c-0.3,0-0.5,0.2-0.5,0.5s0.2,0.5,0.5,0.5s0.5-0.2,0.5-0.5S-44.7,107-45,107z"/>
</g>
<g id="Download_1_">
	<path class="st0" d="M-101,100h-7v-2h5v-1l0.9-0.1c3.4-0.4,7.1-3.5,7.1-7.3c0-4.1-3.1-7.3-7-7.3c-1,0-1.8,0.2-2.8,0.6l-1.1,0.5
		l-0.2-1.2c-0.8-4.2-4.5-7.2-8.7-7.2c-4.8,0-8.6,3.7-8.9,8.5l0,0.8l-0.8,0.1c-3,0.4-5.4,3.4-5.4,6.7c0,3.6,3,6.8,6.3,6.8h5.7v2h-5.7
		c-4.4,0-8.3-4.1-8.3-8.8c0-4,2.8-7.6,6.3-8.6c0.6-5.5,5.2-9.6,10.8-9.6c4.8,0,8.9,3.2,10.3,7.7c0.8-0.2,1.6-0.4,2.5-0.4
		c5.1,0,9,4.1,9,9.3c0,4.7-4,8.2-7.9,9.1V100z"/>
	<path class="st0" d="M-107.4,103.3c-0.4-0.4-1-0.4-1.4,0l-3.2,3.2V92h-2v14.6l-3.3-3.2c-0.4-0.4-1-0.4-1.4,0s-0.4,1,0,1.4l4.9,5
		c0.2,0.2,0.4,0.3,0.7,0.3s0.5-0.1,0.7-0.3l4.9-5C-107,104.4-107,103.7-107.4,103.3z"/>
</g>
<g id="Upload_1_">
	<path class="st0" d="M-169,100h-7v-2h5v-1l0.9-0.1c3.4-0.4,7.1-3.5,7.1-7.3c0-4.1-3.1-7.3-7-7.3c-1,0-1.8,0.2-2.8,0.6l-1.1,0.5
		l-0.2-1.2c-0.8-4.2-4.5-7.2-8.7-7.2c-4.8,0-8.6,3.7-8.9,8.5l0,0.8l-0.8,0.1c-3,0.4-5.4,3.4-5.4,6.7c0,3.6,3,6.8,6.3,6.8h5.7v2h-5.7
		c-4.4,0-8.3-4.1-8.3-8.8c0-4,2.8-7.6,6.3-8.6c0.6-5.5,5.2-9.6,10.8-9.6c4.8,0,8.9,3.2,10.3,7.7c0.8-0.2,1.6-0.4,2.5-0.4
		c5.1,0,9,4.1,9,9.3c0,4.7-4,8.2-7.9,9.1V100z"/>
	<path class="st0" d="M-175.4,92.2l-4.9-5c-0.4-0.4-1-0.4-1.4,0l-4.9,5c-0.4,0.4-0.4,1,0,1.4s1,0.4,1.4,0l3.3-3.2V105h2V90.4
		l3.2,3.2c0.2,0.2,0.4,0.3,0.7,0.3s0.5-0.1,0.7-0.3C-175,93.3-175,92.6-175.4,92.2z"/>
</g>
<g id="Cloud_1_">
	<path class="st0" d="M-237,100h-22.7c-4.4,0-8.3-4.1-8.3-8.8c0-4,2.8-7.6,6.3-8.6c0.6-5.5,5.2-9.6,10.8-9.6c4.8,0,8.9,3.2,10.3,7.7
		c0.8-0.2,1.6-0.4,2.5-0.4c5.1,0,9,4.1,9,9.3c0,4.7-4,8.2-7.9,9.1V100z M-250.9,75c-4.8,0-8.6,3.7-8.9,8.5l0,0.8l-0.8,0.1
		c-3,0.4-5.4,3.4-5.4,6.7c0,3.6,3,6.8,6.3,6.8h20.7v-1l0.9-0.1c3.4-0.4,7.1-3.5,7.1-7.3c0-4.1-3.1-7.3-7-7.3c-1,0-1.8,0.2-2.8,0.6
		l-1.1,0.5l-0.2-1.2C-243.1,78-246.7,75-250.9,75z"/>
</g>
<g id="Award_1_">
	<path class="st0" d="M24.1,28.6l-2.9-1.7l-3.4,0L16.1,24l-2.9-1.7l0-3.4l-1.7-2.9l1.7-2.9l0-3.4L16,8.1l1.7-2.9l3.4,0l2.9-1.7
		l2.9,1.7l3.4,0L31.9,8l2.9,1.7l0,3.4l1.7,2.9l-1.7,2.9l0,3.4L32,23.9l-1.7,2.9l-3.4,0L24.1,28.6z M21.7,24.9l2.4,1.4l2.4-1.4l2.7,0
		l1.4-2.4l2.4-1.4l0-2.7l1.4-2.4l-1.4-2.4l0-2.7l-2.4-1.4l-1.4-2.4l-2.7,0l-2.4-1.4l-2.4,1.4l-2.7,0l-1.4,2.4l-2.4,1.4l0,2.7
		l-1.4,2.4l1.4,2.4l0,2.7l2.4,1.4l1.4,2.4L21.7,24.9z"/>
	<path class="st0" d="M24,24c-1,0-2-0.2-3-0.6c-2-0.8-3.5-2.3-4.4-4.3c-0.8-2-0.9-4.1-0.1-6.1s2.3-3.5,4.3-4.4
		c2-0.8,4.1-0.9,6.1-0.1c2,0.8,3.5,2.3,4.4,4.3c0.8,2,0.9,4.1,0.1,6.1s-2.3,3.5-4.3,4.4C26.1,23.8,25.1,24,24,24z M24,10
		c-0.8,0-1.6,0.2-2.4,0.5c-1.5,0.6-2.6,1.8-3.2,3.3c-0.6,1.5-0.6,3.1,0.1,4.6c0.6,1.5,1.8,2.6,3.3,3.2c1.5,0.6,3.1,0.6,4.6-0.1
		c1.5-0.6,2.6-1.8,3.2-3.3v0c0.6-1.5,0.6-3.1-0.1-4.6c-0.6-1.5-1.8-2.6-3.3-3.2C25.5,10.1,24.8,10,24,10z"/>
	<path class="st0" d="M17.7,46l-4.6-3.6l-4.9,0.8l5.3-16.4l9.4,3L17.7,46z M13.7,40.2l3,2.4L20.4,31l-5.6-1.8l-3.7,11.4L13.7,40.2z"
		/>
	<path class="st0" d="M30,46l-5.2-16.2l9.4-3l5.3,16.4l-4.9-0.8L30,46z M27.3,31L31,42.6l3-2.4l2.6,0.4l-3.7-11.4L27.3,31z"/>
</g>
<g id="Clipboard_1_">
	<path class="st0" d="M-37,5V3h-15v2h-8v41h31V5H-37z M-50,5h11v1h-1v2h-9V6h-1V5z M-31,44h-27V7h6v1h1v2h13V8h1V7h6V44z"/>
	<rect x="-56" y="14" class="st0" width="15" height="2"/>
	<rect x="-56" y="28" class="st0" width="13" height="2"/>
	<rect x="-56" y="21" class="st0" width="17" height="2"/>
	<rect x="-56" y="35" class="st0" width="15" height="2"/>
</g>
<g id="Stopwatch_1_">
	<path class="st0" d="M-109,6.3V4h1c0.6,0,1-0.4,1-1s-0.4-1-1-1h-2h-4h-2c-0.6,0-1,0.4-1,1s0.4,1,1,1h1v2.3c-9.6,1.5-17,9.7-17,19.7
		c0,11,9,20,20,20c11,0,20-9,20-20C-92,16-99.4,7.7-109,6.3z M-113,6V4h2v2H-113z M-112,44c-9.9,0-18-8.1-18-18c0-9.9,8.1-18,18-18
		c9.9,0,18,8.1,18,18C-94,35.9-102.1,44-112,44z"/>
	<path class="st0" d="M-112,10c-8.8,0-16,7.2-16,16s7.2,16,16,16s16-7.2,16-16S-103.2,10-112,10z M-112,40c-7.7,0-14-6.3-14-14
		s6.3-14,14-14s14,6.3,14,14S-104.3,40-112,40z"/>
	<path class="st0" d="M-104.7,17.3l-6,6c-0.4-0.2-0.8-0.3-1.3-0.3c-1.3,0-2.4,0.8-2.8,2h-7.2c-0.6,0-1,0.4-1,1s0.4,1,1,1h7.2
		c0.4,1.2,1.5,2,2.8,2c1.7,0,3-1.3,3-3c0-0.5-0.1-0.9-0.3-1.3l6-6c0.4-0.4,0.4-1,0-1.4S-104.3,16.9-104.7,17.3z M-112,27
		c-0.6,0-1-0.4-1-1s0.4-1,1-1c0,0.3,0.1,0.5,0.3,0.7s0.5,0.3,0.7,0.3C-111,26.6-111.4,27-112,27z"/>
</g>
<g id="Bulb_1_">
	<g>
		<path class="st0" d="M-183.8,36.9h-1v-2.7c-1-0.8-1.7-2-1.7-3.3c0.3-2.8-2.1-6.8-3.1-8.4c-0.2-0.3-0.4-0.6-0.6-0.9l-0.5-0.7
			l0.1-0.1c-1-1.9-1.5-4-1.5-6.1c0-7.4,6-13.4,13.4-13.4s13.4,6,13.4,13.4c0,2.1-0.5,4.2-1.5,6.1l0,0.1l-0.5,0.7
			c-0.2,0.3-0.4,0.6-0.6,0.9c-1,1.5-3.3,5.5-3,8.1c0,1.2,0,3-1,4v2.1h-1c-1.1,0-3.5,0-5.9,0C-180.9,36.9-182.9,36.9-183.8,36.9z
			 M-188.4,20.5L-188.4,20.5c0.2,0.3,0.4,0.6,0.6,0.8c1.4,2.2,3.7,6.4,3.4,9.6c0,0.7,0.4,1.4,1.1,1.8l0.5,0.3v1.9c1,0,2.5,0,4,0
			c1.8,0,3.6,0,4.9,0v-1.2l0.5-0.3c0.5-0.3,0.5-1.9,0.5-2.5c-0.3-3.1,2-7.2,3.4-9.4c0.2-0.3,0.4-0.6,0.6-0.9l0.1-0.1
			c1-1.7,1.6-3.7,1.6-5.7c0-6.3-5.1-11.4-11.4-11.4S-190,8.4-190,14.7C-190,16.7-189.5,18.7-188.4,20.5L-188.4,20.5z"/>
	</g>
	<rect x="-185" y="38" class="st0" width="13" height="2"/>
	<rect x="-185" y="40.9" class="st0" width="13" height="2"/>
	<rect x="-182" y="44" class="st0" width="7" height="2"/>
</g>
<g id="Trash_1_">
	<path class="st0" d="M-256,15c-0.6,0-1,0.4-1,1v22c0,0.6,0.4,1,1,1s1-0.4,1-1V16C-255,15.4-255.4,15-256,15z"/>
	<path class="st0" d="M-248,15c-0.6,0-1,0.4-1,1v22c0,0.6,0.4,1,1,1s1-0.4,1-1V16C-247,15.4-247.4,15-248,15z"/>
	<path class="st0" d="M-240,39c0.6,0,1-0.4,1-1V16c0-0.6-0.4-1-1-1s-1,0.4-1,1v22C-241,38.6-240.6,39-240,39z"/>
	<path class="st0" d="M-232,11h-3h-8V8c0-0.6-0.4-1-1-1h-8c-0.6,0-1,0.4-1,1v3h-8h-3c-0.6,0-1,0.4-1,1s0.4,1,1,1h2v29
		c0,0.6,0.4,1,1,1h26c0.6,0,1-0.4,1-1V13h2c0.6,0,1-0.4,1-1S-231.4,11-232,11z M-251,9h6v2h-6V9z M-236,41h-24V13h8h8h8V41z"/>
</g>
<g id="Bolt_1_">
	<path class="st0" d="M17-22c-0.1,0-0.2,0-0.3-0.1c-0.4-0.2-0.7-0.6-0.6-1.1L18.8-43H14c-0.3,0-0.6-0.2-0.8-0.4
		C13-43.7,13-44,13-44.3l7-22c0.1-0.4,0.5-0.7,1-0.7h15c0.3,0,0.7,0.2,0.8,0.5c0.2,0.3,0.2,0.7,0.1,1L30.6-52H35
		c0.4,0,0.7,0.2,0.9,0.5c0.2,0.3,0.2,0.7,0,1l-18,28C17.7-22.2,17.3-22,17-22z M15.4-45H20c0.3,0,0.6,0.1,0.8,0.3
		c0.2,0.2,0.3,0.5,0.2,0.8l-2.4,16.5L33.2-50H29c-0.3,0-0.7-0.2-0.8-0.5c-0.2-0.3-0.2-0.7-0.1-1L34.4-65H21.7L15.4-45z"/>
</g>
<g id="Magnifying_Glass_1_">
	<path class="st0" d="M-30.6-58.1c-2.1-2.1-4.9-3.2-7.8-3.2c-2.9,0-5.7,1.1-7.8,3.2c-4.3,4.3-4.3,11.3,0,15.6
		c2.1,2.1,4.9,3.2,7.8,3.2c2.9,0,5.7-1.1,7.8-3.2C-26.3-46.8-26.3-53.8-30.6-58.1z M-32-43.9c-1.7,1.7-4,2.6-6.4,2.6
		c-2.4,0-4.7-0.9-6.4-2.6c-3.5-3.5-3.5-9.3,0-12.8c1.7-1.7,4-2.6,6.4-2.6c2.4,0,4.7,0.9,6.4,2.6C-28.5-53.2-28.5-47.5-32-43.9z"/>
	<path class="st0" d="M-27.4-61.3c-6-6-15.9-6-21.9,0c-4.7,4.7-5.7,11.6-3.1,17.3c0,0,0,0,0,0l-13.4,13.4c-0.2,0.2-0.3,0.4-0.3,0.7
		s0.1,0.5,0.3,0.7l6.3,6.3c0.2,0.2,0.5,0.3,0.7,0.3s0.5-0.1,0.7-0.3l13.4-13.4c0,0,0,0,0,0c2,0.9,4.1,1.4,6.4,1.4
		c4.1,0,8-1.6,11-4.5c2.9-2.9,4.5-6.8,4.5-11S-24.5-58.4-27.4-61.3z M-46.9-36.9l-12,12l-4.9-4.9l12-12l2.4,2.4c0,0,0,0,0,0
		c0,0,0,0,0,0L-46.9-36.9z M-28.8-40.8c-2.5,2.5-5.9,4-9.5,4c-3.6,0-7-1.4-9.5-4l0,0c-5.3-5.3-5.3-13.8,0-19.1
		c2.6-2.6,6.1-3.9,9.5-3.9c3.5,0,6.9,1.3,9.5,3.9c2.5,2.5,4,5.9,4,9.5S-26.3-43.3-28.8-40.8z"/>
</g>
<g id="Pencil_1_">
	<path class="st0" d="M-89.6-57.2l-8.6-8.6c-0.4-0.4-1-0.4-1.4,0l-31.8,31.8c-0.1,0.1-0.2,0.3-0.3,0.4l-2.7,10.8
		c-0.1,0.3,0,0.7,0.2,0.9c0.2,0.2,0.4,0.3,0.7,0.3c0.1,0,0.1,0,0.2,0l11.3-2.3c0.2,0,0.4-0.1,0.5-0.3l31.8-31.8
		C-89.3-56.2-89.3-56.8-89.6-57.2z M-104.7-57.7l7.1,7.1l-1.6,1.6l-7.1-7.1c0,0-0.1-0.1-0.1-0.1l1.6-1.6
		C-104.7-57.8-104.7-57.8-104.7-57.7z M-131-28.1l3.5,3.5l-4.7,0.9L-131-28.1z M-122.6-25.5l-2.8,0.6c0-0.2-0.1-0.3-0.2-0.5
		l-4.5-4.5c-0.1-0.1-0.2-0.2-0.3-0.2l0.6-2.6l22.2-22.2c0,0,0,0.1,0.1,0.1l7.1,7.1L-122.6-25.5z M-96.2-52l-7.1-7.1
		c0,0-0.1-0.1-0.1-0.1l4.5-4.5l7.2,7.2L-96.2-52z"/>
</g>
<g id="Chart_Up">
	<path class="st0" d="M-166.8-52.3l1.5-6.8c0.1-0.5-0.2-1.1-0.8-1.2l-6.8-1.5c-0.5-0.1-1.1,0.2-1.2,0.8s0.2,1.1,0.8,1.2l4.5,1
		l-29.3,18.9l1.1,1.7l29.3-18.9l-1,4.5c-0.1,0.3,0,0.5,0.1,0.7s0.4,0.4,0.6,0.4C-167.5-51.4-166.9-51.7-166.8-52.3z"/>
	<path class="st0" d="M-159-58c-0.6,0-1,0.4-1,1v29h-2v-20c0-0.6-0.4-1-1-1h-6c-0.6,0-1,0.4-1,1v20h-2v-15c0-0.6-0.4-1-1-1h-6
		c-0.6,0-1,0.4-1,1v15h-2v-10c0-0.6-0.4-1-1-1h-6c-0.6,0-1,0.4-1,1v10h-2v-5c0-0.6-0.4-1-1-1h-6c-0.6,0-1,0.4-1,1v5h-1
		c-0.6,0-1,0.4-1,1s0.4,1,1,1h2h6h4h6h4h6h4h6h5v-31C-158-57.6-158.4-58-159-58z M-198-28v-4h4v4H-198z M-188-28v-9h4v9H-188z
		 M-178-28v-14h4v14H-178z M-168-28v-19h4v19H-168z"/>
</g>
<g id="Graph_2_">
	<path class="st0" d="M-227-58c-0.6,0-1,0.4-1,1v29h-2v-27c0-0.6-0.4-1-1-1h-6c-0.6,0-1,0.4-1,1v27h-2v-18c0-0.6-0.4-1-1-1h-6
		c-0.6,0-1,0.4-1,1v18h-2v-21c0-0.6-0.4-1-1-1h-6c-0.6,0-1,0.4-1,1v21h-2v-16c0-0.6-0.4-1-1-1h-6c-0.6,0-1,0.4-1,1v16h-1
		c-0.6,0-1,0.4-1,1s0.4,1,1,1h2h6h4h6h4h6h4h6h5v-31C-226-57.6-226.4-58-227-58z M-266-28v-15h4v15H-266z M-256-28v-20h4v20H-256z
		 M-246-28v-17h4v17H-246z M-236-28v-26h4v26H-236z"/>
</g>
<g id="Mail_1_">
	<path class="st0" d="M47-127c0-0.5-0.4-1-1-1H2c-0.5,0-1,0.4-1,1V-96c0,0.5,0.4,1,1,1H46c0.5,0,1-0.4,1-1V-127z M43.7-126
		l-19.5,18.9L4.6-126H43.7z M3-97v-27.4l20.4,19.6c0.2,0.2,0.5,0.3,0.7,0.3c0.2,0,0.5-0.1,0.7-0.3L45-124.4V-97H3z"/>
</g>
<g id="Pin_1_">
	<path class="st0" d="M-44.4-89.8c-0.3,0-0.6-0.2-0.8-0.4c-0.6-0.9-14-21.2-14-29.1c0-8.2,6.6-14.8,14.8-14.8s14.8,6.6,14.8,14.8
		c0,7.8-13.4,28.2-14,29.1C-43.7-90-44.1-89.8-44.4-89.8z M-44.4-132.2c-7.1,0-12.8,5.7-12.8,12.8c0,6.2,9.8,22,12.8,26.7
		c3-4.6,12.8-20.5,12.8-26.7C-31.6-126.4-37.3-132.2-44.4-132.2z"/>
	<path class="st0" d="M-44.4-112.9c-3.6,0-6.5-2.9-6.5-6.5s2.9-6.5,6.5-6.5s6.5,2.9,6.5,6.5S-40.8-112.9-44.4-112.9z M-44.4-123.9
		c-2.5,0-4.5,2-4.5,4.5s2,4.5,4.5,4.5c2.5,0,4.5-2,4.5-4.5S-41.9-123.9-44.4-123.9z"/>
</g>
<g id="House_1_">
	<path class="st0" d="M-89.6-119.9l-22-11c-0.3-0.1-0.6-0.1-0.9,0l-22,11c-0.5,0.2-0.7,0.8-0.4,1.3c0.2,0.5,0.8,0.7,1.3,0.4l4.6-2.3
		V-92c0,0.6,0.4,1,1,1h11h10h11c0.6,0,1-0.4,1-1v-28.4l4.6,2.3c0.1,0.1,0.3,0.1,0.4,0.1c0.4,0,0.7-0.2,0.9-0.6
		C-88.9-119-89.1-119.6-89.6-119.9z M-116-93v-16h8v16H-116z M-97-93h-9v-16.9c0-0.6-0.4-1.1-1-1.1h-10c-0.6,0-1,0.5-1,1.1V-93h-9
		v-28.4l15-7.5l15,7.5V-93z"/>
</g>
<g id="Money_1_">
	<rect x="-193" y="-102" class="st0" width="5" height="2"/>
	<rect x="-197" y="-109" class="st0" width="5" height="2"/>
	<rect x="-171" y="-125" class="st0" width="5" height="2"/>
	<path class="st0" d="M-162-122v-7h-40v26h4v7h40v-26H-162z M-200-105v-22h36v5v17h-34H-200z M-160-98h-36v-5h34v-12h1v-2h-1v-3h2
		V-98z"/>
	<path class="st0" d="M-180.6-110h-2.8c-2.5,0-4.6-2.1-4.6-4.6v-2.8c0-2.5,2.1-4.6,4.6-4.6h2.8c2.5,0,4.6,2.1,4.6,4.6v2.8
		C-176-112.1-178.1-110-180.6-110z M-183.4-120c-1.4,0-2.6,1.2-2.6,2.6v2.8c0,1.4,1.2,2.6,2.6,2.6h2.8c1.4,0,2.6-1.2,2.6-2.6v-2.8
		c0-1.4-1.2-2.6-2.6-2.6H-183.4z"/>
</g>
<g id="Shopping_Cart">
	<path class="st0" d="M-257.5-91.9c-1.8,0-3.3-1.5-3.3-3.3s1.5-3.3,3.3-3.3s3.3,1.5,3.3,3.3S-255.7-91.9-257.5-91.9z M-257.5-96.5
		c-0.7,0-1.3,0.6-1.3,1.3c0,0.7,0.6,1.3,1.3,1.3c0.7,0,1.3-0.6,1.3-1.3C-256.2-95.9-256.8-96.5-257.5-96.5z"/>
	<path class="st0" d="M-236.5-91.9c-1.8,0-3.3-1.5-3.3-3.3s1.5-3.3,3.3-3.3s3.3,1.5,3.3,3.3S-234.6-91.9-236.5-91.9z M-236.5-96.5
		c-0.7,0-1.3,0.6-1.3,1.3c0,0.7,0.6,1.3,1.3,1.3s1.3-0.6,1.3-1.3C-235.2-95.9-235.7-96.5-236.5-96.5z"/>
	<path class="st0" d="M-226-130h-7c-0.6,0-1,0.4-1,1v4h-35c-0.3,0-0.6,0.1-0.8,0.4s-0.3,0.5-0.2,0.8l3.8,19c0.1,0.5,0.5,0.8,1,0.8
		h31.2v3h-28c-0.6,0-1,0.4-1,1s0.4,1,1,1h29c0.6,0,1-0.4,1-1v-28h6c0.6,0,1-0.4,1-1S-225.4-130-226-130z M-264.4-106l-3.4-17h33.8
		v17H-264.4z"/>
</g>
</svg>
