<?xml version="1.0" encoding="utf-8"?>
<!-- Generator: Adobe Illustrator 21.0.2, SVG Export Plug-In . SVG Version: 6.00 Build 0)  -->
<svg version="1.1" xmlns="http://www.w3.org/2000/svg" xmlns:xlink="http://www.w3.org/1999/xlink" x="0px" y="0px"
	 viewBox="0 0 48 48" style="enable-background:new 0 0 48 48;" xml:space="preserve">
<style type="text/css">
	.st0{fill:#6B6B6B;}
	.st1{fill:none;stroke:#6B6B6B;}
	.st2{fill:none;stroke:#6B6B6B;stroke-width:3;stroke-linecap:round;stroke-linejoin:round;stroke-miterlimit:10;}
	.st3{fill:none;stroke:#6B6B6B;stroke-width:3;stroke-linecap:round;stroke-linejoin:round;}
	.st4{fill:none;stroke:#6B6B6B;stroke-linecap:round;stroke-linejoin:round;stroke-miterlimit:10;}
</style>
<g id="Monitor_1_">
	<path class="st0" d="M41.4-55H6.6C4.1-55,2-52.9,2-50.4v21.8C2-26.1,4.1-24,6.6-24H17v4h-1.8c-0.6,0-1,0.4-1,1s0.4,1,1,1H33
		c0.6,0,1-0.4,1-1s-0.4-1-1-1h-2v-4h10.4c2.5,0,4.6-2.1,4.6-4.6v-21.8C46-52.9,43.9-55,41.4-55z M29-24v4H19v-4H29z M4-50.4
		C4-51.8,5.2-53,6.6-53h34.8c1.4,0,2.6,1.2,2.6,2.6V-31c0,0-0.1,0-0.1,0H4V-50.4z M41.4-26H6.6C5.2-26,4-27.2,4-28.6V-29h39.9
		c0,0,0.1,0,0.1,0v0.4C44-27.2,42.8-26,41.4-26z"/>
	<g>
		<path class="st1" d="M-180.4,3.6c-0.1,0.1-6.1,6.1-15.6,3.1l-0.6-0.2l-0.1,0.6c-0.1,0.6-2.2,15.9-1,21.8l0,0.1l0,0.1
			c0.1,0.1,6.1,10.8,17.4,15.7l0.2,0.1l0.2-0.1c11.3-4.9,17.3-15.6,17.4-15.7l0-0.1l0-0.1c0.5-2.5,0.5-6.9-0.1-13.2
			c-0.2-2.4-0.5-4.6-0.6-6.1l-0.2-1.9c-0.1-1-0.1-1-0.4-1.1l-0.2-0.1l-0.2,0.1c-9.6,3-15.6-3-15.6-3.1l-0.4-0.4L-180.4,3.6z"/>
	</g>
	<g>
		<path class="st0" d="M-180,5.3c1.5,1.2,5.2,3.7,10.6,3.7c1.5,0,3.1-0.2,4.6-0.6c0.5,3.7,1.8,15.1,0.9,20
			c-0.7,1.2-6.3,10.3-16.2,14.7c-9.9-4.4-15.5-13.5-16.2-14.7c-0.9-4.9,0.4-16.3,0.9-20c1.6,0.4,3.1,0.6,4.6,0.6
			C-185.2,9-181.5,6.5-180,5.3 M-180,3.9c0,0-3.9,4.1-10.6,4.1c-1.7,0-3.5-0.3-5.5-0.9c0,0-2.2,15.7-1,21.6c0,0,5.9,10.6,17.2,15.5
			c11.3-4.8,17.2-15.5,17.2-15.5c1.2-5.9-1-21.6-1-21.6c-2,0.6-3.8,0.9-5.5,0.9C-176.1,8-180,3.9-180,3.9L-180,3.9z"/>
	</g>
	<g>
		<path class="st0" d="M-180,10.5c1.6,1.1,4.5,2.7,8.5,2.7c0.9,0,1.8-0.1,2.7-0.2c0.5,4.1,1.1,11,0.6,14.1
			c-0.8,1.4-4.9,7.6-11.8,10.9c-6.9-3.3-11-9.5-11.8-10.9c-0.5-3.2,0.1-10,0.6-14.1c0.9,0.2,1.8,0.2,2.7,0.2
			C-184.6,13.2-181.6,11.7-180,10.5 M-180,8c0,0-3.2,3.3-8.5,3.3c-1.3,0-2.8-0.2-4.4-0.7c0,0-1.8,12.6-0.8,17.3
			c0,0,4.7,8.5,13.7,12.4c9-3.9,13.7-12.4,13.7-12.4c0.9-4.7-0.8-17.3-0.8-17.3c-1.6,0.5-3.1,0.7-4.4,0.7C-176.9,11.2-180,8-180,8
			L-180,8z"/>
	</g>
	<polyline class="st2" points="-261.7,26.4 -253.7,32.1 -234.4,13.7 	"/>
	<circle class="st0" cx="-112.5" cy="10.5" r="7"/>
	<path class="st0" d="M-112.5,19.5L-112.5,19.5c-3.9,0-7,3.1-7,7v3c0,3.8,3.1,7,7,7h0c3.8,0,7-3.1,7-7v-3
		C-105.5,22.6-108.6,19.5-112.5,19.5z"/>
	<circle class="st0" cx="-127.5" cy="16.5" r="5.5"/>
	<path class="st0" d="M-127.5,23.6L-127.5,23.6c-3,0-5.5,2.5-5.5,5.5v2.4c0,3,2.5,5.5,5.5,5.5h0c3,0,5.5-2.5,5.5-5.5v-2.4
		C-122,26.1-124.5,23.6-127.5,23.6z"/>
	<circle class="st0" cx="-97.5" cy="16.5" r="5.5"/>
	<path class="st0" d="M-97.5,23.6L-97.5,23.6c-3,0-5.5,2.5-5.5,5.5v2.4c0,3,2.5,5.5,5.5,5.5h0c3,0,5.5-2.5,5.5-5.5v-2.4
		C-92,26.1-94.5,23.6-97.5,23.6z"/>
	<g>
		<g>
			<path class="st3" d="M-30.6,4.4c0,0,0,4.2,0,5c-0.8,0-3.4,0-4.2,0c0-0.9,0-5,0-5h-6.3c0,0,0,4.2,0,5c-0.8,0-3.4,0-4.2,0
				c0-0.9,0-5,0-5h-6.3c0,0,0,4.2,0,5c-0.8,0-3.4,0-4.2,0c0-0.9,0-5,0-5h-6.3l0,0.5c-0.1,1-1.9,24.5,4.3,31.7
				c6.7,7.8,14.2,8.9,14.6,8.9l0.1,0l0.1,0c0.3,0,7.9-1.1,14.6-8.9c6.2-7.2,4.4-30.7,4.3-31.6l0-0.5H-30.6z"/>
		</g>
	</g>
	<g>
		<path class="st3" d="M-53.3,33.6c4.7,5.5,10.1,6.2,10.1,6.2s5.4-0.7,10.1-6.2c2.8-3.2,3.2-11.5,3.2-17h-26.5
			C-56.6,22.1-56.1,30.3-53.3,33.6z"/>
	</g>
	<polygon class="st2" points="23.2,10 4,17.9 23.2,25.5 42.6,17.7 	"/>
	<path class="st2" d="M11.6,22.4v9.1c0,0,4.3,3.5,11.3,3.4c7-0.1,11.5-3,11.5-3v-9.5"/>
	<line class="st4" x1="41" y1="17.9" x2="41" y2="23.1"/>
	<circle class="st0" cx="41" cy="23" r="1"/>
	<polygon class="st0" points="41,23 39.2,26 42.7,26 	"/>
</g>
<g id="Computer_1_">
	<path class="st0" d="M-22.1-23.4l-3.9-8.8V-54c0-0.6-0.4-1-1-1h-34c-0.6,0-1,0.4-1,1v21.8l-3.9,8.8c-0.1,0.3-0.1,0.7,0.1,1
		S-65.3-22-65-22h42c0.3,0,0.7-0.2,0.8-0.5S-21.9-23.1-22.1-23.4z M-60-53h32v20h-32V-53z M-63.5-24l3.1-7h32.7l3.1,7H-63.5z"/>
	<path class="st0" d="M-31-51h-26c-0.6,0-1,0.4-1,1v14c0,0.6,0.4,1,1,1h26c0.6,0,1-0.4,1-1v-14C-30-50.6-30.4-51-31-51z M-32-37h-24
		v-12h24V-37z"/>
</g>
<g id="Wifi_1_">
	<path class="st0" d="M-111.7-21.5c-2.4,0-4.3-1.9-4.3-4.3s1.9-4.3,4.3-4.3s4.3,1.9,4.3,4.3S-109.3-21.5-111.7-21.5z M-111.7-27.9
		c-1.1,0-2,0.9-2,2c0,1.1,0.9,2,2,2c1.1,0,2-0.9,2-2C-109.6-27-110.5-27.9-111.7-27.9z"/>
	<g>
		<path class="st0" d="M-111.7-21"/>
		<path class="st0" d="M-92.4-39.1c-0.3,0-0.7-0.2-0.9-0.5c-4.4-5.8-11-9.2-18.3-9.2s-13.9,3.3-18.3,9.2c-0.4,0.5-1.1,0.6-1.6,0.2
			c-0.5-0.4-0.6-1.1-0.2-1.6c4.8-6.4,12.1-10.1,20.1-10.1c8,0,15.3,3.7,20.1,10.1c0.4,0.5,0.3,1.2-0.2,1.6
			C-92-39.2-92.2-39.1-92.4-39.1z"/>
	</g>
	<g>
		<path class="st0" d="M-111.7-21"/>
		<path class="st0" d="M-96.6-34.9c-0.4,0-0.7-0.2-0.9-0.5c-3.2-4.7-8.5-7.5-14.1-7.5s-10.9,2.8-14.1,7.5c-0.3,0.5-1,0.6-1.6,0.3
			c-0.5-0.3-0.6-1-0.3-1.6c3.6-5.3,9.6-8.5,16-8.5c6.4,0,12.4,3.2,16,8.5c0.3,0.5,0.2,1.2-0.3,1.6C-96.2-35-96.4-34.9-96.6-34.9z"/>
	</g>
	<g>
		<path class="st0" d="M-100.3-31.3c-0.4,0-0.8-0.2-1-0.6c-2.2-3.7-6.1-6-10.4-6c-4.3,0-8.3,2.3-10.4,6c-0.3,0.5-1,0.7-1.5,0.4
			c-0.5-0.3-0.7-1-0.4-1.5c2.6-4.4,7.3-7.2,12.4-7.2c5.1,0,9.8,2.7,12.4,7.2c0.3,0.5,0.1,1.2-0.4,1.5
			C-99.9-31.3-100.1-31.3-100.3-31.3z"/>
		<path class="st0" d="M-123.1-32.4"/>
		<path class="st0" d="M-100.3-32.4"/>
	</g>
	<g>
		<path class="st0" d="M-111.7-21"/>
		<path class="st0" d="M-104-27.5c-0.5,0-0.9-0.3-1.1-0.7c-1-2.8-3.7-4.6-6.6-4.6c-2.9,0-5.6,1.9-6.6,4.6c-0.2,0.6-0.9,0.9-1.4,0.7
			c-0.6-0.2-0.9-0.9-0.7-1.4c1.3-3.6,4.8-6.1,8.7-6.1c3.9,0,7.4,2.4,8.7,6.1c0.2,0.6-0.1,1.2-0.7,1.4
			C-103.7-27.6-103.9-27.5-104-27.5z"/>
		<path class="st0" d="M-119.3-28.7"/>
		<path class="st0" d="M-111.7-21"/>
		<path class="st0" d="M-104-28.7"/>
	</g>
</g>
<g id="Credit_Card_1_">
	<path class="st0" d="M-164.6-51h-27.8c-2.4,0-4.3,1.8-4.5,4.1c-2.3,0.3-4.1,2.2-4.1,4.5v16.8c0,2.5,2.1,4.6,4.6,4.6h27.8
		c2.4,0,4.3-1.8,4.5-4.1c2.3-0.3,4.1-2.2,4.1-4.5v-16.8C-160-48.9-162.1-51-164.6-51z M-166-25.6c0,1.4-1.2,2.6-2.6,2.6h-27.8
		c-1.4,0-2.6-1.2-2.6-2.6v-16.8c0-1.4,1.2-2.6,2.6-2.6h27.8c1.4,0,2.6,1.2,2.6,2.6V-25.6z M-162-29.6c0,1.2-0.9,2.3-2,2.5v-15.3
		c0-2.5-2.1-4.6-4.6-4.6h-26.3c0.3-1.1,1.3-2,2.5-2h27.8c1.4,0,2.6,1.2,2.6,2.6V-29.6z"/>
	<path class="st0" d="M-176-41"/>
	<path class="st0" d="M-196-41"/>
	<rect x="-196" y="-31" class="st0" width="7" height="2"/>
	<rect x="-196" y="-27" class="st0" width="10" height="2"/>
	<path class="st0" d="M-171-31c-0.8,0-1.5,0.3-2,0.8c-0.5-0.5-1.2-0.8-2-0.8c-1.7,0-3,1.3-3,3s1.3,3,3,3c0.8,0,1.5-0.3,2-0.8
		c0.5,0.5,1.2,0.8,2,0.8c1.7,0,3-1.3,3-3S-169.3-31-171-31z M-175-27c-0.6,0-1-0.4-1-1s0.4-1,1-1s1,0.4,1,1S-174.4-27-175-27z
		 M-171-27c-0.6,0-1-0.4-1-1s0.4-1,1-1s1,0.4,1,1S-170.4-27-171-27z"/>
	<path class="st0" d="M-176-38.9"/>
	<path class="st0" d="M-196-38.9"/>
	<rect x="-196" y="-42" class="st0" width="20" height="3"/>
</g>
<g id="Lock_1_">
	<path class="st0" d="M-237-41.7V-43c0-6.1-4.9-11-11-11s-11,4.9-11,11v1.1c-2.3,0.3-4,2.2-4,4.5v15.8c0,2.5,2.1,4.6,4.6,4.6h19.8
		c2.5,0,4.6-2.1,4.6-4.6v-15.8C-234-39.4-235.3-41-237-41.7z M-257-43c0-5,4-9,9-9s9,4,9,9v1h-4v-1c0-2.8-2.2-5-5-5s-5,2.2-5,5v1h-4
		V-43z M-245-42h-6v-1c0-1.7,1.3-3,3-3s3,1.3,3,3V-42z M-236-21.6c0,1.4-1.2,2.6-2.6,2.6h-19.8c-1.4,0-2.6-1.2-2.6-2.6v-15.8
		c0-1.4,1.2-2.6,2.6-2.6h5.4h10h4.4c1.4,0,2.6,1.2,2.6,2.6V-21.6z"/>
</g>
<g id="Documents_1_">
	<path class="st0" d="M41.6-116.8l-12-10c-0.2-0.1-0.4-0.2-0.6-0.2H11c-0.6,0-1,0.4-1,1v3H7c-0.6,0-1,0.4-1,1v39c0,0.6,0.4,1,1,1h30
		c0.6,0,1-0.4,1-1v-3h3c0.6,0,1-0.4,1-1v-29C42-116.3,41.9-116.6,41.6-116.8z M39.4-116H29v-8.7L39.4-116z M36-84H8v-37h2v34
		c0,0.6,0.4,1,1,1h25V-84z M12-88v-37h15v10c0,0.6,0.4,1,1,1h12v26H12z"/>
</g>
<g id="Phone_1_">
	<path class="st0" d="M-34-83h-22c-0.6,0-1-0.4-1-1v-40c0-0.6,0.4-1,1-1h22c0.6,0,1,0.4,1,1v40C-33-83.4-33.4-83-34-83z M-55-85h20
		v-38h-20V-85z"/>
	<path class="st0" d="M-38-92h-14c-0.6,0-1-0.4-1-1v-25c0-0.6,0.4-1,1-1h14c0.6,0,1,0.4,1,1v25C-37-92.4-37.4-92-38-92z M-51-94h12
		v-23h-12V-94z"/>
	<path class="st0" d="M-42.5-120h-5c-0.6,0-1-0.4-1-1s0.4-1,1-1h5c0.6,0,1,0.4,1,1S-41.9-120-42.5-120z"/>
	<path class="st0" d="M-45-86c-1.4,0-2.5-1.1-2.5-2.5S-46.4-91-45-91s2.5,1.1,2.5,2.5S-43.6-86-45-86z M-45-89
		c-0.3,0-0.5,0.2-0.5,0.5S-45.3-88-45-88s0.5-0.2,0.5-0.5S-44.7-89-45-89z"/>
</g>
<g id="Download_1_">
	<path class="st0" d="M-101-96h-7v-2h5v-1l0.9-0.1c3.4-0.4,7.1-3.5,7.1-7.3c0-4.1-3.1-7.3-7-7.3c-1,0-1.8,0.2-2.8,0.6l-1.1,0.5
		l-0.2-1.2c-0.8-4.2-4.5-7.2-8.7-7.2c-4.8,0-8.6,3.7-8.9,8.5l0,0.8l-0.8,0.1c-3,0.4-5.4,3.4-5.4,6.7c0,3.6,3,6.8,6.3,6.8h5.7v2h-5.7
		c-4.4,0-8.3-4.1-8.3-8.8c0-4,2.8-7.6,6.3-8.6c0.6-5.5,5.2-9.6,10.8-9.6c4.8,0,8.9,3.2,10.3,7.7c0.8-0.2,1.6-0.4,2.5-0.4
		c5.1,0,9,4.1,9,9.3c0,4.7-4,8.2-7.9,9.1V-96z"/>
	<path class="st0" d="M-107.4-92.7c-0.4-0.4-1-0.4-1.4,0l-3.2,3.2V-104h-2v14.6l-3.3-3.2c-0.4-0.4-1-0.4-1.4,0s-0.4,1,0,1.4l4.9,5
		c0.2,0.2,0.4,0.3,0.7,0.3s0.5-0.1,0.7-0.3l4.9-5C-107-91.6-107-92.3-107.4-92.7z"/>
</g>
<g id="Upload_1_">
	<path class="st0" d="M-169-96h-7v-2h5v-1l0.9-0.1c3.4-0.4,7.1-3.5,7.1-7.3c0-4.1-3.1-7.3-7-7.3c-1,0-1.8,0.2-2.8,0.6l-1.1,0.5
		l-0.2-1.2c-0.8-4.2-4.5-7.2-8.7-7.2c-4.8,0-8.6,3.7-8.9,8.5l0,0.8l-0.8,0.1c-3,0.4-5.4,3.4-5.4,6.7c0,3.6,3,6.8,6.3,6.8h5.7v2h-5.7
		c-4.4,0-8.3-4.1-8.3-8.8c0-4,2.8-7.6,6.3-8.6c0.6-5.5,5.2-9.6,10.8-9.6c4.8,0,8.9,3.2,10.3,7.7c0.8-0.2,1.6-0.4,2.5-0.4
		c5.1,0,9,4.1,9,9.3c0,4.7-4,8.2-7.9,9.1V-96z"/>
	<path class="st0" d="M-175.4-103.8l-4.9-5c-0.4-0.4-1-0.4-1.4,0l-4.9,5c-0.4,0.4-0.4,1,0,1.4s1,0.4,1.4,0l3.3-3.2V-91h2v-14.6
		l3.2,3.2c0.2,0.2,0.4,0.3,0.7,0.3s0.5-0.1,0.7-0.3C-175-102.7-175-103.4-175.4-103.8z"/>
</g>
<g id="Cloud_1_">
	<path class="st0" d="M-237-96h-22.7c-4.4,0-8.3-4.1-8.3-8.8c0-4,2.8-7.6,6.3-8.6c0.6-5.5,5.2-9.6,10.8-9.6c4.8,0,8.9,3.2,10.3,7.7
		c0.8-0.2,1.6-0.4,2.5-0.4c5.1,0,9,4.1,9,9.3c0,4.7-4,8.2-7.9,9.1V-96z M-250.9-121c-4.8,0-8.6,3.7-8.9,8.5l0,0.8l-0.8,0.1
		c-3,0.4-5.4,3.4-5.4,6.7c0,3.6,3,6.8,6.3,6.8h20.7v-1l0.9-0.1c3.4-0.4,7.1-3.5,7.1-7.3c0-4.1-3.1-7.3-7-7.3c-1,0-1.8,0.2-2.8,0.6
		l-1.1,0.5l-0.2-1.2C-243.1-118-246.7-121-250.9-121z"/>
</g>
<g id="Award_1_">
	<path class="st0" d="M24.1-167.4l-2.9-1.7l-3.4,0l-1.7-2.9l-2.9-1.7l0-3.4l-1.7-2.9l1.7-2.9l0-3.4l2.9-1.7l1.7-2.9l3.4,0l2.9-1.7
		l2.9,1.7l3.4,0l1.7,2.9l2.9,1.7l0,3.4l1.7,2.9l-1.7,2.9l0,3.4l-2.9,1.7l-1.7,2.9l-3.4,0L24.1-167.4z M21.7-171.1l2.4,1.4l2.4-1.4
		l2.7,0l1.4-2.4l2.4-1.4l0-2.7l1.4-2.4l-1.4-2.4l0-2.7l-2.4-1.4l-1.4-2.4l-2.7,0l-2.4-1.4l-2.4,1.4l-2.7,0l-1.4,2.4l-2.4,1.4l0,2.7
		l-1.4,2.4l1.4,2.4l0,2.7l2.4,1.4l1.4,2.4L21.7-171.1z"/>
	<path class="st0" d="M24-172c-1,0-2-0.2-3-0.6c-2-0.8-3.5-2.3-4.4-4.3c-0.8-2-0.9-4.1-0.1-6.1s2.3-3.5,4.3-4.4
		c2-0.8,4.1-0.9,6.1-0.1c2,0.8,3.5,2.3,4.4,4.3c0.8,2,0.9,4.1,0.1,6.1s-2.3,3.5-4.3,4.4C26.1-172.2,25.1-172,24-172z M24-186
		c-0.8,0-1.6,0.2-2.4,0.5c-1.5,0.6-2.6,1.8-3.2,3.3c-0.6,1.5-0.6,3.1,0.1,4.6c0.6,1.5,1.8,2.6,3.3,3.2c1.5,0.6,3.1,0.6,4.6-0.1
		c1.5-0.6,2.6-1.8,3.2-3.3v0c0.6-1.5,0.6-3.1-0.1-4.6c-0.6-1.5-1.8-2.6-3.3-3.2C25.5-185.9,24.8-186,24-186z"/>
	<path class="st0" d="M17.7-150l-4.6-3.6l-4.9,0.8l5.3-16.4l9.4,3L17.7-150z M13.7-155.8l3,2.4l3.7-11.5l-5.6-1.8l-3.7,11.4
		L13.7-155.8z"/>
	<path class="st0" d="M30-150l-5.2-16.2l9.4-3l5.3,16.4l-4.9-0.8L30-150z M27.3-165l3.7,11.5l3-2.4l2.6,0.4l-3.7-11.4L27.3-165z"/>
</g>
<g id="Clipboard_1_">
	<path class="st0" d="M-37-191v-2h-15v2h-8v41h31v-41H-37z M-50-191h11v1h-1v2h-9v-2h-1V-191z M-31-152h-27v-37h6v1h1v2h13v-2h1v-1
		h6V-152z"/>
	<rect x="-56" y="-182" class="st0" width="15" height="2"/>
	<rect x="-56" y="-168" class="st0" width="13" height="2"/>
	<rect x="-56" y="-175" class="st0" width="17" height="2"/>
	<rect x="-56" y="-161" class="st0" width="15" height="2"/>
</g>
<g id="Stopwatch_1_">
	<path class="st0" d="M-109-189.7v-2.3h1c0.6,0,1-0.4,1-1s-0.4-1-1-1h-2h-4h-2c-0.6,0-1,0.4-1,1s0.4,1,1,1h1v2.3
		c-9.6,1.5-17,9.7-17,19.7c0,11,9,20,20,20c11,0,20-9,20-20C-92-180-99.4-188.3-109-189.7z M-113-190v-2h2v2H-113z M-112-152
		c-9.9,0-18-8.1-18-18c0-9.9,8.1-18,18-18c9.9,0,18,8.1,18,18C-94-160.1-102.1-152-112-152z"/>
	<path class="st0" d="M-112-186c-8.8,0-16,7.2-16,16s7.2,16,16,16s16-7.2,16-16S-103.2-186-112-186z M-112-156c-7.7,0-14-6.3-14-14
		s6.3-14,14-14s14,6.3,14,14S-104.3-156-112-156z"/>
	<path class="st0" d="M-104.7-178.7l-6,6c-0.4-0.2-0.8-0.3-1.3-0.3c-1.3,0-2.4,0.8-2.8,2h-7.2c-0.6,0-1,0.4-1,1s0.4,1,1,1h7.2
		c0.4,1.2,1.5,2,2.8,2c1.7,0,3-1.3,3-3c0-0.5-0.1-0.9-0.3-1.3l6-6c0.4-0.4,0.4-1,0-1.4S-104.3-179.1-104.7-178.7z M-112-169
		c-0.6,0-1-0.4-1-1s0.4-1,1-1c0,0.3,0.1,0.5,0.3,0.7s0.5,0.3,0.7,0.3C-111-169.4-111.4-169-112-169z"/>
</g>
<g id="Bulb_1_">
	<g>
		<path class="st0" d="M-183.8-159.1h-1v-2.7c-1-0.8-1.7-2-1.7-3.3c0.3-2.8-2.1-6.8-3.1-8.4c-0.2-0.3-0.4-0.6-0.6-0.9l-0.5-0.7
			l0.1-0.1c-1-1.9-1.5-4-1.5-6.1c0-7.4,6-13.4,13.4-13.4s13.4,6,13.4,13.4c0,2.1-0.5,4.2-1.5,6.1l0,0.1l-0.5,0.7
			c-0.2,0.3-0.4,0.6-0.6,0.9c-1,1.5-3.3,5.5-3,8.1c0,1.2,0,3-1,4v2.1h-1c-1.1,0-3.5,0-5.9,0C-180.9-159.1-182.9-159.1-183.8-159.1z
			 M-188.4-175.5L-188.4-175.5c0.2,0.3,0.4,0.6,0.6,0.8c1.4,2.2,3.7,6.4,3.4,9.6c0,0.7,0.4,1.4,1.1,1.8l0.5,0.3v1.9c1,0,2.5,0,4,0
			c1.8,0,3.6,0,4.9,0v-1.2l0.5-0.3c0.5-0.3,0.5-1.9,0.5-2.5c-0.3-3.1,2-7.2,3.4-9.4c0.2-0.3,0.4-0.6,0.6-0.9l0.1-0.1
			c1-1.7,1.6-3.7,1.6-5.7c0-6.3-5.1-11.4-11.4-11.4s-11.4,5.1-11.4,11.4C-190-179.3-189.5-177.3-188.4-175.5L-188.4-175.5z"/>
	</g>
	<rect x="-185" y="-158" class="st0" width="13" height="2"/>
	<rect x="-185" y="-155.1" class="st0" width="13" height="2"/>
	<rect x="-182" y="-152" class="st0" width="7" height="2"/>
</g>
<g id="Trash_1_">
	<path class="st0" d="M-256-181c-0.6,0-1,0.4-1,1v22c0,0.6,0.4,1,1,1s1-0.4,1-1v-22C-255-180.6-255.4-181-256-181z"/>
	<path class="st0" d="M-248-181c-0.6,0-1,0.4-1,1v22c0,0.6,0.4,1,1,1s1-0.4,1-1v-22C-247-180.6-247.4-181-248-181z"/>
	<path class="st0" d="M-240-157c0.6,0,1-0.4,1-1v-22c0-0.6-0.4-1-1-1s-1,0.4-1,1v22C-241-157.4-240.6-157-240-157z"/>
	<path class="st0" d="M-232-185h-3h-8v-3c0-0.6-0.4-1-1-1h-8c-0.6,0-1,0.4-1,1v3h-8h-3c-0.6,0-1,0.4-1,1s0.4,1,1,1h2v29
		c0,0.6,0.4,1,1,1h26c0.6,0,1-0.4,1-1v-29h2c0.6,0,1-0.4,1-1S-231.4-185-232-185z M-251-187h6v2h-6V-187z M-236-155h-24v-28h8h8h8
		V-155z"/>
</g>
<g id="Bolt_1_">
	<path class="st0" d="M17-218c-0.1,0-0.2,0-0.3-0.1c-0.4-0.2-0.7-0.6-0.6-1.1l2.8-19.9H14c-0.3,0-0.6-0.2-0.8-0.4
		c-0.2-0.3-0.2-0.6-0.1-0.9l7-22c0.1-0.4,0.5-0.7,1-0.7h15c0.3,0,0.7,0.2,0.8,0.5c0.2,0.3,0.2,0.7,0.1,1L30.6-248H35
		c0.4,0,0.7,0.2,0.9,0.5c0.2,0.3,0.2,0.7,0,1l-18,28C17.7-218.2,17.3-218,17-218z M15.4-241H20c0.3,0,0.6,0.1,0.8,0.3
		c0.2,0.2,0.3,0.5,0.2,0.8l-2.4,16.5L33.2-246H29c-0.3,0-0.7-0.2-0.8-0.5c-0.2-0.3-0.2-0.7-0.1-1l6.3-13.6H21.7L15.4-241z"/>
</g>
<g id="Magnifying_Glass_1_">
	<path class="st0" d="M-30.6-254.1c-2.1-2.1-4.9-3.2-7.8-3.2c-2.9,0-5.7,1.1-7.8,3.2c-4.3,4.3-4.3,11.3,0,15.6
		c2.1,2.1,4.9,3.2,7.8,3.2c2.9,0,5.7-1.1,7.8-3.2C-26.3-242.8-26.3-249.8-30.6-254.1z M-32-239.9c-1.7,1.7-4,2.6-6.4,2.6
		c-2.4,0-4.7-0.9-6.4-2.6c-3.5-3.5-3.5-9.3,0-12.8c1.7-1.7,4-2.6,6.4-2.6c2.4,0,4.7,0.9,6.4,2.6C-28.5-249.2-28.5-243.5-32-239.9z"
		/>
	<path class="st0" d="M-27.4-257.3c-6-6-15.9-6-21.9,0c-4.7,4.7-5.7,11.6-3.1,17.3c0,0,0,0,0,0l-13.4,13.4c-0.2,0.2-0.3,0.4-0.3,0.7
		s0.1,0.5,0.3,0.7l6.3,6.3c0.2,0.2,0.5,0.3,0.7,0.3s0.5-0.1,0.7-0.3l13.4-13.4c0,0,0,0,0,0c2,0.9,4.1,1.4,6.4,1.4
		c4.1,0,8-1.6,11-4.5c2.9-2.9,4.5-6.8,4.5-11S-24.5-254.4-27.4-257.3z M-46.9-232.9l-12,12l-4.9-4.9l12-12l2.4,2.4c0,0,0,0,0,0
		c0,0,0,0,0,0L-46.9-232.9z M-28.8-236.8c-2.5,2.5-5.9,4-9.5,4c-3.6,0-7-1.4-9.5-4l0,0c-5.3-5.3-5.3-13.8,0-19.1
		c2.6-2.6,6.1-3.9,9.5-3.9c3.5,0,6.9,1.3,9.5,3.9c2.5,2.5,4,5.9,4,9.5S-26.3-239.3-28.8-236.8z"/>
</g>
<g id="Pencil_1_">
	<path class="st0" d="M-89.6-253.2l-8.6-8.6c-0.4-0.4-1-0.4-1.4,0l-31.8,31.8c-0.1,0.1-0.2,0.3-0.3,0.4l-2.7,10.8
		c-0.1,0.3,0,0.7,0.2,0.9c0.2,0.2,0.4,0.3,0.7,0.3c0.1,0,0.1,0,0.2,0l11.3-2.3c0.2,0,0.4-0.1,0.5-0.3l31.8-31.8
		C-89.3-252.2-89.3-252.8-89.6-253.2z M-104.7-253.7l7.1,7.1l-1.6,1.6l-7.1-7.1c0,0-0.1-0.1-0.1-0.1l1.6-1.6
		C-104.7-253.8-104.7-253.8-104.7-253.7z M-131-224.1l3.5,3.5l-4.7,0.9L-131-224.1z M-122.6-221.5l-2.8,0.6c0-0.2-0.1-0.3-0.2-0.5
		l-4.5-4.5c-0.1-0.1-0.2-0.2-0.3-0.2l0.6-2.6l22.2-22.2c0,0,0,0.1,0.1,0.1l7.1,7.1L-122.6-221.5z M-96.2-248l-7.1-7.1
		c0,0-0.1-0.1-0.1-0.1l4.5-4.5l7.2,7.2L-96.2-248z"/>
</g>
<g id="Chart_Up">
	<path class="st0" d="M-166.8-248.3l1.5-6.8c0.1-0.5-0.2-1.1-0.8-1.2l-6.8-1.5c-0.5-0.1-1.1,0.2-1.2,0.8c-0.1,0.5,0.2,1.1,0.8,1.2
		l4.5,1l-29.3,18.9l1.1,1.7l29.3-18.9l-1,4.5c-0.1,0.3,0,0.5,0.1,0.7c0.1,0.2,0.4,0.4,0.6,0.4C-167.5-247.4-166.9-247.7-166.8-248.3
		z"/>
	<path class="st0" d="M-159-254c-0.6,0-1,0.4-1,1v29h-2v-20c0-0.6-0.4-1-1-1h-6c-0.6,0-1,0.4-1,1v20h-2v-15c0-0.6-0.4-1-1-1h-6
		c-0.6,0-1,0.4-1,1v15h-2v-10c0-0.6-0.4-1-1-1h-6c-0.6,0-1,0.4-1,1v10h-2v-5c0-0.6-0.4-1-1-1h-6c-0.6,0-1,0.4-1,1v5h-1
		c-0.6,0-1,0.4-1,1s0.4,1,1,1h2h6h4h6h4h6h4h6h5v-31C-158-253.6-158.4-254-159-254z M-198-224v-4h4v4H-198z M-188-224v-9h4v9H-188z
		 M-178-224v-14h4v14H-178z M-168-224v-19h4v19H-168z"/>
</g>
<g id="Graph_2_">
	<path class="st0" d="M-227-254c-0.6,0-1,0.4-1,1v29h-2v-27c0-0.6-0.4-1-1-1h-6c-0.6,0-1,0.4-1,1v27h-2v-18c0-0.6-0.4-1-1-1h-6
		c-0.6,0-1,0.4-1,1v18h-2v-21c0-0.6-0.4-1-1-1h-6c-0.6,0-1,0.4-1,1v21h-2v-16c0-0.6-0.4-1-1-1h-6c-0.6,0-1,0.4-1,1v16h-1
		c-0.6,0-1,0.4-1,1s0.4,1,1,1h2h6h4h6h4h6h4h6h5v-31C-226-253.6-226.4-254-227-254z M-266-224v-15h4v15H-266z M-256-224v-20h4v20
		H-256z M-246-224v-17h4v17H-246z M-236-224v-26h4v26H-236z"/>
</g>
<g id="Mail_1_">
	<path class="st0" d="M47-323c0-0.5-0.4-1-1-1H2c-0.5,0-1,0.4-1,1v31.1c0,0.5,0.4,1,1,1H46c0.5,0,1-0.4,1-1V-323z M43.7-322
		l-19.5,18.9L4.6-322H43.7z M3-293v-27.4l20.4,19.6c0.2,0.2,0.5,0.3,0.7,0.3c0.2,0,0.5-0.1,0.7-0.3L45-320.4v27.4H3z"/>
</g>
<g id="Pin_1_">
	<path class="st0" d="M-44.4-285.8c-0.3,0-0.6-0.2-0.8-0.4c-0.6-0.9-14-21.2-14-29.1c0-8.2,6.6-14.8,14.8-14.8s14.8,6.6,14.8,14.8
		c0,7.8-13.4,28.2-14,29.1C-43.7-286-44.1-285.8-44.4-285.8z M-44.4-328.2c-7.1,0-12.8,5.7-12.8,12.8c0,6.2,9.8,22,12.8,26.7
		c3-4.6,12.8-20.5,12.8-26.7C-31.6-322.4-37.3-328.2-44.4-328.2z"/>
	<path class="st0" d="M-44.4-308.9c-3.6,0-6.5-2.9-6.5-6.5s2.9-6.5,6.5-6.5s6.5,2.9,6.5,6.5S-40.8-308.9-44.4-308.9z M-44.4-319.9
		c-2.5,0-4.5,2-4.5,4.5s2,4.5,4.5,4.5c2.5,0,4.5-2,4.5-4.5S-41.9-319.9-44.4-319.9z"/>
</g>
<g id="House_1_">
	<path class="st0" d="M-89.6-315.9l-22-11c-0.3-0.1-0.6-0.1-0.9,0l-22,11c-0.5,0.2-0.7,0.8-0.4,1.3c0.2,0.5,0.8,0.7,1.3,0.4l4.6-2.3
		v28.4c0,0.6,0.4,1,1,1h11h10h11c0.6,0,1-0.4,1-1v-28.4l4.6,2.3c0.1,0.1,0.3,0.1,0.4,0.1c0.4,0,0.7-0.2,0.9-0.6
		C-88.9-315-89.1-315.6-89.6-315.9z M-116-289v-16h8v16H-116z M-97-289h-9v-16.9c0-0.6-0.4-1.1-1-1.1h-10c-0.6,0-1,0.5-1,1.1v16.9
		h-9v-28.4l15-7.5l15,7.5V-289z"/>
</g>
<g id="Money_1_">
	<rect x="-193" y="-298" class="st0" width="5" height="2"/>
	<rect x="-197" y="-305" class="st0" width="5" height="2"/>
	<rect x="-171" y="-321" class="st0" width="5" height="2"/>
	<path class="st0" d="M-162-318v-7h-40v26h4v7h40v-26H-162z M-200-301v-22h36v5v17h-34H-200z M-160-294h-36v-5h34v-12h1v-2h-1v-3h2
		V-294z"/>
	<path class="st0" d="M-180.6-306h-2.8c-2.5,0-4.6-2.1-4.6-4.6v-2.8c0-2.5,2.1-4.6,4.6-4.6h2.8c2.5,0,4.6,2.1,4.6,4.6v2.8
		C-176-308.1-178.1-306-180.6-306z M-183.4-316c-1.4,0-2.6,1.2-2.6,2.6v2.8c0,1.4,1.2,2.6,2.6,2.6h2.8c1.4,0,2.6-1.2,2.6-2.6v-2.8
		c0-1.4-1.2-2.6-2.6-2.6H-183.4z"/>
</g>
<g id="Shopping_Cart">
	<path class="st0" d="M-257.5-287.9c-1.8,0-3.3-1.5-3.3-3.3s1.5-3.3,3.3-3.3s3.3,1.5,3.3,3.3S-255.7-287.9-257.5-287.9z
		 M-257.5-292.5c-0.7,0-1.3,0.6-1.3,1.3c0,0.7,0.6,1.3,1.3,1.3c0.7,0,1.3-0.6,1.3-1.3C-256.2-291.9-256.8-292.5-257.5-292.5z"/>
	<path class="st0" d="M-236.5-287.9c-1.8,0-3.3-1.5-3.3-3.3s1.5-3.3,3.3-3.3s3.3,1.5,3.3,3.3S-234.6-287.9-236.5-287.9z
		 M-236.5-292.5c-0.7,0-1.3,0.6-1.3,1.3c0,0.7,0.6,1.3,1.3,1.3s1.3-0.6,1.3-1.3C-235.2-291.9-235.7-292.5-236.5-292.5z"/>
	<path class="st0" d="M-226-326h-7c-0.6,0-1,0.4-1,1v4h-35c-0.3,0-0.6,0.1-0.8,0.4s-0.3,0.5-0.2,0.8l3.8,19c0.1,0.5,0.5,0.8,1,0.8
		h31.2v3h-28c-0.6,0-1,0.4-1,1s0.4,1,1,1h29c0.6,0,1-0.4,1-1v-28h6c0.6,0,1-0.4,1-1S-225.4-326-226-326z M-264.4-302l-3.4-17h33.8
		v17H-264.4z"/>
</g>
</svg>
