<?xml version="1.0" encoding="utf-8"?>
<!-- Generator: Adobe Illustrator 21.0.2, SVG Export Plug-In . SVG Version: 6.00 Build 0)  -->
<svg version="1.1" xmlns="http://www.w3.org/2000/svg" xmlns:xlink="http://www.w3.org/1999/xlink" x="0px" y="0px"
	 viewBox="0 0 48 48" style="enable-background:new 0 0 48 48;" xml:space="preserve">
<style type="text/css">
	.st0{fill:#6B6B6B;}
	.st1{fill:none;stroke:#6B6B6B;}
	.st2{fill:none;stroke:#6B6B6B;stroke-width:3;stroke-linecap:round;stroke-linejoin:round;stroke-miterlimit:10;}
	.st3{fill:none;stroke:#6B6B6B;stroke-width:3;stroke-linecap:round;stroke-linejoin:round;}
	.st4{fill:none;stroke:#6B6B6B;stroke-linecap:round;stroke-linejoin:round;stroke-miterlimit:10;}
</style>
<g id="Monitor_1_">
	<path class="st0" d="M245.4,277h-34.8c-2.5,0-4.6,2.1-4.6,4.6v21.8c0,2.5,2.1,4.6,4.6,4.6H221v4h-1.8c-0.6,0-1,0.4-1,1s0.4,1,1,1
		H237c0.6,0,1-0.4,1-1s-0.4-1-1-1h-2v-4h10.4c2.5,0,4.6-2.1,4.6-4.6v-21.8C250,279.1,247.9,277,245.4,277z M233,308v4h-10v-4H233z
		 M208,281.6c0-1.4,1.2-2.6,2.6-2.6h34.8c1.4,0,2.6,1.2,2.6,2.6V301c0,0-0.1,0-0.1,0H208V281.6z M245.4,306h-34.8
		c-1.4,0-2.6-1.2-2.6-2.6V303h39.9c0,0,0.1,0,0.1,0v0.4C248,304.8,246.8,306,245.4,306z"/>
	<g>
		<path class="st1" d="M23.6,335.6c-0.1,0.1-6.1,6.1-15.6,3.1l-0.6-0.2l-0.1,0.6c-0.1,0.6-2.2,15.9-1,21.8l0,0.1l0,0.1
			c0.1,0.1,6.1,10.8,17.4,15.7l0.2,0.1l0.2-0.1c11.3-4.9,17.3-15.6,17.4-15.7l0-0.1l0-0.1c0.5-2.5,0.5-6.9-0.1-13.2
			c-0.2-2.4-0.5-4.6-0.6-6.1l-0.2-1.9c-0.1-1-0.1-1-0.4-1.1l-0.2-0.1l-0.2,0.1c-9.6,3-15.6-3-15.6-3.1l-0.4-0.4L23.6,335.6z"/>
	</g>
	<g>
		<path class="st0" d="M24,337.3c1.5,1.2,5.2,3.7,10.6,3.7c1.5,0,3.1-0.2,4.6-0.6c0.5,3.7,1.8,15.1,0.9,20
			c-0.7,1.2-6.3,10.3-16.2,14.7c-9.9-4.4-15.5-13.5-16.2-14.7c-0.9-4.9,0.4-16.3,0.9-20c1.6,0.4,3.1,0.6,4.6,0.6
			C18.8,341,22.5,338.5,24,337.3 M24,335.9c0,0-3.9,4.1-10.6,4.1c-1.7,0-3.5-0.3-5.5-0.9c0,0-2.2,15.7-1,21.6
			c0,0,5.9,10.6,17.2,15.5c11.3-4.8,17.2-15.5,17.2-15.5c1.2-5.9-1-21.6-1-21.6c-2,0.6-3.8,0.9-5.5,0.9C27.9,340,24,335.9,24,335.9
			L24,335.9z"/>
	</g>
	<g>
		<path class="st0" d="M24,342.5c1.6,1.1,4.5,2.7,8.5,2.7c0.9,0,1.8-0.1,2.7-0.2c0.5,4.1,1.1,11,0.6,14.1
			c-0.8,1.4-4.9,7.6-11.8,10.9c-6.9-3.3-11-9.5-11.8-10.9c-0.5-3.2,0.1-10,0.6-14.1c0.9,0.2,1.8,0.2,2.7,0.2
			C19.4,345.2,22.4,343.7,24,342.5 M24,340c0,0-3.2,3.3-8.5,3.3c-1.3,0-2.8-0.2-4.4-0.7c0,0-1.8,12.6-0.8,17.3
			c0,0,4.7,8.5,13.7,12.4c9-3.9,13.7-12.4,13.7-12.4c0.9-4.7-0.8-17.3-0.8-17.3c-1.6,0.5-3.1,0.7-4.4,0.7C27.1,343.2,24,340,24,340
			L24,340z"/>
	</g>
	<polyline class="st2" points="-57.7,358.4 -49.7,364.1 -30.4,345.7 	"/>
	<circle class="st0" cx="91.5" cy="342.5" r="7"/>
	<path class="st0" d="M91.5,351.5L91.5,351.5c-3.9,0-7,3.1-7,7v3c0,3.9,3.1,7,7,7h0c3.8,0,7-3.1,7-7v-3
		C98.5,354.6,95.4,351.5,91.5,351.5z"/>
	<circle class="st0" cx="76.5" cy="348.5" r="5.5"/>
	<path class="st0" d="M76.5,355.6L76.5,355.6c-3,0-5.5,2.5-5.5,5.5v2.4c0,3,2.5,5.5,5.5,5.5h0c3,0,5.5-2.5,5.5-5.5v-2.4
		C82,358.1,79.5,355.6,76.5,355.6z"/>
	<circle class="st0" cx="106.5" cy="348.5" r="5.5"/>
	<path class="st0" d="M106.5,355.6L106.5,355.6c-3,0-5.5,2.5-5.5,5.5v2.4c0,3,2.5,5.5,5.5,5.5h0c3,0,5.5-2.5,5.5-5.5v-2.4
		C112,358.1,109.5,355.6,106.5,355.6z"/>
	<g>
		<g>
			<path class="st3" d="M173.4,336.4c0,0,0,4.2,0,5c-0.8,0-3.4,0-4.2,0c0-0.9,0-5,0-5h-6.3c0,0,0,4.2,0,5c-0.8,0-3.4,0-4.2,0
				c0-0.9,0-5,0-5h-6.3c0,0,0,4.2,0,5c-0.8,0-3.4,0-4.2,0c0-0.9,0-5,0-5h-6.3l0,0.5c-0.1,1-1.9,24.5,4.3,31.7
				c6.7,7.8,14.2,8.9,14.6,8.9l0.1,0l0.1,0c0.3,0,7.9-1.1,14.6-8.9c6.2-7.2,4.4-30.7,4.3-31.6l0-0.5H173.4z"/>
		</g>
	</g>
	<g>
		<path class="st3" d="M150.7,365.6c4.7,5.5,10.1,6.2,10.1,6.2s5.4-0.7,10.1-6.2c2.8-3.2,3.2-11.5,3.2-17h-26.5
			C147.4,354.1,147.9,362.3,150.7,365.6z"/>
	</g>
	<polygon class="st2" points="227.2,342 208,349.9 227.2,357.5 246.6,349.7 	"/>
	<path class="st2" d="M215.6,354.4v9.1c0,0,4.3,3.5,11.3,3.4c7-0.1,11.5-3,11.5-3v-9.5"/>
	<line class="st4" x1="245" y1="349.9" x2="245" y2="355.1"/>
	<circle class="st0" cx="245" cy="355" r="1"/>
	<polygon class="st0" points="245,355 243.2,358 246.7,358 	"/>
</g>
<g id="Computer_1_">
	<path class="st0" d="M181.9,308.6l-3.9-8.8V278c0-0.6-0.4-1-1-1h-34c-0.6,0-1,0.4-1,1v21.8l-3.9,8.8c-0.1,0.3-0.1,0.7,0.1,1
		s0.5,0.5,0.8,0.5h42c0.3,0,0.7-0.2,0.8-0.5S182.1,308.9,181.9,308.6z M144,279h32v20h-32V279z M140.5,308l3.1-7h32.7l3.1,7H140.5z"
		/>
	<path class="st0" d="M173,281h-26c-0.6,0-1,0.4-1,1v14c0,0.6,0.4,1,1,1h26c0.6,0,1-0.4,1-1v-14C174,281.4,173.6,281,173,281z
		 M172,295h-24v-12h24V295z"/>
</g>
<g id="Wifi_1_">
	<path class="st0" d="M92.3,310.5c-2.4,0-4.3-1.9-4.3-4.3s1.9-4.3,4.3-4.3s4.3,1.9,4.3,4.3S94.7,310.5,92.3,310.5z M92.3,304.1
		c-1.1,0-2,0.9-2,2c0,1.1,0.9,2,2,2c1.1,0,2-0.9,2-2C94.4,305,93.5,304.1,92.3,304.1z"/>
	<g>
		<path class="st0" d="M92.3,311"/>
		<path class="st0" d="M111.6,292.9c-0.3,0-0.7-0.2-0.9-0.5c-4.4-5.8-11-9.2-18.3-9.2s-13.9,3.3-18.3,9.2c-0.4,0.5-1.1,0.6-1.6,0.2
			c-0.5-0.4-0.6-1.1-0.2-1.6C77,284.7,84.4,281,92.3,281c8,0,15.3,3.7,20.1,10.1c0.4,0.5,0.3,1.2-0.2,1.6
			C112,292.8,111.8,292.9,111.6,292.9z"/>
	</g>
	<g>
		<path class="st0" d="M92.3,311"/>
		<path class="st0" d="M107.4,297.1c-0.4,0-0.7-0.2-0.9-0.5c-3.2-4.7-8.5-7.5-14.1-7.5s-10.9,2.8-14.1,7.5c-0.3,0.5-1,0.6-1.6,0.3
			c-0.5-0.3-0.6-1-0.3-1.6c3.6-5.3,9.6-8.5,16-8.5c6.4,0,12.4,3.2,16,8.5c0.3,0.5,0.2,1.2-0.3,1.6
			C107.8,297,107.6,297.1,107.4,297.1z"/>
	</g>
	<g>
		<path class="st0" d="M103.7,300.7c-0.4,0-0.8-0.2-1-0.6c-2.2-3.7-6.1-6-10.4-6c-4.3,0-8.3,2.3-10.4,6c-0.3,0.5-1,0.7-1.5,0.4
			c-0.5-0.3-0.7-1-0.4-1.5c2.6-4.4,7.3-7.2,12.4-7.2c5.1,0,9.8,2.7,12.4,7.2c0.3,0.5,0.1,1.2-0.4,1.5
			C104.1,300.7,103.9,300.7,103.7,300.7z"/>
		<path class="st0" d="M80.9,299.6"/>
		<path class="st0" d="M103.7,299.6"/>
	</g>
	<g>
		<path class="st0" d="M92.3,311"/>
		<path class="st0" d="M100,304.5c-0.5,0-0.9-0.3-1.1-0.7c-1-2.8-3.7-4.6-6.6-4.6c-2.9,0-5.6,1.9-6.6,4.6c-0.2,0.6-0.9,0.9-1.4,0.7
			c-0.6-0.2-0.9-0.9-0.7-1.4c1.3-3.6,4.8-6.1,8.7-6.1c3.9,0,7.4,2.4,8.7,6.1c0.2,0.6-0.1,1.2-0.7,1.4
			C100.3,304.4,100.1,304.5,100,304.5z"/>
		<path class="st0" d="M84.7,303.3"/>
		<path class="st0" d="M92.3,311"/>
		<path class="st0" d="M100,303.3"/>
	</g>
</g>
<g id="Credit_Card_1_">
	<path class="st0" d="M39.4,281H11.6c-2.4,0-4.3,1.8-4.5,4.1c-2.3,0.3-4.1,2.2-4.1,4.5v16.8c0,2.5,2.1,4.6,4.6,4.6h27.8
		c2.4,0,4.3-1.8,4.5-4.1c2.3-0.3,4.1-2.2,4.1-4.5v-16.8C44,283.1,41.9,281,39.4,281z M38,306.4c0,1.4-1.2,2.6-2.6,2.6H7.6
		c-1.4,0-2.6-1.2-2.6-2.6v-16.8c0-1.4,1.2-2.6,2.6-2.6h27.8c1.4,0,2.6,1.2,2.6,2.6V306.4z M42,302.4c0,1.2-0.9,2.3-2,2.5v-15.3
		c0-2.5-2.1-4.6-4.6-4.6H9.1c0.3-1.1,1.3-2,2.5-2h27.8c1.4,0,2.6,1.2,2.6,2.6V302.4z"/>
	<path class="st0" d="M28,291"/>
	<path class="st0" d="M8,291"/>
	<rect x="8" y="301" class="st0" width="7" height="2"/>
	<rect x="8" y="305" class="st0" width="10" height="2"/>
	<path class="st0" d="M33,301c-0.8,0-1.5,0.3-2,0.8c-0.5-0.5-1.2-0.8-2-0.8c-1.7,0-3,1.3-3,3s1.3,3,3,3c0.8,0,1.5-0.3,2-0.8
		c0.5,0.5,1.2,0.8,2,0.8c1.7,0,3-1.3,3-3S34.7,301,33,301z M29,305c-0.6,0-1-0.4-1-1s0.4-1,1-1s1,0.4,1,1S29.6,305,29,305z M33,305
		c-0.6,0-1-0.4-1-1s0.4-1,1-1s1,0.4,1,1S33.6,305,33,305z"/>
	<path class="st0" d="M28,293.1"/>
	<path class="st0" d="M8,293.1"/>
	<rect x="8" y="290" class="st0" width="20" height="3"/>
</g>
<g id="Lock_1_">
	<path class="st0" d="M-33,290.3V289c0-6.1-4.9-11-11-11s-11,4.9-11,11v1.1c-2.3,0.3-4,2.2-4,4.5v15.8c0,2.5,2.1,4.6,4.6,4.6h19.8
		c2.5,0,4.6-2.1,4.6-4.6v-15.8C-30,292.6-31.3,291-33,290.3z M-53,289c0-5,4-9,9-9s9,4,9,9v1h-4v-1c0-2.8-2.2-5-5-5s-5,2.2-5,5v1h-4
		V289z M-41,290h-6v-1c0-1.7,1.3-3,3-3s3,1.3,3,3V290z M-32,310.4c0,1.4-1.2,2.6-2.6,2.6h-19.8c-1.4,0-2.6-1.2-2.6-2.6v-15.8
		c0-1.4,1.2-2.6,2.6-2.6h5.4h10h4.4c1.4,0,2.6,1.2,2.6,2.6V310.4z"/>
</g>
<g id="Documents_1_">
	<path class="st0" d="M245.6,215.2l-12-10c-0.2-0.1-0.4-0.2-0.6-0.2h-18c-0.6,0-1,0.4-1,1v3h-3c-0.6,0-1,0.4-1,1v39c0,0.6,0.4,1,1,1
		h30c0.6,0,1-0.4,1-1v-3h3c0.6,0,1-0.4,1-1v-29C246,215.7,245.9,215.4,245.6,215.2z M243.4,216H233v-8.7L243.4,216z M240,248h-28
		v-37h2v34c0,0.6,0.4,1,1,1h25V248z M216,244v-37h15v10c0,0.6,0.4,1,1,1h12v26H216z"/>
</g>
<g id="Phone_1_">
	<path class="st0" d="M170,249h-22c-0.6,0-1-0.4-1-1v-40c0-0.6,0.4-1,1-1h22c0.6,0,1,0.4,1,1v40C171,248.6,170.6,249,170,249z
		 M149,247h20v-38h-20V247z"/>
	<path class="st0" d="M166,240h-14c-0.6,0-1-0.4-1-1v-25c0-0.6,0.4-1,1-1h14c0.6,0,1,0.4,1,1v25C167,239.6,166.6,240,166,240z
		 M153,238h12v-23h-12V238z"/>
	<path class="st0" d="M161.5,212h-5c-0.6,0-1-0.4-1-1s0.4-1,1-1h5c0.6,0,1,0.4,1,1S162.1,212,161.5,212z"/>
	<path class="st0" d="M159,246c-1.4,0-2.5-1.1-2.5-2.5s1.1-2.5,2.5-2.5s2.5,1.1,2.5,2.5S160.4,246,159,246z M159,243
		c-0.3,0-0.5,0.2-0.5,0.5s0.2,0.5,0.5,0.5s0.5-0.2,0.5-0.5S159.3,243,159,243z"/>
</g>
<g id="Download_1_">
	<path class="st0" d="M103,236h-7v-2h5v-1l0.9-0.1c3.4-0.4,7.1-3.5,7.1-7.3c0-4.1-3.1-7.3-7-7.3c-1,0-1.8,0.2-2.8,0.6l-1.1,0.5
		l-0.2-1.2c-0.8-4.2-4.5-7.2-8.7-7.2c-4.8,0-8.6,3.7-8.9,8.5l0,0.8l-0.8,0.1c-3,0.4-5.4,3.4-5.4,6.7c0,3.6,3,6.8,6.3,6.8H86v2h-5.7
		c-4.4,0-8.3-4.1-8.3-8.8c0-4,2.8-7.6,6.3-8.6c0.6-5.5,5.2-9.6,10.8-9.6c4.8,0,8.9,3.2,10.3,7.7c0.8-0.2,1.6-0.4,2.5-0.4
		c5.1,0,9,4.1,9,9.3c0,4.7-4,8.2-7.9,9.1V236z"/>
	<path class="st0" d="M96.6,239.3c-0.4-0.4-1-0.4-1.4,0l-3.2,3.2V228h-2v14.6l-3.3-3.2c-0.4-0.4-1-0.4-1.4,0s-0.4,1,0,1.4l4.9,5
		c0.2,0.2,0.4,0.3,0.7,0.3s0.5-0.1,0.7-0.3l4.9-5C97,240.4,97,239.7,96.6,239.3z"/>
</g>
<g id="Upload_1_">
	<path class="st0" d="M35,236h-7v-2h5v-1l0.9-0.1c3.4-0.4,7.1-3.5,7.1-7.3c0-4.1-3.1-7.3-7-7.3c-1,0-1.8,0.2-2.8,0.6l-1.1,0.5
		l-0.2-1.2c-0.8-4.2-4.5-7.2-8.7-7.2c-4.8,0-8.6,3.7-8.9,8.5l0,0.8l-0.8,0.1c-3,0.4-5.4,3.4-5.4,6.7c0,3.6,3,6.8,6.3,6.8H18v2h-5.7
		c-4.4,0-8.3-4.1-8.3-8.8c0-4,2.8-7.6,6.3-8.6c0.6-5.5,5.2-9.6,10.8-9.6c4.8,0,8.9,3.2,10.3,7.7c0.8-0.2,1.6-0.4,2.5-0.4
		c5.1,0,9,4.1,9,9.3c0,4.7-4,8.2-7.9,9.1V236z"/>
	<path class="st0" d="M28.6,228.2l-4.9-5c-0.4-0.4-1-0.4-1.4,0l-4.9,5c-0.4,0.4-0.4,1,0,1.4s1,0.4,1.4,0l3.3-3.2V241h2v-14.6
		l3.2,3.2c0.2,0.2,0.4,0.3,0.7,0.3s0.5-0.1,0.7-0.3C29,229.3,29,228.6,28.6,228.2z"/>
</g>
<g id="Cloud_1_">
	<path class="st0" d="M-33,236h-22.7c-4.4,0-8.3-4.1-8.3-8.8c0-4,2.8-7.6,6.3-8.6c0.6-5.5,5.2-9.6,10.8-9.6c4.8,0,8.9,3.2,10.3,7.7
		c0.8-0.2,1.6-0.4,2.5-0.4c5.1,0,9,4.1,9,9.3c0,4.7-4,8.2-7.9,9.1V236z M-46.9,211c-4.8,0-8.6,3.7-8.9,8.5l0,0.8l-0.8,0.1
		c-3,0.4-5.4,3.4-5.4,6.7c0,3.6,3,6.8,6.3,6.8H-35v-1l0.9-0.1c3.4-0.4,7.1-3.5,7.1-7.3c0-4.1-3.1-7.3-7-7.3c-1,0-1.8,0.2-2.8,0.6
		l-1.1,0.5l-0.2-1.2C-39.1,214-42.7,211-46.9,211z"/>
</g>
<g id="Award_1_">
	<path class="st0" d="M228.1,164.6l-2.9-1.7l-3.4,0l-1.7-2.9l-2.9-1.7l0-3.4l-1.7-2.9l1.7-2.9l0-3.4l2.9-1.7l1.7-2.9l3.4,0l2.9-1.7
		l2.9,1.7l3.4,0l1.7,2.9l2.9,1.7l0,3.4l1.7,2.9l-1.7,2.9l0,3.4l-2.9,1.7l-1.7,2.9l-3.4,0L228.1,164.6z M225.7,160.9l2.4,1.4l2.4-1.4
		l2.7,0l1.4-2.4l2.4-1.4l0-2.7l1.4-2.4l-1.4-2.4l0-2.7l-2.4-1.4l-1.4-2.4l-2.7,0l-2.4-1.4l-2.4,1.4l-2.7,0l-1.4,2.4l-2.4,1.4l0,2.7
		l-1.4,2.4l1.4,2.4l0,2.7l2.4,1.4l1.4,2.4L225.7,160.9z"/>
	<path class="st0" d="M228,160c-1,0-2-0.2-3-0.6c-2-0.8-3.5-2.3-4.4-4.3c-0.8-2-0.9-4.1-0.1-6.1s2.3-3.5,4.3-4.4
		c2-0.8,4.1-0.9,6.1-0.1c2,0.8,3.5,2.3,4.4,4.3c0.8,2,0.9,4.1,0.1,6.1s-2.3,3.5-4.3,4.4C230.1,159.8,229.1,160,228,160z M228,146
		c-0.8,0-1.6,0.2-2.4,0.5c-1.5,0.6-2.6,1.8-3.2,3.3c-0.6,1.5-0.6,3.1,0.1,4.6c0.6,1.5,1.8,2.6,3.3,3.2c1.5,0.6,3.1,0.6,4.6-0.1
		c1.5-0.6,2.6-1.8,3.2-3.3v0c0.6-1.5,0.6-3.1-0.1-4.6c-0.6-1.5-1.8-2.6-3.3-3.2C229.5,146.1,228.8,146,228,146z"/>
	<path class="st0" d="M221.7,182l-4.6-3.6l-4.9,0.8l5.3-16.4l9.4,3L221.7,182z M217.7,176.2l3,2.4l3.7-11.5l-5.6-1.8l-3.7,11.4
		L217.7,176.2z"/>
	<path class="st0" d="M234,182l-5.2-16.2l9.4-3l5.3,16.4l-4.9-0.8L234,182z M231.3,167l3.7,11.5l3-2.4l2.6,0.4l-3.7-11.4L231.3,167z
		"/>
</g>
<g id="Clipboard_1_">
	<path class="st0" d="M167,141v-2h-15v2h-8v41h31v-41H167z M154,141h11v1h-1v2h-9v-2h-1V141z M173,180h-27v-37h6v1h1v2h13v-2h1v-1h6
		V180z"/>
	<rect x="148" y="150" class="st0" width="15" height="2"/>
	<rect x="148" y="164" class="st0" width="13" height="2"/>
	<rect x="148" y="157" class="st0" width="17" height="2"/>
	<rect x="148" y="171" class="st0" width="15" height="2"/>
</g>
<g id="Stopwatch_1_">
	<path class="st0" d="M95,142.3V140h1c0.6,0,1-0.4,1-1s-0.4-1-1-1h-2h-4h-2c-0.6,0-1,0.4-1,1s0.4,1,1,1h1v2.3
		c-9.6,1.5-17,9.7-17,19.7c0,11,9,20,20,20c11,0,20-9,20-20C112,152,104.6,143.7,95,142.3z M91,142v-2h2v2H91z M92,180
		c-9.9,0-18-8.1-18-18c0-9.9,8.1-18,18-18c9.9,0,18,8.1,18,18C110,171.9,101.9,180,92,180z"/>
	<path class="st0" d="M92,146c-8.8,0-16,7.2-16,16s7.2,16,16,16s16-7.2,16-16S100.8,146,92,146z M92,176c-7.7,0-14-6.3-14-14
		s6.3-14,14-14s14,6.3,14,14S99.7,176,92,176z"/>
	<path class="st0" d="M99.3,153.3l-6,6c-0.4-0.2-0.8-0.3-1.3-0.3c-1.3,0-2.4,0.8-2.8,2H82c-0.6,0-1,0.4-1,1s0.4,1,1,1h7.2
		c0.4,1.2,1.5,2,2.8,2c1.7,0,3-1.3,3-3c0-0.5-0.1-0.9-0.3-1.3l6-6c0.4-0.4,0.4-1,0-1.4S99.7,152.9,99.3,153.3z M92,163
		c-0.6,0-1-0.4-1-1s0.4-1,1-1c0,0.3,0.1,0.5,0.3,0.7s0.5,0.3,0.7,0.3C93,162.6,92.6,163,92,163z"/>
</g>
<g id="Bulb_1_">
	<g>
		<path class="st0" d="M20.2,172.9h-1v-2.7c-1-0.8-1.7-2-1.7-3.3c0.3-2.8-2.1-6.8-3.1-8.4c-0.2-0.3-0.4-0.6-0.6-0.9l-0.5-0.7
			l0.1-0.1c-1-1.9-1.5-4-1.5-6.1c0-7.4,6-13.4,13.4-13.4s13.4,6,13.4,13.4c0,2.1-0.5,4.2-1.5,6.1l0,0.1l-0.5,0.7
			c-0.2,0.3-0.4,0.6-0.6,0.9c-1,1.5-3.3,5.5-3,8.1c0,1.2,0,3-1,4v2.1h-1c-1.1,0-3.5,0-5.9,0C23.1,172.9,21.1,172.9,20.2,172.9z
			 M15.6,156.5L15.6,156.5c0.2,0.3,0.4,0.6,0.6,0.8c1.4,2.2,3.7,6.4,3.4,9.6c0,0.7,0.4,1.4,1.1,1.8l0.5,0.3v1.9c1,0,2.5,0,4,0
			c1.8,0,3.6,0,4.9,0v-1.2l0.5-0.3c0.5-0.3,0.5-1.9,0.5-2.5c-0.3-3.1,2-7.2,3.4-9.4c0.2-0.3,0.4-0.6,0.6-0.9l0.1-0.1
			c1-1.7,1.6-3.7,1.6-5.7c0-6.3-5.1-11.4-11.4-11.4S14,144.4,14,150.7C14,152.7,14.5,154.7,15.6,156.5L15.6,156.5z"/>
	</g>
	<rect x="19" y="174" class="st0" width="13" height="2"/>
	<rect x="19" y="176.9" class="st0" width="13" height="2"/>
	<rect x="22" y="180" class="st0" width="7" height="2"/>
</g>
<g id="Trash_1_">
	<path class="st0" d="M-52,151c-0.6,0-1,0.4-1,1v22c0,0.6,0.4,1,1,1s1-0.4,1-1v-22C-51,151.4-51.4,151-52,151z"/>
	<path class="st0" d="M-44,151c-0.6,0-1,0.4-1,1v22c0,0.6,0.4,1,1,1s1-0.4,1-1v-22C-43,151.4-43.4,151-44,151z"/>
	<path class="st0" d="M-36,175c0.6,0,1-0.4,1-1v-22c0-0.6-0.4-1-1-1s-1,0.4-1,1v22C-37,174.6-36.6,175-36,175z"/>
	<path class="st0" d="M-28,147h-3h-8v-3c0-0.6-0.4-1-1-1h-8c-0.6,0-1,0.4-1,1v3h-8h-3c-0.6,0-1,0.4-1,1s0.4,1,1,1h2v29
		c0,0.6,0.4,1,1,1h26c0.6,0,1-0.4,1-1v-29h2c0.6,0,1-0.4,1-1S-27.4,147-28,147z M-47,145h6v2h-6V145z M-32,177h-24v-28h8h8h8V177z"
		/>
</g>
<g id="Bolt_1_">
	<path class="st0" d="M221,114c-0.1,0-0.2,0-0.3-0.1c-0.4-0.2-0.7-0.6-0.6-1.1l2.8-19.9H218c-0.3,0-0.6-0.2-0.8-0.4
		c-0.2-0.3-0.2-0.6-0.1-0.9l7-22c0.1-0.4,0.5-0.7,1-0.7h15c0.3,0,0.7,0.2,0.8,0.5c0.2,0.3,0.2,0.7,0.1,1L234.6,84h4.4
		c0.4,0,0.7,0.2,0.9,0.5c0.2,0.3,0.2,0.7,0,1l-18,28C221.7,113.8,221.3,114,221,114z M219.4,91h4.6c0.3,0,0.6,0.1,0.8,0.3
		c0.2,0.2,0.3,0.5,0.2,0.8l-2.4,16.5L237.2,86H233c-0.3,0-0.7-0.2-0.8-0.5c-0.2-0.3-0.2-0.7-0.1-1l6.3-13.6h-12.7L219.4,91z"/>
</g>
<g id="Magnifying_Glass_1_">
	<path class="st0" d="M173.4,77.9c-2.1-2.1-4.9-3.2-7.8-3.2c-2.9,0-5.7,1.1-7.8,3.2c-4.3,4.3-4.3,11.3,0,15.6
		c2.1,2.1,4.9,3.2,7.8,3.2c2.9,0,5.7-1.1,7.8-3.2C177.7,89.2,177.7,82.2,173.4,77.9z M172,92.1c-1.7,1.7-4,2.6-6.4,2.6
		c-2.4,0-4.7-0.9-6.4-2.6c-3.5-3.5-3.5-9.3,0-12.8c1.7-1.7,4-2.6,6.4-2.6c2.4,0,4.7,0.9,6.4,2.6C175.5,82.8,175.5,88.5,172,92.1z"/>
	<path class="st0" d="M176.6,74.7c-6-6-15.9-6-21.9,0c-4.7,4.7-5.7,11.6-3.1,17.3c0,0,0,0,0,0l-13.4,13.4c-0.2,0.2-0.3,0.4-0.3,0.7
		s0.1,0.5,0.3,0.7l6.3,6.3c0.2,0.2,0.5,0.3,0.7,0.3s0.5-0.1,0.7-0.3l13.4-13.4c0,0,0,0,0,0c2,0.9,4.1,1.4,6.4,1.4
		c4.1,0,8-1.6,11-4.5c2.9-2.9,4.5-6.8,4.5-11S179.5,77.6,176.6,74.7z M157.1,99.1l-12,12l-4.9-4.9l12-12l2.4,2.4c0,0,0,0,0,0
		c0,0,0,0,0,0L157.1,99.1z M175.2,95.2c-2.5,2.5-5.9,4-9.5,4c-3.6,0-7-1.4-9.5-4l0,0c-5.3-5.3-5.3-13.8,0-19.1
		c2.6-2.6,6.1-3.9,9.5-3.9c3.5,0,6.9,1.3,9.5,3.9c2.5,2.5,4,5.9,4,9.5S177.7,92.7,175.2,95.2z"/>
</g>
<g id="Pencil_1_">
	<path class="st0" d="M114.4,78.8l-8.6-8.6c-0.4-0.4-1-0.4-1.4,0l-31.8,31.8c-0.1,0.1-0.2,0.3-0.3,0.4l-2.7,10.8
		c-0.1,0.3,0,0.7,0.2,0.9c0.2,0.2,0.4,0.3,0.7,0.3c0.1,0,0.1,0,0.2,0l11.3-2.3c0.2,0,0.4-0.1,0.5-0.3l31.8-31.8
		C114.7,79.8,114.7,79.2,114.4,78.8z M99.3,78.3l7.1,7.1l-1.6,1.6l-7.1-7.1c0,0-0.1-0.1-0.1-0.1l1.6-1.6
		C99.3,78.2,99.3,78.2,99.3,78.3z M73,107.9l3.5,3.5l-4.7,0.9L73,107.9z M81.4,110.5l-2.8,0.6c0-0.2-0.1-0.3-0.2-0.5l-4.5-4.5
		c-0.1-0.1-0.2-0.2-0.3-0.2l0.6-2.6l22.2-22.2c0,0,0,0.1,0.1,0.1l7.1,7.1L81.4,110.5z M107.8,84l-7.1-7.1c0,0-0.1-0.1-0.1-0.1
		l4.5-4.5l7.2,7.2L107.8,84z"/>
</g>
<g id="Chart_Up">
	<path class="st0" d="M37.2,83.7l1.5-6.8c0.1-0.5-0.2-1.1-0.8-1.2l-6.8-1.5c-0.5-0.1-1.1,0.2-1.2,0.8c-0.1,0.5,0.2,1.1,0.8,1.2
		l4.5,1L5.9,96.1l1.1,1.7l29.3-18.9l-1,4.5c-0.1,0.3,0,0.5,0.1,0.7c0.1,0.2,0.4,0.4,0.6,0.4C36.5,84.6,37.1,84.3,37.2,83.7z"/>
	<path class="st0" d="M45,78c-0.6,0-1,0.4-1,1v29h-2V88c0-0.6-0.4-1-1-1h-6c-0.6,0-1,0.4-1,1v20h-2V93c0-0.6-0.4-1-1-1h-6
		c-0.6,0-1,0.4-1,1v15h-2V98c0-0.6-0.4-1-1-1h-6c-0.6,0-1,0.4-1,1v10h-2v-5c0-0.6-0.4-1-1-1H5c-0.6,0-1,0.4-1,1v5H3
		c-0.6,0-1,0.4-1,1s0.4,1,1,1h2h6h4h6h4h6h4h6h5V79C46,78.4,45.6,78,45,78z M6,108v-4h4v4H6z M16,108v-9h4v9H16z M26,108V94h4v14H26
		z M36,108V89h4v19H36z"/>
</g>
<g id="Graph_2_">
	<path class="st0" d="M-23,78c-0.6,0-1,0.4-1,1v29h-2V81c0-0.6-0.4-1-1-1h-6c-0.6,0-1,0.4-1,1v27h-2V90c0-0.6-0.4-1-1-1h-6
		c-0.6,0-1,0.4-1,1v18h-2V87c0-0.6-0.4-1-1-1h-6c-0.6,0-1,0.4-1,1v21h-2V92c0-0.6-0.4-1-1-1h-6c-0.6,0-1,0.4-1,1v16h-1
		c-0.6,0-1,0.4-1,1s0.4,1,1,1h2h6h4h6h4h6h4h6h5V79C-22,78.4-22.4,78-23,78z M-62,108V93h4v15H-62z M-52,108V88h4v20H-52z M-42,108
		V91h4v17H-42z M-32,108V82h4v26H-32z"/>
</g>
<g id="Mail_1_">
	<path class="st0" d="M251,9c0-0.5-0.4-1-1-1H206c-0.5,0-1,0.4-1,1V40c0,0.5,0.4,1,1,1H250c0.5,0,1-0.4,1-1V9z M247.7,10l-19.5,18.9
		L208.6,10H247.7z M207,39V11.6l20.4,19.6c0.2,0.2,0.5,0.3,0.7,0.3s0.5-0.1,0.7-0.3L249,11.6V39H207z"/>
</g>
<g id="Pin_1_">
	<path class="st0" d="M159.6,46.2c-0.3,0-0.6-0.2-0.8-0.4c-0.6-0.9-14-21.2-14-29.1c0-8.2,6.6-14.8,14.8-14.8s14.8,6.6,14.8,14.8
		c0,7.8-13.4,28.2-14,29.1C160.3,46,159.9,46.2,159.6,46.2z M159.6,3.8c-7.1,0-12.8,5.7-12.8,12.8c0,6.2,9.8,22,12.8,26.7
		c3-4.6,12.8-20.5,12.8-26.7C172.4,9.6,166.7,3.8,159.6,3.8z"/>
	<path class="st0" d="M159.6,23.1c-3.6,0-6.5-2.9-6.5-6.5s2.9-6.5,6.5-6.5s6.5,2.9,6.5,6.5S163.2,23.1,159.6,23.1z M159.6,12.1
		c-2.5,0-4.5,2-4.5,4.5s2,4.5,4.5,4.5c2.5,0,4.5-2,4.5-4.5S162.1,12.1,159.6,12.1z"/>
</g>
<g id="House_1_">
	<path class="st0" d="M114.4,16.1l-22-11c-0.3-0.1-0.6-0.1-0.9,0l-22,11c-0.5,0.2-0.7,0.8-0.4,1.3c0.2,0.5,0.8,0.7,1.3,0.4l4.6-2.3
		V44c0,0.6,0.4,1,1,1h11h10h11c0.6,0,1-0.4,1-1V15.6l4.6,2.3c0.1,0.1,0.3,0.1,0.4,0.1c0.4,0,0.7-0.2,0.9-0.6
		C115.1,17,114.9,16.4,114.4,16.1z M88,43V27h8v16H88z M107,43h-9V26.1c0-0.6-0.4-1.1-1-1.1H87c-0.6,0-1,0.5-1,1.1V43h-9V14.6
		l15-7.5l15,7.5V43z"/>
</g>
<g id="Money_1_">
	<rect x="11" y="34" class="st0" width="5" height="2"/>
	<rect x="7" y="27" class="st0" width="5" height="2"/>
	<rect x="33" y="11" class="st0" width="5" height="2"/>
	<path class="st0" d="M42,14V7H2v26h4v7h40V14H42z M4,31V9h36v5v17H6H4z M44,38H8v-5h34V21h1v-2h-1v-3h2V38z"/>
	<path class="st0" d="M23.4,26h-2.8c-2.5,0-4.6-2.1-4.6-4.6v-2.8c0-2.5,2.1-4.6,4.6-4.6h2.8c2.5,0,4.6,2.1,4.6,4.6v2.8
		C28,23.9,25.9,26,23.4,26z M20.6,16c-1.4,0-2.6,1.2-2.6,2.6v2.8c0,1.4,1.2,2.6,2.6,2.6h2.8c1.4,0,2.6-1.2,2.6-2.6v-2.8
		c0-1.4-1.2-2.6-2.6-2.6H20.6z"/>
</g>
<g id="Shopping_Cart">
	<path class="st0" d="M-53.5,44.1c-1.8,0-3.3-1.5-3.3-3.3s1.5-3.3,3.3-3.3s3.3,1.5,3.3,3.3S-51.7,44.1-53.5,44.1z M-53.5,39.5
		c-0.7,0-1.3,0.6-1.3,1.3c0,0.7,0.6,1.3,1.3,1.3c0.7,0,1.3-0.6,1.3-1.3C-52.2,40.1-52.8,39.5-53.5,39.5z"/>
	<path class="st0" d="M-32.5,44.1c-1.8,0-3.3-1.5-3.3-3.3s1.5-3.3,3.3-3.3s3.3,1.5,3.3,3.3S-30.6,44.1-32.5,44.1z M-32.5,39.5
		c-0.7,0-1.3,0.6-1.3,1.3c0,0.7,0.6,1.3,1.3,1.3s1.3-0.6,1.3-1.3C-31.2,40.1-31.7,39.5-32.5,39.5z"/>
	<path class="st0" d="M-22,6h-7c-0.6,0-1,0.4-1,1v4h-35c-0.3,0-0.6,0.1-0.8,0.4s-0.3,0.5-0.2,0.8l3.8,19c0.1,0.5,0.5,0.8,1,0.8H-30
		v3h-28c-0.6,0-1,0.4-1,1s0.4,1,1,1h29c0.6,0,1-0.4,1-1V8h6c0.6,0,1-0.4,1-1S-21.4,6-22,6z M-60.4,30l-3.4-17H-30v17H-60.4z"/>
</g>
</svg>
