<?xml version="1.0" encoding="utf-8"?>
<!-- Generator: Adobe Illustrator 21.1.0, SVG Export Plug-In . SVG Version: 6.00 Build 0)  -->
<svg version="1.1" xmlns="http://www.w3.org/2000/svg" xmlns:xlink="http://www.w3.org/1999/xlink" x="0px" y="0px"
	 viewBox="0 0 48 48" style="enable-background:new 0 0 48 48;" xml:space="preserve">
<style type="text/css">
	.st0{fill:#6B6B6B;}
	.st1{fill:none;stroke:#6B6B6B;}
	.st2{fill:none;stroke:#6B6B6B;stroke-width:3;stroke-linecap:round;stroke-linejoin:round;stroke-miterlimit:10;}
	.st3{fill:none;stroke:#6B6B6B;stroke-width:3;stroke-linecap:round;stroke-linejoin:round;}
	.st4{fill:none;stroke:#6B6B6B;stroke-linecap:round;stroke-linejoin:round;stroke-miterlimit:10;}
	.st5{fill:none;stroke:#636466;stroke-width:3;stroke-linecap:round;stroke-linejoin:round;stroke-miterlimit:10;}
	.st6{font-family:'MyriadPro-Regular';}
	.st7{font-size:15.4804px;}
</style>
<g id="Monitor_1_">
	<path class="st0" d="M41.4,73H6.6C4.1,73,2,75.1,2,77.6v21.8c0,2.5,2.1,4.6,4.6,4.6H17v4h-1.8c-0.6,0-1,0.4-1,1s0.4,1,1,1H33
		c0.6,0,1-0.4,1-1s-0.4-1-1-1h-2v-4h10.4c2.5,0,4.6-2.1,4.6-4.6V77.6C46,75.1,43.9,73,41.4,73z M29,104v4H19v-4H29z M4,77.6
		C4,76.2,5.2,75,6.6,75h34.8c1.4,0,2.6,1.2,2.6,2.6V97c0,0-0.1,0-0.1,0H4V77.6z M41.4,102H6.6c-1.4,0-2.6-1.2-2.6-2.6V99h39.9
		c0,0,0.1,0,0.1,0v0.4C44,100.8,42.8,102,41.4,102z"/>
	<g>
		<path class="st1" d="M-180.4,131.6c-0.1,0.1-6.1,6.1-15.6,3.1l-0.6-0.2l-0.1,0.6c-0.1,0.6-2.2,15.9-1,21.8l0,0.1l0,0.1
			c0.1,0.1,6.1,10.8,17.4,15.7l0.2,0.1l0.2-0.1c11.3-4.9,17.3-15.6,17.4-15.7l0-0.1l0-0.1c0.5-2.5,0.5-6.9-0.1-13.2
			c-0.2-2.4-0.5-4.6-0.6-6.1l-0.2-1.9c-0.1-1-0.1-1-0.4-1.1l-0.2-0.1l-0.2,0.1c-9.6,3-15.6-3-15.6-3.1l-0.4-0.4L-180.4,131.6z"/>
	</g>
	<g>
		<path class="st0" d="M-180,133.3c1.5,1.2,5.2,3.7,10.6,3.7c1.5,0,3.1-0.2,4.6-0.6c0.5,3.7,1.8,15.1,0.9,20
			c-0.7,1.2-6.3,10.3-16.2,14.7c-9.9-4.4-15.5-13.5-16.2-14.7c-0.9-4.9,0.4-16.3,0.9-20c1.6,0.4,3.1,0.6,4.6,0.6
			C-185.2,137-181.5,134.5-180,133.3 M-180,131.9c0,0-3.9,4.1-10.6,4.1c-1.7,0-3.5-0.3-5.5-0.9c0,0-2.2,15.7-1,21.6
			c0,0,5.9,10.6,17.2,15.5c11.3-4.8,17.2-15.5,17.2-15.5c1.2-5.9-1-21.6-1-21.6c-2,0.6-3.8,0.9-5.5,0.9
			C-176.1,136-180,131.9-180,131.9L-180,131.9z"/>
	</g>
	<g>
		<path class="st0" d="M-180,138.5c1.6,1.1,4.5,2.7,8.5,2.7c0.9,0,1.8-0.1,2.7-0.2c0.5,4.1,1.1,11,0.6,14.1
			c-0.8,1.4-4.9,7.6-11.8,10.9c-6.9-3.3-11-9.5-11.8-10.9c-0.5-3.2,0.1-10,0.6-14.1c0.9,0.2,1.8,0.2,2.7,0.2
			C-184.6,141.2-181.6,139.7-180,138.5 M-180,136c0,0-3.2,3.3-8.5,3.3c-1.3,0-2.8-0.2-4.4-0.7c0,0-1.8,12.6-0.8,17.3
			c0,0,4.7,8.5,13.7,12.4c9-3.9,13.7-12.4,13.7-12.4c0.9-4.7-0.8-17.3-0.8-17.3c-1.6,0.5-3.1,0.7-4.4,0.7
			C-176.9,139.2-180,136-180,136L-180,136z"/>
	</g>
	<polyline class="st2" points="-261.7,154.4 -253.7,160.1 -234.4,141.7 	"/>
	<circle class="st0" cx="-112.5" cy="138.5" r="7"/>
	<path class="st0" d="M-112.5,147.5L-112.5,147.5c-3.9,0-7,3.1-7,7v3c0,3.9,3.1,7,7,7h0c3.8,0,7-3.1,7-7v-3
		C-105.5,150.6-108.6,147.5-112.5,147.5z"/>
	<circle class="st0" cx="-127.5" cy="144.5" r="5.5"/>
	<path class="st0" d="M-127.5,151.6L-127.5,151.6c-3,0-5.5,2.5-5.5,5.5v2.4c0,3,2.5,5.5,5.5,5.5h0c3,0,5.5-2.5,5.5-5.5v-2.4
		C-122,154.1-124.5,151.6-127.5,151.6z"/>
	<circle class="st0" cx="-97.5" cy="144.5" r="5.5"/>
	<path class="st0" d="M-97.5,151.6L-97.5,151.6c-3,0-5.5,2.5-5.5,5.5v2.4c0,3,2.5,5.5,5.5,5.5h0c3,0,5.5-2.5,5.5-5.5v-2.4
		C-92,154.1-94.5,151.6-97.5,151.6z"/>
	<g>
		<g>
			<path class="st3" d="M-30.6,132.4c0,0,0,4.2,0,5c-0.8,0-3.4,0-4.2,0c0-0.9,0-5,0-5h-6.3c0,0,0,4.2,0,5c-0.8,0-3.4,0-4.2,0
				c0-0.9,0-5,0-5h-6.3c0,0,0,4.2,0,5c-0.8,0-3.4,0-4.2,0c0-0.9,0-5,0-5h-6.3l0,0.5c-0.1,1-1.9,24.4,4.3,31.7
				c6.7,7.8,14.2,8.9,14.6,8.9l0.1,0l0.1,0c0.3,0,7.9-1.1,14.6-8.9c6.2-7.2,4.4-30.7,4.3-31.6l0-0.5H-30.6z"/>
		</g>
	</g>
	<g>
		<path class="st3" d="M-53.3,161.6c4.7,5.5,10.1,6.2,10.1,6.2s5.4-0.7,10.1-6.2c2.8-3.2,3.2-11.5,3.2-17h-26.5
			C-56.6,150.1-56.1,158.3-53.3,161.6z"/>
	</g>
	<polygon class="st2" points="23.2,138 4,145.9 23.2,153.5 42.6,145.7 	"/>
	<path class="st2" d="M11.6,150.4v9.1c0,0,4.3,3.5,11.3,3.4s11.5-3,11.5-3v-9.5"/>
	<line class="st4" x1="41" y1="145.9" x2="41" y2="151.1"/>
	<circle class="st0" cx="41" cy="151" r="1"/>
	<polygon class="st0" points="41,151 39.2,154 42.7,154 	"/>
	<path class="st5" d="M-260,197.4c0,0-12.1,5-1.1,20.4s23.1,16.3,25,16c1.8-0.3,7.1-6.4,7.1-6.4l-8.6-8.8l-5.9,5.3l-12.7-12.4
		l5.6-5.3L-260,197.4z"/>
	<polygon class="st5" points="-180,199.2 -176,211.5 -163.1,211.5 -173.5,219.1 -169.5,231.4 -180,223.8 -190.5,231.4 -186.5,219.1 
		-196.9,211.5 -184,211.5 	"/>
</g>
<g id="Computer_1_">
	<path class="st0" d="M-22.1,104.6l-3.9-8.8V74c0-0.6-0.4-1-1-1h-34c-0.6,0-1,0.4-1,1v21.8l-3.9,8.8c-0.1,0.3-0.1,0.7,0.1,1
		s0.5,0.5,0.8,0.5h42c0.3,0,0.7-0.2,0.8-0.5S-21.9,104.9-22.1,104.6z M-60,75h32v20h-32V75z M-63.5,104l3.1-7h32.7l3.1,7H-63.5z"/>
	<path class="st0" d="M-31,77h-26c-0.6,0-1,0.4-1,1v14c0,0.6,0.4,1,1,1h26c0.6,0,1-0.4,1-1V78C-30,77.4-30.4,77-31,77z M-32,91h-24
		V79h24V91z"/>
</g>
<g id="Wifi_1_">
	<path class="st0" d="M-111.7,106.5c-2.4,0-4.3-1.9-4.3-4.3s1.9-4.3,4.3-4.3s4.3,1.9,4.3,4.3S-109.3,106.5-111.7,106.5z
		 M-111.7,100.1c-1.1,0-2,0.9-2,2c0,1.1,0.9,2,2,2c1.1,0,2-0.9,2-2C-109.6,101-110.5,100.1-111.7,100.1z"/>
	<g>
		<path class="st0" d="M-111.7,107"/>
		<path class="st0" d="M-92.4,88.9c-0.3,0-0.7-0.2-0.9-0.5c-4.4-5.8-11-9.2-18.3-9.2s-13.9,3.3-18.3,9.2c-0.4,0.5-1.1,0.6-1.6,0.2
			c-0.5-0.4-0.6-1.1-0.2-1.6c4.8-6.4,12.1-10.1,20.1-10.1c8,0,15.3,3.7,20.1,10.1c0.4,0.5,0.3,1.2-0.2,1.6
			C-92,88.8-92.2,88.9-92.4,88.9z"/>
	</g>
	<g>
		<path class="st0" d="M-111.7,107"/>
		<path class="st0" d="M-96.6,93.1c-0.4,0-0.7-0.2-0.9-0.5c-3.2-4.7-8.5-7.5-14.1-7.5s-10.9,2.8-14.1,7.5c-0.3,0.5-1,0.6-1.6,0.3
			c-0.5-0.3-0.6-1-0.3-1.6c3.6-5.3,9.6-8.5,16-8.5c6.4,0,12.4,3.2,16,8.5c0.3,0.5,0.2,1.2-0.3,1.6C-96.2,93-96.4,93.1-96.6,93.1z"/>
	</g>
	<g>
		<path class="st0" d="M-100.3,96.7c-0.4,0-0.8-0.2-1-0.6c-2.2-3.7-6.1-6-10.4-6c-4.3,0-8.3,2.3-10.4,6c-0.3,0.5-1,0.7-1.5,0.4
			c-0.5-0.3-0.7-1-0.4-1.5c2.6-4.4,7.3-7.2,12.4-7.2c5.1,0,9.8,2.7,12.4,7.2c0.3,0.5,0.1,1.2-0.4,1.5
			C-99.9,96.7-100.1,96.7-100.3,96.7z"/>
		<path class="st0" d="M-123.1,95.6"/>
		<path class="st0" d="M-100.3,95.6"/>
	</g>
	<g>
		<path class="st0" d="M-111.7,107"/>
		<path class="st0" d="M-104,100.5c-0.5,0-0.9-0.3-1.1-0.7c-1-2.8-3.7-4.6-6.6-4.6c-2.9,0-5.6,1.9-6.6,4.6c-0.2,0.6-0.9,0.9-1.4,0.7
			c-0.6-0.2-0.9-0.9-0.7-1.4c1.3-3.6,4.8-6.1,8.7-6.1c3.9,0,7.4,2.4,8.7,6.1c0.2,0.6-0.1,1.2-0.7,1.4
			C-103.7,100.4-103.9,100.5-104,100.5z"/>
		<path class="st0" d="M-119.3,99.3"/>
		<path class="st0" d="M-111.7,107"/>
		<path class="st0" d="M-104,99.3"/>
	</g>
</g>
<g id="Credit_Card_1_">
	<path class="st0" d="M-164.6,77h-27.8c-2.4,0-4.3,1.8-4.5,4.1c-2.3,0.3-4.1,2.2-4.1,4.5v16.8c0,2.5,2.1,4.6,4.6,4.6h27.8
		c2.4,0,4.3-1.8,4.5-4.1c2.3-0.3,4.1-2.2,4.1-4.5V81.6C-160,79.1-162.1,77-164.6,77z M-166,102.4c0,1.4-1.2,2.6-2.6,2.6h-27.8
		c-1.4,0-2.6-1.2-2.6-2.6V85.6c0-1.4,1.2-2.6,2.6-2.6h27.8c1.4,0,2.6,1.2,2.6,2.6V102.4z M-162,98.4c0,1.2-0.9,2.3-2,2.5V85.6
		c0-2.5-2.1-4.6-4.6-4.6h-26.3c0.3-1.1,1.3-2,2.5-2h27.8c1.4,0,2.6,1.2,2.6,2.6V98.4z"/>
	<path class="st0" d="M-176,87"/>
	<path class="st0" d="M-196,87"/>
	<rect x="-196" y="97" class="st0" width="7" height="2"/>
	<rect x="-196" y="101" class="st0" width="10" height="2"/>
	<path class="st0" d="M-171,97c-0.8,0-1.5,0.3-2,0.8c-0.5-0.5-1.2-0.8-2-0.8c-1.7,0-3,1.3-3,3s1.3,3,3,3c0.8,0,1.5-0.3,2-0.8
		c0.5,0.5,1.2,0.8,2,0.8c1.7,0,3-1.3,3-3S-169.3,97-171,97z M-175,101c-0.6,0-1-0.4-1-1s0.4-1,1-1s1,0.4,1,1S-174.4,101-175,101z
		 M-171,101c-0.6,0-1-0.4-1-1s0.4-1,1-1s1,0.4,1,1S-170.4,101-171,101z"/>
	<path class="st0" d="M-176,89.1"/>
	<path class="st0" d="M-196,89.1"/>
	<rect x="-196" y="86" class="st0" width="20" height="3"/>
</g>
<g id="Lock_1_">
	<path class="st0" d="M-237,86.3V85c0-6.1-4.9-11-11-11s-11,4.9-11,11v1.1c-2.3,0.3-4,2.2-4,4.5v15.8c0,2.5,2.1,4.6,4.6,4.6h19.8
		c2.5,0,4.6-2.1,4.6-4.6V90.6C-234,88.6-235.3,87-237,86.3z M-257,85c0-5,4-9,9-9s9,4,9,9v1h-4v-1c0-2.8-2.2-5-5-5s-5,2.2-5,5v1h-4
		V85z M-245,86h-6v-1c0-1.7,1.3-3,3-3s3,1.3,3,3V86z M-236,106.4c0,1.4-1.2,2.6-2.6,2.6h-19.8c-1.4,0-2.6-1.2-2.6-2.6V90.6
		c0-1.4,1.2-2.6,2.6-2.6h5.4h10h4.4c1.4,0,2.6,1.2,2.6,2.6V106.4z"/>
</g>
<g id="Documents_1_">
	<path class="st0" d="M41.6,11.2l-12-10C29.5,1.1,29.2,1,29,1H11c-0.6,0-1,0.4-1,1v3H7C6.4,5,6,5.4,6,6v39c0,0.6,0.4,1,1,1h30
		c0.6,0,1-0.4,1-1v-3h3c0.6,0,1-0.4,1-1V12C42,11.7,41.9,11.4,41.6,11.2z M39.4,12H29V3.3L39.4,12z M36,44H8V7h2v34c0,0.6,0.4,1,1,1
		h25V44z M12,40V3h15v10c0,0.6,0.4,1,1,1h12v26H12z"/>
</g>
<g id="Phone_1_">
	<path class="st0" d="M-34,45h-22c-0.6,0-1-0.4-1-1V4c0-0.6,0.4-1,1-1h22c0.6,0,1,0.4,1,1v40C-33,44.6-33.4,45-34,45z M-55,43h20V5
		h-20V43z"/>
	<path class="st0" d="M-38,36h-14c-0.6,0-1-0.4-1-1V10c0-0.6,0.4-1,1-1h14c0.6,0,1,0.4,1,1v25C-37,35.6-37.4,36-38,36z M-51,34h12
		V11h-12V34z"/>
	<path class="st0" d="M-42.5,8h-5c-0.6,0-1-0.4-1-1s0.4-1,1-1h5c0.6,0,1,0.4,1,1S-41.9,8-42.5,8z"/>
	<path class="st0" d="M-45,42c-1.4,0-2.5-1.1-2.5-2.5S-46.4,37-45,37s2.5,1.1,2.5,2.5S-43.6,42-45,42z M-45,39
		c-0.3,0-0.5,0.2-0.5,0.5S-45.3,40-45,40s0.5-0.2,0.5-0.5S-44.7,39-45,39z"/>
</g>
<g id="Download_1_">
	<path class="st0" d="M-101,32h-7v-2h5v-1l0.9-0.1c3.4-0.4,7.1-3.5,7.1-7.3c0-4.1-3.1-7.3-7-7.3c-1,0-1.8,0.2-2.8,0.6l-1.1,0.5
		l-0.2-1.2c-0.8-4.2-4.5-7.2-8.7-7.2c-4.8,0-8.6,3.7-8.9,8.5l0,0.8l-0.8,0.1c-3,0.4-5.4,3.4-5.4,6.7c0,3.6,3,6.8,6.3,6.8h5.7v2h-5.7
		c-4.4,0-8.3-4.1-8.3-8.8c0-4,2.8-7.6,6.3-8.6c0.6-5.5,5.2-9.6,10.8-9.6c4.8,0,8.9,3.2,10.3,7.7c0.8-0.2,1.6-0.4,2.5-0.4
		c5.1,0,9,4.1,9,9.3c0,4.7-4,8.2-7.9,9.1V32z"/>
	<path class="st0" d="M-107.4,35.3c-0.4-0.4-1-0.4-1.4,0l-3.2,3.2V24h-2v14.6l-3.3-3.2c-0.4-0.4-1-0.4-1.4,0s-0.4,1,0,1.4l4.9,5
		c0.2,0.2,0.4,0.3,0.7,0.3s0.5-0.1,0.7-0.3l4.9-5C-107,36.4-107,35.7-107.4,35.3z"/>
</g>
<g id="Upload_1_">
	<path class="st0" d="M-169,32h-7v-2h5v-1l0.9-0.1c3.4-0.4,7.1-3.5,7.1-7.3c0-4.1-3.1-7.3-7-7.3c-1,0-1.8,0.2-2.8,0.6l-1.1,0.5
		l-0.2-1.2c-0.8-4.2-4.5-7.2-8.7-7.2c-4.8,0-8.6,3.7-8.9,8.5l0,0.8l-0.8,0.1c-3,0.4-5.4,3.4-5.4,6.7c0,3.6,3,6.8,6.3,6.8h5.7v2h-5.7
		c-4.4,0-8.3-4.1-8.3-8.8c0-4,2.8-7.6,6.3-8.6c0.6-5.5,5.2-9.6,10.8-9.6c4.8,0,8.9,3.2,10.3,7.7c0.8-0.2,1.6-0.4,2.5-0.4
		c5.1,0,9,4.1,9,9.3c0,4.7-4,8.2-7.9,9.1V32z"/>
	<path class="st0" d="M-175.4,24.2l-4.9-5c-0.4-0.4-1-0.4-1.4,0l-4.9,5c-0.4,0.4-0.4,1,0,1.4s1,0.4,1.4,0l3.3-3.2V37h2V22.4l3.2,3.2
		c0.2,0.2,0.4,0.3,0.7,0.3s0.5-0.1,0.7-0.3C-175,25.3-175,24.6-175.4,24.2z"/>
</g>
<g id="Cloud_1_">
	<path class="st0" d="M-237,32h-22.7c-4.4,0-8.3-4.1-8.3-8.8c0-4,2.8-7.6,6.3-8.6c0.6-5.5,5.2-9.6,10.8-9.6c4.8,0,8.9,3.2,10.3,7.7
		c0.8-0.2,1.6-0.4,2.5-0.4c5.1,0,9,4.1,9,9.3c0,4.7-4,8.2-7.9,9.1V32z M-250.9,7c-4.8,0-8.6,3.7-8.9,8.5l0,0.8l-0.8,0.1
		c-3,0.4-5.4,3.4-5.4,6.7c0,3.6,3,6.8,6.3,6.8h20.7v-1l0.9-0.1c3.4-0.4,7.1-3.5,7.1-7.3c0-4.1-3.1-7.3-7-7.3c-1,0-1.8,0.2-2.8,0.6
		l-1.1,0.5l-0.2-1.2C-243.1,10-246.7,7-250.9,7z"/>
</g>
<g id="Award_1_">
	<path class="st0" d="M24.1-39.4l-2.9-1.7l-3.4,0L16.1-44l-2.9-1.7l0-3.4l-1.7-2.9l1.7-2.9l0-3.4l2.9-1.7l1.7-2.9l3.4,0l2.9-1.7
		l2.9,1.7l3.4,0l1.7,2.9l2.9,1.7l0,3.4l1.7,2.9l-1.7,2.9l0,3.4L32-44.1l-1.7,2.9l-3.4,0L24.1-39.4z M21.7-43.1l2.4,1.4l2.4-1.4
		l2.7,0l1.4-2.4l2.4-1.4l0-2.7l1.4-2.4l-1.4-2.4l0-2.7l-2.4-1.4l-1.4-2.4l-2.7,0l-2.4-1.4l-2.4,1.4l-2.7,0l-1.4,2.4l-2.4,1.4l0,2.7
		l-1.4,2.4l1.4,2.4l0,2.7l2.4,1.4l1.4,2.4L21.7-43.1z"/>
	<path class="st0" d="M24-44c-1,0-2-0.2-3-0.6c-2-0.8-3.5-2.3-4.4-4.3c-0.8-2-0.9-4.1-0.1-6.1s2.3-3.5,4.3-4.4
		c2-0.8,4.1-0.9,6.1-0.1c2,0.8,3.5,2.3,4.4,4.3c0.8,2,0.9,4.1,0.1,6.1s-2.3,3.5-4.3,4.4C26.1-44.2,25.1-44,24-44z M24-58
		c-0.8,0-1.6,0.2-2.4,0.5c-1.5,0.6-2.6,1.8-3.2,3.3c-0.6,1.5-0.6,3.1,0.1,4.6c0.6,1.5,1.8,2.6,3.3,3.2c1.5,0.6,3.1,0.6,4.6-0.1
		c1.5-0.6,2.6-1.8,3.2-3.3v0c0.6-1.5,0.6-3.1-0.1-4.6c-0.6-1.5-1.8-2.6-3.3-3.2C25.5-57.9,24.8-58,24-58z"/>
	<path class="st0" d="M17.7-22l-4.6-3.6l-4.9,0.8l5.3-16.4l9.4,3L17.7-22z M13.7-27.8l3,2.4L20.4-37l-5.6-1.8l-3.7,11.4L13.7-27.8z"
		/>
	<path class="st0" d="M30-22l-5.2-16.2l9.4-3l5.3,16.4l-4.9-0.8L30-22z M27.3-37L31-25.4l3-2.4l2.6,0.4l-3.7-11.4L27.3-37z"/>
</g>
<g id="Clipboard_1_">
	<path class="st0" d="M-37-63v-2h-15v2h-8v41h31v-41H-37z M-50-63h11v1h-1v2h-9v-2h-1V-63z M-31-24h-27v-37h6v1h1v2h13v-2h1v-1h6
		V-24z"/>
	<rect x="-56" y="-54" class="st0" width="15" height="2"/>
	<rect x="-56" y="-40" class="st0" width="13" height="2"/>
	<rect x="-56" y="-47" class="st0" width="17" height="2"/>
	<rect x="-56" y="-33" class="st0" width="15" height="2"/>
</g>
<g id="Stopwatch_1_">
	<path class="st0" d="M-109-61.7V-64h1c0.6,0,1-0.4,1-1s-0.4-1-1-1h-2h-4h-2c-0.6,0-1,0.4-1,1s0.4,1,1,1h1v2.3
		c-9.6,1.5-17,9.7-17,19.7c0,11,9,20,20,20c11,0,20-9,20-20C-92-52-99.4-60.3-109-61.7z M-113-62v-2h2v2H-113z M-112-24
		c-9.9,0-18-8.1-18-18c0-9.9,8.1-18,18-18c9.9,0,18,8.1,18,18C-94-32.1-102.1-24-112-24z"/>
	<path class="st0" d="M-112-58c-8.8,0-16,7.2-16,16s7.2,16,16,16s16-7.2,16-16S-103.2-58-112-58z M-112-28c-7.7,0-14-6.3-14-14
		s6.3-14,14-14s14,6.3,14,14S-104.3-28-112-28z"/>
	<path class="st0" d="M-104.7-50.7l-6,6c-0.4-0.2-0.8-0.3-1.3-0.3c-1.3,0-2.4,0.8-2.8,2h-7.2c-0.6,0-1,0.4-1,1s0.4,1,1,1h7.2
		c0.4,1.2,1.5,2,2.8,2c1.7,0,3-1.3,3-3c0-0.5-0.1-0.9-0.3-1.3l6-6c0.4-0.4,0.4-1,0-1.4S-104.3-51.1-104.7-50.7z M-112-41
		c-0.6,0-1-0.4-1-1s0.4-1,1-1c0,0.3,0.1,0.5,0.3,0.7s0.5,0.3,0.7,0.3C-111-41.4-111.4-41-112-41z"/>
</g>
<g id="Bulb_1_">
	<g>
		<path class="st0" d="M-183.8-31.1h-1v-2.7c-1-0.8-1.7-2-1.7-3.3c0.3-2.8-2.1-6.8-3.1-8.4c-0.2-0.3-0.4-0.6-0.6-0.9l-0.5-0.7
			l0.1-0.1c-1-1.9-1.5-4-1.5-6.1c0-7.4,6-13.4,13.4-13.4s13.4,6,13.4,13.4c0,2.1-0.5,4.2-1.5,6.1l0,0.1l-0.5,0.7
			c-0.2,0.3-0.4,0.6-0.6,0.9c-1,1.5-3.3,5.5-3,8.1c0,1.2,0,3-1,4v2.1h-1c-1.1,0-3.5,0-5.9,0C-180.9-31.1-182.9-31.1-183.8-31.1z
			 M-188.4-47.5L-188.4-47.5c0.2,0.3,0.4,0.6,0.6,0.8c1.4,2.2,3.7,6.4,3.4,9.6c0,0.7,0.4,1.4,1.1,1.8l0.5,0.3v1.9c1,0,2.5,0,4,0
			c1.8,0,3.6,0,4.9,0v-1.2l0.5-0.3c0.5-0.3,0.5-1.9,0.5-2.5c-0.3-3.1,2-7.2,3.4-9.4c0.2-0.3,0.4-0.6,0.6-0.9l0.1-0.1
			c1-1.7,1.6-3.7,1.6-5.7c0-6.3-5.1-11.4-11.4-11.4S-190-59.6-190-53.3C-190-51.3-189.5-49.3-188.4-47.5L-188.4-47.5z"/>
	</g>
	<rect x="-185" y="-30" class="st0" width="13" height="2"/>
	<rect x="-185" y="-27.1" class="st0" width="13" height="2"/>
	<rect x="-182" y="-24" class="st0" width="7" height="2"/>
</g>
<g id="Trash_1_">
	<path class="st0" d="M-256-53c-0.6,0-1,0.4-1,1v22c0,0.6,0.4,1,1,1s1-0.4,1-1v-22C-255-52.6-255.4-53-256-53z"/>
	<path class="st0" d="M-248-53c-0.6,0-1,0.4-1,1v22c0,0.6,0.4,1,1,1s1-0.4,1-1v-22C-247-52.6-247.4-53-248-53z"/>
	<path class="st0" d="M-240-29c0.6,0,1-0.4,1-1v-22c0-0.6-0.4-1-1-1s-1,0.4-1,1v22C-241-29.4-240.6-29-240-29z"/>
	<path class="st0" d="M-232-57h-3h-8v-3c0-0.6-0.4-1-1-1h-8c-0.6,0-1,0.4-1,1v3h-8h-3c-0.6,0-1,0.4-1,1s0.4,1,1,1h2v29
		c0,0.6,0.4,1,1,1h26c0.6,0,1-0.4,1-1v-29h2c0.6,0,1-0.4,1-1S-231.4-57-232-57z M-251-59h6v2h-6V-59z M-236-27h-24v-28h8h8h8V-27z"
		/>
</g>
<g id="Bolt_1_">
	<path class="st0" d="M17-90c-0.1,0-0.2,0-0.3-0.1c-0.4-0.2-0.7-0.6-0.6-1.1l2.8-19.9H14c-0.3,0-0.6-0.2-0.8-0.4
		c-0.2-0.3-0.2-0.6-0.1-0.9l7-22c0.1-0.4,0.5-0.7,1-0.7h15c0.3,0,0.7,0.2,0.8,0.5c0.2,0.3,0.2,0.7,0.1,1L30.6-120H35
		c0.4,0,0.7,0.2,0.9,0.5c0.2,0.3,0.2,0.7,0,1l-18,28C17.7-90.2,17.3-90,17-90z M15.4-113H20c0.3,0,0.6,0.1,0.8,0.3
		c0.2,0.2,0.3,0.5,0.2,0.8l-2.4,16.5L33.2-118H29c-0.3,0-0.7-0.2-0.8-0.5c-0.2-0.3-0.2-0.7-0.1-1l6.3-13.6H21.7L15.4-113z"/>
</g>
<g id="Magnifying_Glass_1_">
	<path class="st0" d="M-30.6-126.1c-2.1-2.1-4.9-3.2-7.8-3.2c-2.9,0-5.7,1.1-7.8,3.2c-4.3,4.3-4.3,11.3,0,15.6
		c2.1,2.1,4.9,3.2,7.8,3.2c2.9,0,5.7-1.1,7.8-3.2C-26.3-114.8-26.3-121.8-30.6-126.1z M-32-111.9c-1.7,1.7-4,2.6-6.4,2.6
		c-2.4,0-4.7-0.9-6.4-2.6c-3.5-3.5-3.5-9.3,0-12.8c1.7-1.7,4-2.6,6.4-2.6c2.4,0,4.7,0.9,6.4,2.6C-28.5-121.2-28.5-115.5-32-111.9z"
		/>
	<path class="st0" d="M-27.4-129.3c-6-6-15.9-6-21.9,0c-4.7,4.7-5.7,11.6-3.1,17.3c0,0,0,0,0,0l-13.4,13.4c-0.2,0.2-0.3,0.4-0.3,0.7
		s0.1,0.5,0.3,0.7l6.3,6.3c0.2,0.2,0.5,0.3,0.7,0.3s0.5-0.1,0.7-0.3l13.4-13.4c0,0,0,0,0,0c2,0.9,4.1,1.4,6.4,1.4
		c4.1,0,8-1.6,11-4.5c2.9-2.9,4.5-6.8,4.5-11S-24.5-126.4-27.4-129.3z M-46.9-104.9l-12,12l-4.9-4.9l12-12l2.4,2.4c0,0,0,0,0,0
		c0,0,0,0,0,0L-46.9-104.9z M-28.8-108.8c-2.5,2.5-5.9,4-9.5,4c-3.6,0-7-1.4-9.5-4l0,0c-5.3-5.3-5.3-13.8,0-19.1
		c2.6-2.6,6.1-3.9,9.5-3.9c3.5,0,6.9,1.3,9.5,3.9c2.5,2.5,4,5.9,4,9.5S-26.3-111.3-28.8-108.8z"/>
</g>
<g id="Pencil_1_">
	<path class="st0" d="M-89.6-125.2l-8.6-8.6c-0.4-0.4-1-0.4-1.4,0l-31.8,31.8c-0.1,0.1-0.2,0.3-0.3,0.4l-2.7,10.8
		c-0.1,0.3,0,0.7,0.2,0.9c0.2,0.2,0.4,0.3,0.7,0.3c0.1,0,0.1,0,0.2,0l11.3-2.3c0.2,0,0.4-0.1,0.5-0.3l31.8-31.8
		C-89.3-124.2-89.3-124.8-89.6-125.2z M-104.7-125.7l7.1,7.1l-1.6,1.6l-7.1-7.1c0,0-0.1-0.1-0.1-0.1l1.6-1.6
		C-104.7-125.8-104.7-125.8-104.7-125.7z M-131-96.1l3.5,3.5l-4.7,0.9L-131-96.1z M-122.6-93.5l-2.8,0.6c0-0.2-0.1-0.3-0.2-0.5
		l-4.5-4.5c-0.1-0.1-0.2-0.2-0.3-0.2l0.6-2.6l22.2-22.2c0,0,0,0.1,0.1,0.1l7.1,7.1L-122.6-93.5z M-96.2-120l-7.1-7.1
		c0,0-0.1-0.1-0.1-0.1l4.5-4.5l7.2,7.2L-96.2-120z"/>
</g>
<g id="Chart_Up">
	<path class="st0" d="M-166.8-120.3l1.5-6.8c0.1-0.5-0.2-1.1-0.8-1.2l-6.8-1.5c-0.5-0.1-1.1,0.2-1.2,0.8c-0.1,0.5,0.2,1.1,0.8,1.2
		l4.5,1l-29.3,18.9l1.1,1.7l29.3-18.9l-1,4.5c-0.1,0.3,0,0.5,0.1,0.7s0.4,0.4,0.6,0.4C-167.5-119.4-166.9-119.7-166.8-120.3z"/>
	<path class="st0" d="M-159-126c-0.6,0-1,0.4-1,1v29h-2v-20c0-0.6-0.4-1-1-1h-6c-0.6,0-1,0.4-1,1v20h-2v-15c0-0.6-0.4-1-1-1h-6
		c-0.6,0-1,0.4-1,1v15h-2v-10c0-0.6-0.4-1-1-1h-6c-0.6,0-1,0.4-1,1v10h-2v-5c0-0.6-0.4-1-1-1h-6c-0.6,0-1,0.4-1,1v5h-1
		c-0.6,0-1,0.4-1,1s0.4,1,1,1h2h6h4h6h4h6h4h6h5v-31C-158-125.6-158.4-126-159-126z M-198-96v-4h4v4H-198z M-188-96v-9h4v9H-188z
		 M-178-96v-14h4v14H-178z M-168-96v-19h4v19H-168z"/>
	<text transform="matrix(1 0 0 1 22.0186 29.1289)" class="st0 st6 st7">$</text>
</g>
<g id="Graph_2_">
	<path class="st0" d="M-227-126c-0.6,0-1,0.4-1,1v29h-2v-27c0-0.6-0.4-1-1-1h-6c-0.6,0-1,0.4-1,1v27h-2v-18c0-0.6-0.4-1-1-1h-6
		c-0.6,0-1,0.4-1,1v18h-2v-21c0-0.6-0.4-1-1-1h-6c-0.6,0-1,0.4-1,1v21h-2v-16c0-0.6-0.4-1-1-1h-6c-0.6,0-1,0.4-1,1v16h-1
		c-0.6,0-1,0.4-1,1s0.4,1,1,1h2h6h4h6h4h6h4h6h5v-31C-226-125.6-226.4-126-227-126z M-266-96v-15h4v15H-266z M-256-96v-20h4v20H-256
		z M-246-96v-17h4v17H-246z M-236-96v-26h4v26H-236z"/>
</g>
<g id="Mail_1_">
	<path class="st0" d="M47-195c0-0.5-0.4-1-1-1H2c-0.5,0-1,0.4-1,1v31.1c0,0.5,0.4,1,1,1H46c0.5,0,1-0.4,1-1V-195z M43.7-194
		l-19.5,18.9L4.6-194H43.7z M3-165v-27.4l20.4,19.6c0.2,0.2,0.5,0.3,0.7,0.3c0.2,0,0.5-0.1,0.7-0.3L45-192.4v27.4H3z"/>
</g>
<g id="Pin_1_">
	<path class="st0" d="M-44.4-157.8c-0.3,0-0.6-0.2-0.8-0.4c-0.6-0.9-14-21.2-14-29.1c0-8.2,6.6-14.8,14.8-14.8s14.8,6.6,14.8,14.8
		c0,7.8-13.4,28.2-14,29.1C-43.7-158-44.1-157.8-44.4-157.8z M-44.4-200.2c-7.1,0-12.8,5.7-12.8,12.8c0,6.2,9.8,22,12.8,26.7
		c3-4.6,12.8-20.5,12.8-26.7C-31.6-194.4-37.3-200.2-44.4-200.2z"/>
	<path class="st0" d="M-44.4-180.9c-3.6,0-6.5-2.9-6.5-6.5s2.9-6.5,6.5-6.5s6.5,2.9,6.5,6.5S-40.8-180.9-44.4-180.9z M-44.4-191.9
		c-2.5,0-4.5,2-4.5,4.5s2,4.5,4.5,4.5c2.5,0,4.5-2,4.5-4.5S-41.9-191.9-44.4-191.9z"/>
</g>
<g id="House_1_">
	<path class="st0" d="M-89.6-187.9l-22-11c-0.3-0.1-0.6-0.1-0.9,0l-22,11c-0.5,0.2-0.7,0.8-0.4,1.3c0.2,0.5,0.8,0.7,1.3,0.4l4.6-2.3
		v28.4c0,0.6,0.4,1,1,1h11h10h11c0.6,0,1-0.4,1-1v-28.4l4.6,2.3c0.1,0.1,0.3,0.1,0.4,0.1c0.4,0,0.7-0.2,0.9-0.6
		C-88.9-187-89.1-187.6-89.6-187.9z M-116-161v-16h8v16H-116z M-97-161h-9v-16.9c0-0.6-0.4-1.1-1-1.1h-10c-0.6,0-1,0.5-1,1.1v16.9
		h-9v-28.4l15-7.5l15,7.5V-161z"/>
</g>
<g id="Money_1_">
	<rect x="-193" y="-170" class="st0" width="5" height="2"/>
	<rect x="-197" y="-177" class="st0" width="5" height="2"/>
	<rect x="-171" y="-193" class="st0" width="5" height="2"/>
	<path class="st0" d="M-162-190v-7h-40v26h4v7h40v-26H-162z M-200-173v-22h36v5v17h-34H-200z M-160-166h-36v-5h34v-12h1v-2h-1v-3h2
		V-166z"/>
	<path class="st0" d="M-180.6-178h-2.8c-2.5,0-4.6-2.1-4.6-4.6v-2.8c0-2.5,2.1-4.6,4.6-4.6h2.8c2.5,0,4.6,2.1,4.6,4.6v2.8
		C-176-180.1-178.1-178-180.6-178z M-183.4-188c-1.4,0-2.6,1.2-2.6,2.6v2.8c0,1.4,1.2,2.6,2.6,2.6h2.8c1.4,0,2.6-1.2,2.6-2.6v-2.8
		c0-1.4-1.2-2.6-2.6-2.6H-183.4z"/>
</g>
<g id="Shopping_Cart">
	<path class="st0" d="M-257.5-159.9c-1.8,0-3.3-1.5-3.3-3.3s1.5-3.3,3.3-3.3s3.3,1.5,3.3,3.3S-255.7-159.9-257.5-159.9z
		 M-257.5-164.5c-0.7,0-1.3,0.6-1.3,1.3c0,0.7,0.6,1.3,1.3,1.3c0.7,0,1.3-0.6,1.3-1.3C-256.2-163.9-256.8-164.5-257.5-164.5z"/>
	<path class="st0" d="M-236.5-159.9c-1.8,0-3.3-1.5-3.3-3.3s1.5-3.3,3.3-3.3s3.3,1.5,3.3,3.3S-234.6-159.9-236.5-159.9z
		 M-236.5-164.5c-0.7,0-1.3,0.6-1.3,1.3c0,0.7,0.6,1.3,1.3,1.3s1.3-0.6,1.3-1.3C-235.2-163.9-235.7-164.5-236.5-164.5z"/>
	<path class="st0" d="M-226-198h-7c-0.6,0-1,0.4-1,1v4h-35c-0.3,0-0.6,0.1-0.8,0.4s-0.3,0.5-0.2,0.8l3.8,19c0.1,0.5,0.5,0.8,1,0.8
		h31.2v3h-28c-0.6,0-1,0.4-1,1s0.4,1,1,1h29c0.6,0,1-0.4,1-1v-28h6c0.6,0,1-0.4,1-1S-225.4-198-226-198z M-264.4-174l-3.4-17h33.8
		v17H-264.4z"/>
</g>
</svg>
