<?xml version="1.0" encoding="utf-8"?>
<!-- Generator: Adobe Illustrator 21.0.2, SVG Export Plug-In . SVG Version: 6.00 Build 0)  -->
<svg version="1.1" xmlns="http://www.w3.org/2000/svg" xmlns:xlink="http://www.w3.org/1999/xlink" x="0px" y="0px"
	 viewBox="0 0 48 48" style="enable-background:new 0 0 48 48;" xml:space="preserve">
<style type="text/css">
	.st0{fill:#6B6B6B;}
	.st1{fill:none;stroke:#6B6B6B;}
	.st2{fill:none;stroke:#6B6B6B;stroke-width:3;stroke-linecap:round;stroke-linejoin:round;stroke-miterlimit:10;}
</style>
<g id="Monitor_1_">
	<path class="st0" d="M178.4-55h-34.8c-2.5,0-4.6,2.1-4.6,4.6v21.8c0,2.5,2.1,4.6,4.6,4.6H154v4h-1.8c-0.6,0-1,0.4-1,1s0.4,1,1,1
		H170c0.6,0,1-0.4,1-1s-0.4-1-1-1h-2v-4h10.4c2.5,0,4.6-2.1,4.6-4.6v-21.8C183-52.9,180.9-55,178.4-55z M166-24v4h-10v-4H166z
		 M141-50.4c0-1.4,1.2-2.6,2.6-2.6h34.8c1.4,0,2.6,1.2,2.6,2.6V-31c0,0-0.1,0-0.1,0H141V-50.4z M178.4-26h-34.8
		c-1.4,0-2.6-1.2-2.6-2.6V-29h39.9c0,0,0.1,0,0.1,0v0.4C181-27.2,179.8-26,178.4-26z"/>
	<g>
		<path class="st1" d="M-43.4,3.6c-0.1,0.1-6.1,6.1-15.6,3.1l-0.6-0.2l-0.1,0.6c-0.1,0.6-2.2,15.9-1,21.8l0,0.1l0,0.1
			c0.1,0.1,6.1,10.8,17.4,15.7l0.2,0.1l0.2-0.1c11.3-4.9,17.3-15.6,17.4-15.7l0-0.1l0-0.1c0.5-2.5,0.5-6.9-0.1-13.2
			c-0.2-2.4-0.5-4.6-0.6-6.1l-0.2-1.9c-0.1-1-0.1-1-0.4-1.1l-0.2-0.1L-27,6.7c-9.6,3-15.6-3-15.6-3.1L-43,3.2L-43.4,3.6z"/>
	</g>
	<g>
		<path class="st0" d="M-43,5.3C-41.5,6.5-37.8,9-32.4,9c1.5,0,3.1-0.2,4.6-0.6c0.5,3.7,1.8,15.1,0.9,20
			c-0.7,1.2-6.3,10.3-16.2,14.7c-9.9-4.4-15.5-13.5-16.2-14.7c-0.9-4.9,0.4-16.3,0.9-20c1.6,0.4,3.1,0.6,4.6,0.6
			C-48.2,9-44.5,6.5-43,5.3 M-43,3.9c0,0-3.9,4.1-10.6,4.1c-1.7,0-3.5-0.3-5.5-0.9c0,0-2.2,15.7-1,21.6c0,0,5.9,10.6,17.2,15.5
			c11.3-4.8,17.2-15.5,17.2-15.5c1.2-5.9-1-21.6-1-21.6c-2,0.6-3.8,0.9-5.5,0.9C-39.1,8-43,3.9-43,3.9L-43,3.9z"/>
	</g>
	<g>
		<path class="st0" d="M-43,10.5c1.6,1.1,4.5,2.7,8.5,2.7c0.9,0,1.8-0.1,2.7-0.2c0.5,4.1,1.1,11,0.6,14.1C-32,28.5-36.1,34.7-43,38
			c-6.9-3.3-11-9.5-11.8-10.9c-0.5-3.2,0.1-10,0.6-14.1c0.9,0.2,1.8,0.2,2.7,0.2C-47.6,13.2-44.6,11.7-43,10.5 M-43,8
			c0,0-3.2,3.3-8.5,3.3c-1.3,0-2.8-0.2-4.4-0.7c0,0-1.8,12.6-0.8,17.3c0,0,4.7,8.5,13.7,12.4c9-3.9,13.7-12.4,13.7-12.4
			c0.9-4.7-0.8-17.3-0.8-17.3c-1.6,0.5-3.1,0.7-4.4,0.7C-39.9,11.2-43,8-43,8L-43,8z"/>
	</g>
	<polyline class="st2" points="-124.7,26.4 -116.7,32.1 -97.4,13.7 	"/>
	<circle class="st0" cx="24.5" cy="10.5" r="7"/>
	<path class="st0" d="M24.5,19.5L24.5,19.5c-3.9,0-7,3.1-7,7v3c0,3.8,3.1,7,7,7h0c3.8,0,7-3.1,7-7v-3C31.5,22.6,28.4,19.5,24.5,19.5
		z"/>
	<circle class="st0" cx="9.5" cy="16.5" r="5.5"/>
	<path class="st0" d="M9.5,23.6L9.5,23.6c-3,0-5.5,2.5-5.5,5.5v2.4c0,3,2.5,5.5,5.5,5.5h0c3,0,5.5-2.5,5.5-5.5v-2.4
		C15,26.1,12.5,23.6,9.5,23.6z"/>
	<circle class="st0" cx="39.5" cy="16.5" r="5.5"/>
	<path class="st0" d="M39.5,23.6L39.5,23.6c-3,0-5.5,2.5-5.5,5.5v2.4c0,3,2.5,5.5,5.5,5.5h0c3,0,5.5-2.5,5.5-5.5v-2.4
		C45,26.1,42.5,23.6,39.5,23.6z"/>
</g>
<g id="Computer_1_">
	<path class="st0" d="M114.9-23.4l-3.9-8.8V-54c0-0.6-0.4-1-1-1H76c-0.6,0-1,0.4-1,1v21.8l-3.9,8.8c-0.1,0.3-0.1,0.7,0.1,1
		S71.7-22,72-22h42c0.3,0,0.7-0.2,0.8-0.5S115.1-23.1,114.9-23.4z M77-53h32v20H77V-53z M73.5-24l3.1-7h32.7l3.1,7H73.5z"/>
	<path class="st0" d="M106-51H80c-0.6,0-1,0.4-1,1v14c0,0.6,0.4,1,1,1h26c0.6,0,1-0.4,1-1v-14C107-50.6,106.6-51,106-51z M105-37H81
		v-12h24V-37z"/>
</g>
<g id="Wifi_1_">
	<path class="st0" d="M25.3-21.5c-2.4,0-4.3-1.9-4.3-4.3s1.9-4.3,4.3-4.3s4.3,1.9,4.3,4.3S27.7-21.5,25.3-21.5z M25.3-27.9
		c-1.1,0-2,0.9-2,2c0,1.1,0.9,2,2,2c1.1,0,2-0.9,2-2C27.4-27,26.5-27.9,25.3-27.9z"/>
	<g>
		<path class="st0" d="M25.3-21"/>
		<path class="st0" d="M44.6-39.1c-0.3,0-0.7-0.2-0.9-0.5c-4.4-5.8-11-9.2-18.3-9.2S11.4-45.4,7-39.5C6.7-39,6-38.9,5.5-39.3
			c-0.5-0.4-0.6-1.1-0.2-1.6C10-47.3,17.4-51,25.3-51c8,0,15.3,3.7,20.1,10.1c0.4,0.5,0.3,1.2-0.2,1.6C45-39.2,44.8-39.1,44.6-39.1z
			"/>
	</g>
	<g>
		<path class="st0" d="M25.3-21"/>
		<path class="st0" d="M40.4-34.9c-0.4,0-0.7-0.2-0.9-0.5c-3.2-4.7-8.5-7.5-14.1-7.5s-10.9,2.8-14.1,7.5c-0.3,0.5-1,0.6-1.6,0.3
			c-0.5-0.3-0.6-1-0.3-1.6c3.6-5.3,9.6-8.5,16-8.5c6.4,0,12.4,3.2,16,8.5c0.3,0.5,0.2,1.2-0.3,1.6C40.8-35,40.6-34.9,40.4-34.9z"/>
	</g>
	<g>
		<path class="st0" d="M36.7-31.3c-0.4,0-0.8-0.2-1-0.6c-2.2-3.7-6.1-6-10.4-6c-4.3,0-8.3,2.3-10.4,6c-0.3,0.5-1,0.7-1.5,0.4
			c-0.5-0.3-0.7-1-0.4-1.5c2.6-4.4,7.3-7.2,12.4-7.2c5.1,0,9.8,2.7,12.4,7.2c0.3,0.5,0.1,1.2-0.4,1.5C37.1-31.3,36.9-31.3,36.7-31.3
			z"/>
		<path class="st0" d="M13.9-32.4"/>
		<path class="st0" d="M36.7-32.4"/>
	</g>
	<g>
		<path class="st0" d="M25.3-21"/>
		<path class="st0" d="M33-27.5c-0.5,0-0.9-0.3-1.1-0.7c-1-2.8-3.7-4.6-6.6-4.6c-2.9,0-5.6,1.9-6.6,4.6c-0.2,0.6-0.9,0.9-1.4,0.7
			c-0.6-0.2-0.9-0.9-0.7-1.4c1.3-3.6,4.8-6.1,8.7-6.1c3.9,0,7.4,2.4,8.7,6.1c0.2,0.6-0.1,1.2-0.7,1.4C33.3-27.6,33.1-27.5,33-27.5z"
			/>
		<path class="st0" d="M17.7-28.7"/>
		<path class="st0" d="M25.3-21"/>
		<path class="st0" d="M33-28.7"/>
	</g>
</g>
<g id="Credit_Card_1_">
	<path class="st0" d="M-27.6-51h-27.8c-2.4,0-4.3,1.8-4.5,4.1c-2.3,0.3-4.1,2.2-4.1,4.5v16.8c0,2.5,2.1,4.6,4.6,4.6h27.8
		c2.4,0,4.3-1.8,4.5-4.1c2.3-0.3,4.1-2.2,4.1-4.5v-16.8C-23-48.9-25.1-51-27.6-51z M-29-25.6c0,1.4-1.2,2.6-2.6,2.6h-27.8
		c-1.4,0-2.6-1.2-2.6-2.6v-16.8c0-1.4,1.2-2.6,2.6-2.6h27.8c1.4,0,2.6,1.2,2.6,2.6V-25.6z M-25-29.6c0,1.2-0.9,2.3-2,2.5v-15.3
		c0-2.5-2.1-4.6-4.6-4.6h-26.3c0.3-1.1,1.3-2,2.5-2h27.8c1.4,0,2.6,1.2,2.6,2.6V-29.6z"/>
	<path class="st0" d="M-39-41"/>
	<path class="st0" d="M-59-41"/>
	<rect x="-59" y="-31" class="st0" width="7" height="2"/>
	<rect x="-59" y="-27" class="st0" width="10" height="2"/>
	<path class="st0" d="M-34-31c-0.8,0-1.5,0.3-2,0.8c-0.5-0.5-1.2-0.8-2-0.8c-1.7,0-3,1.3-3,3s1.3,3,3,3c0.8,0,1.5-0.3,2-0.8
		c0.5,0.5,1.2,0.8,2,0.8c1.7,0,3-1.3,3-3S-32.3-31-34-31z M-38-27c-0.6,0-1-0.4-1-1s0.4-1,1-1s1,0.4,1,1S-37.4-27-38-27z M-34-27
		c-0.6,0-1-0.4-1-1s0.4-1,1-1s1,0.4,1,1S-33.4-27-34-27z"/>
	<path class="st0" d="M-39-38.9"/>
	<path class="st0" d="M-59-38.9"/>
	<rect x="-59" y="-42" class="st0" width="20" height="3"/>
</g>
<g id="Lock_1_">
	<path class="st0" d="M-100-41.7V-43c0-6.1-4.9-11-11-11s-11,4.9-11,11v1.1c-2.3,0.3-4,2.2-4,4.5v15.8c0,2.5,2.1,4.6,4.6,4.6h19.8
		c2.5,0,4.6-2.1,4.6-4.6v-15.8C-97-39.4-98.3-41-100-41.7z M-120-43c0-5,4-9,9-9s9,4,9,9v1h-4v-1c0-2.8-2.2-5-5-5s-5,2.2-5,5v1h-4
		V-43z M-108-42h-6v-1c0-1.7,1.3-3,3-3s3,1.3,3,3V-42z M-99-21.6c0,1.4-1.2,2.6-2.6,2.6h-19.8c-1.4,0-2.6-1.2-2.6-2.6v-15.8
		c0-1.4,1.2-2.6,2.6-2.6h5.4h10h4.4c1.4,0,2.6,1.2,2.6,2.6V-21.6z"/>
</g>
<g id="Documents_1_">
	<path class="st0" d="M178.6-116.8l-12-10c-0.2-0.1-0.4-0.2-0.6-0.2h-18c-0.6,0-1,0.4-1,1v3h-3c-0.6,0-1,0.4-1,1v39c0,0.6,0.4,1,1,1
		h30c0.6,0,1-0.4,1-1v-3h3c0.6,0,1-0.4,1-1v-29C179-116.3,178.9-116.6,178.6-116.8z M176.4-116H166v-8.7L176.4-116z M173-84h-28v-37
		h2v34c0,0.6,0.4,1,1,1h25V-84z M149-88v-37h15v10c0,0.6,0.4,1,1,1h12v26H149z"/>
</g>
<g id="Phone_1_">
	<path class="st0" d="M103-83H81c-0.6,0-1-0.4-1-1v-40c0-0.6,0.4-1,1-1h22c0.6,0,1,0.4,1,1v40C104-83.4,103.6-83,103-83z M82-85h20
		v-38H82V-85z"/>
	<path class="st0" d="M99-92H85c-0.6,0-1-0.4-1-1v-25c0-0.6,0.4-1,1-1h14c0.6,0,1,0.4,1,1v25C100-92.4,99.6-92,99-92z M86-94h12v-23
		H86V-94z"/>
	<path class="st0" d="M94.5-120h-5c-0.6,0-1-0.4-1-1s0.4-1,1-1h5c0.6,0,1,0.4,1,1S95.1-120,94.5-120z"/>
	<path class="st0" d="M92-86c-1.4,0-2.5-1.1-2.5-2.5S90.6-91,92-91s2.5,1.1,2.5,2.5S93.4-86,92-86z M92-89c-0.3,0-0.5,0.2-0.5,0.5
		S91.7-88,92-88s0.5-0.2,0.5-0.5S92.3-89,92-89z"/>
</g>
<g id="Download_1_">
	<path class="st0" d="M36-96h-7v-2h5v-1l0.9-0.1c3.4-0.4,7.1-3.5,7.1-7.3c0-4.1-3.1-7.3-7-7.3c-1,0-1.8,0.2-2.8,0.6l-1.1,0.5
		l-0.2-1.2c-0.8-4.2-4.5-7.2-8.7-7.2c-4.8,0-8.6,3.7-8.9,8.5l0,0.8l-0.8,0.1c-3,0.4-5.4,3.4-5.4,6.7c0,3.6,3,6.8,6.3,6.8H19v2h-5.7
		c-4.4,0-8.3-4.1-8.3-8.8c0-4,2.8-7.6,6.3-8.6c0.6-5.5,5.2-9.6,10.8-9.6c4.8,0,8.9,3.2,10.3,7.7c0.8-0.2,1.6-0.4,2.5-0.4
		c5.1,0,9,4.1,9,9.3c0,4.7-4,8.2-7.9,9.1V-96z"/>
	<path class="st0" d="M29.6-92.7c-0.4-0.4-1-0.4-1.4,0L25-89.4V-104h-2v14.6l-3.3-3.2c-0.4-0.4-1-0.4-1.4,0s-0.4,1,0,1.4l4.9,5
		c0.2,0.2,0.4,0.3,0.7,0.3s0.5-0.1,0.7-0.3l4.9-5C30-91.6,30-92.3,29.6-92.7z"/>
</g>
<g id="Upload_1_">
	<path class="st0" d="M-32-96h-7v-2h5v-1l0.9-0.1c3.4-0.4,7.1-3.5,7.1-7.3c0-4.1-3.1-7.3-7-7.3c-1,0-1.8,0.2-2.8,0.6l-1.1,0.5
		l-0.2-1.2c-0.8-4.2-4.5-7.2-8.7-7.2c-4.8,0-8.6,3.7-8.9,8.5l0,0.8l-0.8,0.1c-3,0.4-5.4,3.4-5.4,6.7c0,3.6,3,6.8,6.3,6.8h5.7v2h-5.7
		c-4.4,0-8.3-4.1-8.3-8.8c0-4,2.8-7.6,6.3-8.6c0.6-5.5,5.2-9.6,10.8-9.6c4.8,0,8.9,3.2,10.3,7.7c0.8-0.2,1.6-0.4,2.5-0.4
		c5.1,0,9,4.1,9,9.3c0,4.7-4,8.2-7.9,9.1V-96z"/>
	<path class="st0" d="M-38.4-103.8l-4.9-5c-0.4-0.4-1-0.4-1.4,0l-4.9,5c-0.4,0.4-0.4,1,0,1.4s1,0.4,1.4,0l3.3-3.2V-91h2v-14.6
		l3.2,3.2c0.2,0.2,0.4,0.3,0.7,0.3s0.5-0.1,0.7-0.3C-38-102.7-38-103.4-38.4-103.8z"/>
</g>
<g id="Cloud_1_">
	<path class="st0" d="M-100-96h-22.7c-4.4,0-8.3-4.1-8.3-8.8c0-4,2.8-7.6,6.3-8.6c0.6-5.5,5.2-9.6,10.8-9.6c4.8,0,8.9,3.2,10.3,7.7
		c0.8-0.2,1.6-0.4,2.5-0.4c5.1,0,9,4.1,9,9.3c0,4.7-4,8.2-7.9,9.1V-96z M-113.9-121c-4.8,0-8.6,3.7-8.9,8.5l0,0.8l-0.8,0.1
		c-3,0.4-5.4,3.4-5.4,6.7c0,3.6,3,6.8,6.3,6.8h20.7v-1l0.9-0.1c3.4-0.4,7.1-3.5,7.1-7.3c0-4.1-3.1-7.3-7-7.3c-1,0-1.8,0.2-2.8,0.6
		l-1.1,0.5l-0.2-1.2C-106.1-118-109.7-121-113.9-121z"/>
</g>
<g id="Award_1_">
	<path class="st0" d="M161.1-167.4l-2.9-1.7l-3.4,0l-1.7-2.9l-2.9-1.7l0-3.4l-1.7-2.9l1.7-2.9l0-3.4l2.9-1.7l1.7-2.9l3.4,0l2.9-1.7
		l2.9,1.7l3.4,0l1.7,2.9l2.9,1.7l0,3.4l1.7,2.9l-1.7,2.9l0,3.4l-2.9,1.7l-1.7,2.9l-3.4,0L161.1-167.4z M158.7-171.1l2.4,1.4l2.4-1.4
		l2.7,0l1.4-2.4l2.4-1.4l0-2.7l1.4-2.4l-1.4-2.4l0-2.7l-2.4-1.4l-1.4-2.4l-2.7,0l-2.4-1.4l-2.4,1.4l-2.7,0l-1.4,2.4l-2.4,1.4l0,2.7
		l-1.4,2.4l1.4,2.4l0,2.7l2.4,1.4l1.4,2.4L158.7-171.1z"/>
	<path class="st0" d="M161-172c-1,0-2-0.2-3-0.6c-2-0.8-3.5-2.3-4.4-4.3c-0.8-2-0.9-4.1-0.1-6.1s2.3-3.5,4.3-4.4
		c2-0.8,4.1-0.9,6.1-0.1c2,0.8,3.5,2.3,4.4,4.3c0.8,2,0.9,4.1,0.1,6.1s-2.3,3.5-4.3,4.4C163.1-172.2,162.1-172,161-172z M161-186
		c-0.8,0-1.6,0.2-2.4,0.5c-1.5,0.6-2.6,1.8-3.2,3.3c-0.6,1.5-0.6,3.1,0.1,4.6c0.6,1.5,1.8,2.6,3.3,3.2c1.5,0.6,3.1,0.6,4.6-0.1
		c1.5-0.6,2.6-1.8,3.2-3.3v0c0.6-1.5,0.6-3.1-0.1-4.6c-0.6-1.5-1.8-2.6-3.3-3.2C162.5-185.9,161.8-186,161-186z"/>
	<path class="st0" d="M154.7-150l-4.6-3.6l-4.9,0.8l5.3-16.4l9.4,3L154.7-150z M150.7-155.8l3,2.4l3.7-11.5l-5.6-1.8l-3.7,11.4
		L150.7-155.8z"/>
	<path class="st0" d="M167-150l-5.2-16.2l9.4-3l5.3,16.4l-4.9-0.8L167-150z M164.3-165l3.7,11.5l3-2.4l2.6,0.4l-3.7-11.4L164.3-165z
		"/>
</g>
<g id="Clipboard_1_">
	<path class="st0" d="M100-191v-2H85v2h-8v41h31v-41H100z M87-191h11v1h-1v2h-9v-2h-1V-191z M106-152H79v-37h6v1h1v2h13v-2h1v-1h6
		V-152z"/>
	<rect x="81" y="-182" class="st0" width="15" height="2"/>
	<rect x="81" y="-168" class="st0" width="13" height="2"/>
	<rect x="81" y="-175" class="st0" width="17" height="2"/>
	<rect x="81" y="-161" class="st0" width="15" height="2"/>
</g>
<g id="Stopwatch_1_">
	<path class="st0" d="M28-189.7v-2.3h1c0.6,0,1-0.4,1-1s-0.4-1-1-1h-2h-4h-2c-0.6,0-1,0.4-1,1s0.4,1,1,1h1v2.3
		C12.4-188.3,5-180,5-170c0,11,9,20,20,20c11,0,20-9,20-20C45-180,37.6-188.3,28-189.7z M24-190v-2h2v2H24z M25-152
		c-9.9,0-18-8.1-18-18c0-9.9,8.1-18,18-18c9.9,0,18,8.1,18,18C43-160.1,34.9-152,25-152z"/>
	<path class="st0" d="M25-186c-8.8,0-16,7.2-16,16s7.2,16,16,16s16-7.2,16-16S33.8-186,25-186z M25-156c-7.7,0-14-6.3-14-14
		s6.3-14,14-14s14,6.3,14,14S32.7-156,25-156z"/>
	<path class="st0" d="M32.3-178.7l-6,6c-0.4-0.2-0.8-0.3-1.3-0.3c-1.3,0-2.4,0.8-2.8,2H15c-0.6,0-1,0.4-1,1s0.4,1,1,1h7.2
		c0.4,1.2,1.5,2,2.8,2c1.7,0,3-1.3,3-3c0-0.5-0.1-0.9-0.3-1.3l6-6c0.4-0.4,0.4-1,0-1.4S32.7-179.1,32.3-178.7z M25-169
		c-0.6,0-1-0.4-1-1s0.4-1,1-1c0,0.3,0.1,0.5,0.3,0.7s0.5,0.3,0.7,0.3C26-169.4,25.6-169,25-169z"/>
</g>
<g id="Bulb_1_">
	<g>
		<path class="st0" d="M-46.8-159.1h-1v-2.7c-1-0.8-1.7-2-1.7-3.3c0.3-2.8-2.1-6.8-3.1-8.4c-0.2-0.3-0.4-0.6-0.6-0.9l-0.5-0.7
			l0.1-0.1c-1-1.9-1.5-4-1.5-6.1c0-7.4,6-13.4,13.4-13.4s13.4,6,13.4,13.4c0,2.1-0.5,4.2-1.5,6.1l0,0.1l-0.5,0.7
			c-0.2,0.3-0.4,0.6-0.6,0.9c-1,1.5-3.3,5.5-3,8.1c0,1.2,0,3-1,4v2.1h-1c-1.1,0-3.5,0-5.9,0C-43.9-159.1-45.9-159.1-46.8-159.1z
			 M-51.4-175.5L-51.4-175.5c0.2,0.3,0.4,0.6,0.6,0.8c1.4,2.2,3.7,6.4,3.4,9.6c0,0.7,0.4,1.4,1.1,1.8l0.5,0.3v1.9c1,0,2.5,0,4,0
			c1.8,0,3.6,0,4.9,0v-1.2l0.5-0.3c0.5-0.3,0.5-1.9,0.5-2.5c-0.3-3.1,2-7.2,3.4-9.4c0.2-0.3,0.4-0.6,0.6-0.9l0.1-0.1
			c1-1.7,1.6-3.7,1.6-5.7c0-6.3-5.1-11.4-11.4-11.4S-53-187.6-53-181.3C-53-179.3-52.5-177.3-51.4-175.5L-51.4-175.5z"/>
	</g>
	<rect x="-48" y="-158" class="st0" width="13" height="2"/>
	<rect x="-48" y="-155.1" class="st0" width="13" height="2"/>
	<rect x="-45" y="-152" class="st0" width="7" height="2"/>
</g>
<g id="Trash_1_">
	<path class="st0" d="M-119-181c-0.6,0-1,0.4-1,1v22c0,0.6,0.4,1,1,1s1-0.4,1-1v-22C-118-180.6-118.4-181-119-181z"/>
	<path class="st0" d="M-111-181c-0.6,0-1,0.4-1,1v22c0,0.6,0.4,1,1,1s1-0.4,1-1v-22C-110-180.6-110.4-181-111-181z"/>
	<path class="st0" d="M-103-157c0.6,0,1-0.4,1-1v-22c0-0.6-0.4-1-1-1s-1,0.4-1,1v22C-104-157.4-103.6-157-103-157z"/>
	<path class="st0" d="M-95-185h-3h-8v-3c0-0.6-0.4-1-1-1h-8c-0.6,0-1,0.4-1,1v3h-8h-3c-0.6,0-1,0.4-1,1s0.4,1,1,1h2v29
		c0,0.6,0.4,1,1,1h26c0.6,0,1-0.4,1-1v-29h2c0.6,0,1-0.4,1-1S-94.4-185-95-185z M-114-187h6v2h-6V-187z M-99-155h-24v-28h8h8h8V-155
		z"/>
</g>
<g id="Bolt_1_">
	<path class="st0" d="M154-218c-0.1,0-0.2,0-0.3-0.1c-0.4-0.2-0.7-0.6-0.6-1.1l2.8-19.9H151c-0.3,0-0.6-0.2-0.8-0.4
		c-0.2-0.3-0.2-0.6-0.1-0.9l7-22c0.1-0.4,0.5-0.7,1-0.7h15c0.3,0,0.7,0.2,0.8,0.5c0.2,0.3,0.2,0.7,0.1,1l-6.3,13.6h4.4
		c0.4,0,0.7,0.2,0.9,0.5c0.2,0.3,0.2,0.7,0,1l-18,28C154.7-218.2,154.3-218,154-218z M152.4-241h4.6c0.3,0,0.6,0.1,0.8,0.3
		c0.2,0.2,0.3,0.5,0.2,0.8l-2.4,16.5l14.5-22.6H166c-0.3,0-0.7-0.2-0.8-0.5c-0.2-0.3-0.2-0.7-0.1-1l6.3-13.6h-12.7L152.4-241z"/>
</g>
<g id="Magnifying_Glass_1_">
	<path class="st0" d="M106.4-254.1c-2.1-2.1-4.9-3.2-7.8-3.2c-2.9,0-5.7,1.1-7.8,3.2c-4.3,4.3-4.3,11.3,0,15.6
		c2.1,2.1,4.9,3.2,7.8,3.2c2.9,0,5.7-1.1,7.8-3.2C110.7-242.8,110.7-249.8,106.4-254.1z M105-239.9c-1.7,1.7-4,2.6-6.4,2.6
		c-2.4,0-4.7-0.9-6.4-2.6c-3.5-3.5-3.5-9.3,0-12.8c1.7-1.7,4-2.6,6.4-2.6c2.4,0,4.7,0.9,6.4,2.6C108.5-249.2,108.5-243.5,105-239.9z
		"/>
	<path class="st0" d="M109.6-257.3c-6-6-15.9-6-21.9,0c-4.7,4.7-5.7,11.6-3.1,17.3c0,0,0,0,0,0l-13.4,13.4c-0.2,0.2-0.3,0.4-0.3,0.7
		s0.1,0.5,0.3,0.7l6.3,6.3c0.2,0.2,0.5,0.3,0.7,0.3s0.5-0.1,0.7-0.3l13.4-13.4c0,0,0,0,0,0c2,0.9,4.1,1.4,6.4,1.4
		c4.1,0,8-1.6,11-4.5c2.9-2.9,4.5-6.8,4.5-11S112.5-254.4,109.6-257.3z M90.1-232.9l-12,12l-4.9-4.9l12-12l2.4,2.4c0,0,0,0,0,0
		c0,0,0,0,0,0L90.1-232.9z M108.2-236.8c-2.5,2.5-5.9,4-9.5,4c-3.6,0-7-1.4-9.5-4l0,0c-5.3-5.3-5.3-13.8,0-19.1
		c2.6-2.6,6.1-3.9,9.5-3.9c3.5,0,6.9,1.3,9.5,3.9c2.5,2.5,4,5.9,4,9.5S110.7-239.3,108.2-236.8z"/>
</g>
<g id="Pencil_1_">
	<path class="st0" d="M47.4-253.2l-8.6-8.6c-0.4-0.4-1-0.4-1.4,0L5.6-229.9c-0.1,0.1-0.2,0.3-0.3,0.4l-2.7,10.8
		c-0.1,0.3,0,0.7,0.2,0.9c0.2,0.2,0.4,0.3,0.7,0.3c0.1,0,0.1,0,0.2,0l11.3-2.3c0.2,0,0.4-0.1,0.5-0.3l31.8-31.8
		C47.7-252.2,47.7-252.8,47.4-253.2z M32.3-253.7l7.1,7.1l-1.6,1.6l-7.1-7.1c0,0-0.1-0.1-0.1-0.1l1.6-1.6
		C32.3-253.8,32.3-253.8,32.3-253.7z M6-224.1l3.5,3.5l-4.7,0.9L6-224.1z M14.4-221.5l-2.8,0.6c0-0.2-0.1-0.3-0.2-0.5L6.8-226
		c-0.1-0.1-0.2-0.2-0.3-0.2l0.6-2.6l22.2-22.2c0,0,0,0.1,0.1,0.1l7.1,7.1L14.4-221.5z M40.8-248l-7.1-7.1c0,0-0.1-0.1-0.1-0.1
		l4.5-4.5l7.2,7.2L40.8-248z"/>
</g>
<g id="Chart_Up">
	<path class="st0" d="M-29.8-248.3l1.5-6.8c0.1-0.5-0.2-1.1-0.8-1.2l-6.8-1.5c-0.5-0.1-1.1,0.2-1.2,0.8c-0.1,0.5,0.2,1.1,0.8,1.2
		l4.5,1l-29.3,18.9l1.1,1.7l29.3-18.9l-1,4.5c-0.1,0.3,0,0.5,0.1,0.7c0.1,0.2,0.4,0.4,0.6,0.4C-30.5-247.4-29.9-247.7-29.8-248.3z"
		/>
	<path class="st0" d="M-22-254c-0.6,0-1,0.4-1,1v29h-2v-20c0-0.6-0.4-1-1-1h-6c-0.6,0-1,0.4-1,1v20h-2v-15c0-0.6-0.4-1-1-1h-6
		c-0.6,0-1,0.4-1,1v15h-2v-10c0-0.6-0.4-1-1-1h-6c-0.6,0-1,0.4-1,1v10h-2v-5c0-0.6-0.4-1-1-1h-6c-0.6,0-1,0.4-1,1v5h-1
		c-0.6,0-1,0.4-1,1s0.4,1,1,1h2h6h4h6h4h6h4h6h5v-31C-21-253.6-21.4-254-22-254z M-61-224v-4h4v4H-61z M-51-224v-9h4v9H-51z
		 M-41-224v-14h4v14H-41z M-31-224v-19h4v19H-31z"/>
</g>
<g id="Graph_2_">
	<path class="st0" d="M-90-254c-0.6,0-1,0.4-1,1v29h-2v-27c0-0.6-0.4-1-1-1h-6c-0.6,0-1,0.4-1,1v27h-2v-18c0-0.6-0.4-1-1-1h-6
		c-0.6,0-1,0.4-1,1v18h-2v-21c0-0.6-0.4-1-1-1h-6c-0.6,0-1,0.4-1,1v21h-2v-16c0-0.6-0.4-1-1-1h-6c-0.6,0-1,0.4-1,1v16h-1
		c-0.6,0-1,0.4-1,1s0.4,1,1,1h2h6h4h6h4h6h4h6h5v-31C-89-253.6-89.4-254-90-254z M-129-224v-15h4v15H-129z M-119-224v-20h4v20H-119z
		 M-109-224v-17h4v17H-109z M-99-224v-26h4v26H-99z"/>
</g>
<g id="Mail_1_">
	<path class="st0" d="M184-323c0-0.5-0.4-1-1-1H139c-0.5,0-1,0.4-1,1v31.1c0,0.5,0.4,1,1,1H183c0.5,0,1-0.4,1-1V-323z M180.7-322
		l-19.5,18.9L141.6-322H180.7z M140-293v-27.4l20.4,19.6c0.2,0.2,0.5,0.3,0.7,0.3s0.5-0.1,0.7-0.3l20.3-19.6v27.4H140z"/>
</g>
<g id="Pin_1_">
	<path class="st0" d="M92.6-285.8c-0.3,0-0.6-0.2-0.8-0.4c-0.6-0.9-14-21.2-14-29.1c0-8.2,6.6-14.8,14.8-14.8s14.8,6.6,14.8,14.8
		c0,7.8-13.4,28.2-14,29.1C93.3-286,92.9-285.8,92.6-285.8z M92.6-328.2c-7.1,0-12.8,5.7-12.8,12.8c0,6.2,9.8,22,12.8,26.7
		c3-4.6,12.8-20.5,12.8-26.7C105.4-322.4,99.7-328.2,92.6-328.2z"/>
	<path class="st0" d="M92.6-308.9c-3.6,0-6.5-2.9-6.5-6.5s2.9-6.5,6.5-6.5s6.5,2.9,6.5,6.5S96.2-308.9,92.6-308.9z M92.6-319.9
		c-2.5,0-4.5,2-4.5,4.5s2,4.5,4.5,4.5c2.5,0,4.5-2,4.5-4.5S95.1-319.9,92.6-319.9z"/>
</g>
<g id="House_1_">
	<path class="st0" d="M47.4-315.9l-22-11c-0.3-0.1-0.6-0.1-0.9,0l-22,11c-0.5,0.2-0.7,0.8-0.4,1.3c0.2,0.5,0.8,0.7,1.3,0.4l4.6-2.3
		v28.4c0,0.6,0.4,1,1,1h11h10h11c0.6,0,1-0.4,1-1v-28.4l4.6,2.3c0.1,0.1,0.3,0.1,0.4,0.1c0.4,0,0.7-0.2,0.9-0.6
		C48.1-315,47.9-315.6,47.4-315.9z M21-289v-16h8v16H21z M40-289h-9v-16.9c0-0.6-0.4-1.1-1-1.1H20c-0.6,0-1,0.5-1,1.1v16.9h-9v-28.4
		l15-7.5l15,7.5V-289z"/>
</g>
<g id="Money_1_">
	<rect x="-56" y="-298" class="st0" width="5" height="2"/>
	<rect x="-60" y="-305" class="st0" width="5" height="2"/>
	<rect x="-34" y="-321" class="st0" width="5" height="2"/>
	<path class="st0" d="M-25-318v-7h-40v26h4v7h40v-26H-25z M-63-301v-22h36v5v17h-34H-63z M-23-294h-36v-5h34v-12h1v-2h-1v-3h2V-294z
		"/>
	<path class="st0" d="M-43.6-306h-2.8c-2.5,0-4.6-2.1-4.6-4.6v-2.8c0-2.5,2.1-4.6,4.6-4.6h2.8c2.5,0,4.6,2.1,4.6,4.6v2.8
		C-39-308.1-41.1-306-43.6-306z M-46.4-316c-1.4,0-2.6,1.2-2.6,2.6v2.8c0,1.4,1.2,2.6,2.6,2.6h2.8c1.4,0,2.6-1.2,2.6-2.6v-2.8
		c0-1.4-1.2-2.6-2.6-2.6H-46.4z"/>
</g>
<g id="Shopping_Cart">
	<path class="st0" d="M-120.5-287.9c-1.8,0-3.3-1.5-3.3-3.3s1.5-3.3,3.3-3.3s3.3,1.5,3.3,3.3S-118.7-287.9-120.5-287.9z
		 M-120.5-292.5c-0.7,0-1.3,0.6-1.3,1.3c0,0.7,0.6,1.3,1.3,1.3c0.7,0,1.3-0.6,1.3-1.3C-119.2-291.9-119.8-292.5-120.5-292.5z"/>
	<path class="st0" d="M-99.5-287.9c-1.8,0-3.3-1.5-3.3-3.3s1.5-3.3,3.3-3.3s3.3,1.5,3.3,3.3S-97.6-287.9-99.5-287.9z M-99.5-292.5
		c-0.7,0-1.3,0.6-1.3,1.3c0,0.7,0.6,1.3,1.3,1.3s1.3-0.6,1.3-1.3C-98.2-291.9-98.7-292.5-99.5-292.5z"/>
	<path class="st0" d="M-89-326h-7c-0.6,0-1,0.4-1,1v4h-35c-0.3,0-0.6,0.1-0.8,0.4s-0.3,0.5-0.2,0.8l3.8,19c0.1,0.5,0.5,0.8,1,0.8
		H-97v3h-28c-0.6,0-1,0.4-1,1s0.4,1,1,1h29c0.6,0,1-0.4,1-1v-28h6c0.6,0,1-0.4,1-1S-88.4-326-89-326z M-127.4-302l-3.4-17H-97v17
		H-127.4z"/>
</g>
</svg>
