<?xml version="1.0" encoding="utf-8"?>
<!-- Generator: Adobe Illustrator 21.0.2, SVG Export Plug-In . SVG Version: 6.00 Build 0)  -->
<svg version="1.1" xmlns="http://www.w3.org/2000/svg" xmlns:xlink="http://www.w3.org/1999/xlink" x="0px" y="0px"
	 viewBox="0 0 48 48" style="enable-background:new 0 0 48 48;" xml:space="preserve">
<style type="text/css">
	.st0{fill:#6B6B6B;}
	.st1{fill:none;stroke:#6B6B6B;}
</style>
<g id="Monitor_1_">
	<path class="st0" d="M245.4-55h-34.8c-2.5,0-4.6,2.1-4.6,4.6v21.8c0,2.5,2.1,4.6,4.6,4.6H221v4h-1.8c-0.6,0-1,0.4-1,1s0.4,1,1,1
		H237c0.6,0,1-0.4,1-1s-0.4-1-1-1h-2v-4h10.4c2.5,0,4.6-2.1,4.6-4.6v-21.8C250-52.9,247.9-55,245.4-55z M233-24v4h-10v-4H233z
		 M208-50.4c0-1.4,1.2-2.6,2.6-2.6h34.8c1.4,0,2.6,1.2,2.6,2.6V-31c0,0-0.1,0-0.1,0H208V-50.4z M245.4-26h-34.8
		c-1.4,0-2.6-1.2-2.6-2.6V-29h39.9c0,0,0.1,0,0.1,0v0.4C248-27.2,246.8-26,245.4-26z"/>
	<path class="st0" d="M-26.6,5h-34.8C-63.9,5-66,7.1-66,9.6v21.8c0,2.5,2.1,4.6,4.6,4.6H-51v4h-1.8c-0.6,0-1,0.4-1,1s0.4,1,1,1H-35
		c0.6,0,1-0.4,1-1s-0.4-1-1-1h-2v-4h10.4c2.5,0,4.6-2.1,4.6-4.6V9.6C-22,7.1-24.1,5-26.6,5z M-39,36v4h-10v-4H-39z M-64,9.6
		c0-1.4,1.2-2.6,2.6-2.6h34.8c1.4,0,2.6,1.2,2.6,2.6V29c0,0-0.1,0-0.1,0H-64V9.6z M-26.6,34h-34.8c-1.4,0-2.6-1.2-2.6-2.6V31h39.9
		c0,0,0.1,0,0.1,0v0.4C-24,32.8-25.2,34-26.6,34z"/>
	<g>
		<path class="st1" d="M23.6,3.6C23.6,3.7,17.6,9.7,8,6.7L7.5,6.5L7.4,7.1c-0.1,0.6-2.2,15.9-1,21.8l0,0.1l0,0.1
			c0.1,0.1,6.1,10.8,17.4,15.7l0.2,0.1l0.2-0.1C35.5,39.8,41.5,29.1,41.6,29l0-0.1l0-0.1c0.5-2.5,0.5-6.9-0.1-13.2
			c-0.2-2.4-0.5-4.6-0.6-6.1l-0.2-1.9c-0.1-1-0.1-1-0.4-1.1l-0.2-0.1L40,6.7c-9.6,3-15.6-3-15.6-3.1L24,3.2L23.6,3.6z"/>
	</g>
	<g>
		<path class="st0" d="M24,5.3C25.5,6.5,29.2,9,34.6,9c1.5,0,3.1-0.2,4.6-0.6c0.5,3.7,1.8,15.1,0.9,20c-0.7,1.2-6.3,10.3-16.2,14.7
			C14.1,38.7,8.5,29.6,7.8,28.4c-0.9-4.9,0.4-16.3,0.9-20C10.3,8.8,11.8,9,13.4,9C18.8,9,22.5,6.5,24,5.3 M24,3.9
			c0,0-3.9,4.1-10.6,4.1c-1.7,0-3.5-0.3-5.5-0.9c0,0-2.2,15.7-1,21.6c0,0,5.9,10.6,17.2,15.5c11.3-4.8,17.2-15.5,17.2-15.5
			c1.2-5.9-1-21.6-1-21.6c-2,0.6-3.8,0.9-5.5,0.9C27.9,8,24,3.9,24,3.9L24,3.9z"/>
	</g>
	<g>
		<path class="st0" d="M24,10.5c1.6,1.1,4.5,2.7,8.5,2.7c0.9,0,1.8-0.1,2.7-0.2c0.5,4.1,1.1,11,0.6,14.1C35,28.5,30.9,34.7,24,38
			c-6.9-3.3-11-9.5-11.8-10.9c-0.5-3.2,0.1-10,0.6-14.1c0.9,0.2,1.8,0.2,2.7,0.2C19.4,13.2,22.4,11.7,24,10.5 M24,8
			c0,0-3.2,3.3-8.5,3.3c-1.3,0-2.8-0.2-4.4-0.7c0,0-1.8,12.6-0.8,17.3c0,0,4.7,8.5,13.7,12.4c9-3.9,13.7-12.4,13.7-12.4
			c0.9-4.7-0.8-17.3-0.8-17.3c-1.6,0.5-3.1,0.7-4.4,0.7C27.1,11.2,24,8,24,8L24,8z"/>
	</g>
</g>
<g id="Computer_1_">
	<path class="st0" d="M181.9-23.4l-3.9-8.8V-54c0-0.6-0.4-1-1-1h-34c-0.6,0-1,0.4-1,1v21.8l-3.9,8.8c-0.1,0.3-0.1,0.7,0.1,1
		s0.5,0.5,0.8,0.5h42c0.3,0,0.7-0.2,0.8-0.5S182.1-23.1,181.9-23.4z M144-53h32v20h-32V-53z M140.5-24l3.1-7h32.7l3.1,7H140.5z"/>
	<path class="st0" d="M173-51h-26c-0.6,0-1,0.4-1,1v14c0,0.6,0.4,1,1,1h26c0.6,0,1-0.4,1-1v-14C174-50.6,173.6-51,173-51z M172-37
		h-24v-12h24V-37z"/>
</g>
<g id="Wifi_1_">
	<path class="st0" d="M92.3-21.5c-2.4,0-4.3-1.9-4.3-4.3s1.9-4.3,4.3-4.3s4.3,1.9,4.3,4.3S94.7-21.5,92.3-21.5z M92.3-27.9
		c-1.1,0-2,0.9-2,2c0,1.1,0.9,2,2,2c1.1,0,2-0.9,2-2C94.4-27,93.5-27.9,92.3-27.9z"/>
	<g>
		<path class="st0" d="M92.3-21"/>
		<path class="st0" d="M111.6-39.1c-0.3,0-0.7-0.2-0.9-0.5c-4.4-5.8-11-9.2-18.3-9.2S78.4-45.4,74-39.5c-0.4,0.5-1.1,0.6-1.6,0.2
			c-0.5-0.4-0.6-1.1-0.2-1.6C77-47.3,84.4-51,92.3-51c8,0,15.3,3.7,20.1,10.1c0.4,0.5,0.3,1.2-0.2,1.6
			C112-39.2,111.8-39.1,111.6-39.1z"/>
	</g>
	<g>
		<path class="st0" d="M92.3-21"/>
		<path class="st0" d="M107.4-34.9c-0.4,0-0.7-0.2-0.9-0.5c-3.2-4.7-8.5-7.5-14.1-7.5s-10.9,2.8-14.1,7.5c-0.3,0.5-1,0.6-1.6,0.3
			c-0.5-0.3-0.6-1-0.3-1.6c3.6-5.3,9.6-8.5,16-8.5c6.4,0,12.4,3.2,16,8.5c0.3,0.5,0.2,1.2-0.3,1.6C107.8-35,107.6-34.9,107.4-34.9z"
			/>
	</g>
	<g>
		<path class="st0" d="M103.7-31.3c-0.4,0-0.8-0.2-1-0.6c-2.2-3.7-6.1-6-10.4-6c-4.3,0-8.3,2.3-10.4,6c-0.3,0.5-1,0.7-1.5,0.4
			c-0.5-0.3-0.7-1-0.4-1.5c2.6-4.4,7.3-7.2,12.4-7.2c5.1,0,9.8,2.7,12.4,7.2c0.3,0.5,0.1,1.2-0.4,1.5
			C104.1-31.3,103.9-31.3,103.7-31.3z"/>
		<path class="st0" d="M80.9-32.4"/>
		<path class="st0" d="M103.7-32.4"/>
	</g>
	<g>
		<path class="st0" d="M92.3-21"/>
		<path class="st0" d="M100-27.5c-0.5,0-0.9-0.3-1.1-0.7c-1-2.8-3.7-4.6-6.6-4.6c-2.9,0-5.6,1.9-6.6,4.6c-0.2,0.6-0.9,0.9-1.4,0.7
			c-0.6-0.2-0.9-0.9-0.7-1.4c1.3-3.6,4.8-6.1,8.7-6.1c3.9,0,7.4,2.4,8.7,6.1c0.2,0.6-0.1,1.2-0.7,1.4
			C100.3-27.6,100.1-27.5,100-27.5z"/>
		<path class="st0" d="M84.7-28.7"/>
		<path class="st0" d="M92.3-21"/>
		<path class="st0" d="M100-28.7"/>
	</g>
</g>
<g id="Credit_Card_1_">
	<path class="st0" d="M39.4-51H11.6c-2.4,0-4.3,1.8-4.5,4.1C4.8-46.7,3-44.7,3-42.4v16.8C3-23.1,5.1-21,7.6-21h27.8
		c2.4,0,4.3-1.8,4.5-4.1c2.3-0.3,4.1-2.2,4.1-4.5v-16.8C44-48.9,41.9-51,39.4-51z M38-25.6c0,1.4-1.2,2.6-2.6,2.6H7.6
		C6.2-23,5-24.2,5-25.6v-16.8C5-43.8,6.2-45,7.6-45h27.8c1.4,0,2.6,1.2,2.6,2.6V-25.6z M42-29.6c0,1.2-0.9,2.3-2,2.5v-15.3
		c0-2.5-2.1-4.6-4.6-4.6H9.1c0.3-1.1,1.3-2,2.5-2h27.8c1.4,0,2.6,1.2,2.6,2.6V-29.6z"/>
	<path class="st0" d="M28-41"/>
	<path class="st0" d="M8-41"/>
	<rect x="8" y="-31" class="st0" width="7" height="2"/>
	<rect x="8" y="-27" class="st0" width="10" height="2"/>
	<path class="st0" d="M33-31c-0.8,0-1.5,0.3-2,0.8c-0.5-0.5-1.2-0.8-2-0.8c-1.7,0-3,1.3-3,3s1.3,3,3,3c0.8,0,1.5-0.3,2-0.8
		c0.5,0.5,1.2,0.8,2,0.8c1.7,0,3-1.3,3-3S34.7-31,33-31z M29-27c-0.6,0-1-0.4-1-1s0.4-1,1-1s1,0.4,1,1S29.6-27,29-27z M33-27
		c-0.6,0-1-0.4-1-1s0.4-1,1-1s1,0.4,1,1S33.6-27,33-27z"/>
	<path class="st0" d="M28-38.9"/>
	<path class="st0" d="M8-38.9"/>
	<rect x="8" y="-42" class="st0" width="20" height="3"/>
</g>
<g id="Lock_1_">
	<path class="st0" d="M-33-41.7V-43c0-6.1-4.9-11-11-11s-11,4.9-11,11v1.1c-2.3,0.3-4,2.2-4,4.5v15.8c0,2.5,2.1,4.6,4.6,4.6h19.8
		c2.5,0,4.6-2.1,4.6-4.6v-15.8C-30-39.4-31.3-41-33-41.7z M-53-43c0-5,4-9,9-9s9,4,9,9v1h-4v-1c0-2.8-2.2-5-5-5s-5,2.2-5,5v1h-4V-43
		z M-41-42h-6v-1c0-1.7,1.3-3,3-3s3,1.3,3,3V-42z M-32-21.6c0,1.4-1.2,2.6-2.6,2.6h-19.8c-1.4,0-2.6-1.2-2.6-2.6v-15.8
		c0-1.4,1.2-2.6,2.6-2.6h5.4h10h4.4c1.4,0,2.6,1.2,2.6,2.6V-21.6z"/>
</g>
<g id="Documents_1_">
	<path class="st0" d="M245.6-116.8l-12-10c-0.2-0.1-0.4-0.2-0.6-0.2h-18c-0.6,0-1,0.4-1,1v3h-3c-0.6,0-1,0.4-1,1v39c0,0.6,0.4,1,1,1
		h30c0.6,0,1-0.4,1-1v-3h3c0.6,0,1-0.4,1-1v-29C246-116.3,245.9-116.6,245.6-116.8z M243.4-116H233v-8.7L243.4-116z M240-84h-28v-37
		h2v34c0,0.6,0.4,1,1,1h25V-84z M216-88v-37h15v10c0,0.6,0.4,1,1,1h12v26H216z"/>
</g>
<g id="Phone_1_">
	<path class="st0" d="M170-83h-22c-0.6,0-1-0.4-1-1v-40c0-0.6,0.4-1,1-1h22c0.6,0,1,0.4,1,1v40C171-83.4,170.6-83,170-83z M149-85
		h20v-38h-20V-85z"/>
	<path class="st0" d="M166-92h-14c-0.6,0-1-0.4-1-1v-25c0-0.6,0.4-1,1-1h14c0.6,0,1,0.4,1,1v25C167-92.4,166.6-92,166-92z M153-94
		h12v-23h-12V-94z"/>
	<path class="st0" d="M161.5-120h-5c-0.6,0-1-0.4-1-1s0.4-1,1-1h5c0.6,0,1,0.4,1,1S162.1-120,161.5-120z"/>
	<path class="st0" d="M159-86c-1.4,0-2.5-1.1-2.5-2.5s1.1-2.5,2.5-2.5s2.5,1.1,2.5,2.5S160.4-86,159-86z M159-89
		c-0.3,0-0.5,0.2-0.5,0.5s0.2,0.5,0.5,0.5s0.5-0.2,0.5-0.5S159.3-89,159-89z"/>
</g>
<g id="Download_1_">
	<path class="st0" d="M103-96h-7v-2h5v-1l0.9-0.1c3.4-0.4,7.1-3.5,7.1-7.3c0-4.1-3.1-7.3-7-7.3c-1,0-1.8,0.2-2.8,0.6l-1.1,0.5
		l-0.2-1.2c-0.8-4.2-4.5-7.2-8.7-7.2c-4.8,0-8.6,3.7-8.9,8.5l0,0.8l-0.8,0.1c-3,0.4-5.4,3.4-5.4,6.7c0,3.6,3,6.8,6.3,6.8H86v2h-5.7
		c-4.4,0-8.3-4.1-8.3-8.8c0-4,2.8-7.6,6.3-8.6c0.6-5.5,5.2-9.6,10.8-9.6c4.8,0,8.9,3.2,10.3,7.7c0.8-0.2,1.6-0.4,2.5-0.4
		c5.1,0,9,4.1,9,9.3c0,4.7-4,8.2-7.9,9.1V-96z"/>
	<path class="st0" d="M96.6-92.7c-0.4-0.4-1-0.4-1.4,0L92-89.4V-104h-2v14.6l-3.3-3.2c-0.4-0.4-1-0.4-1.4,0s-0.4,1,0,1.4l4.9,5
		c0.2,0.2,0.4,0.3,0.7,0.3s0.5-0.1,0.7-0.3l4.9-5C97-91.6,97-92.3,96.6-92.7z"/>
</g>
<g id="Upload_1_">
	<path class="st0" d="M35-96h-7v-2h5v-1l0.9-0.1c3.4-0.4,7.1-3.5,7.1-7.3c0-4.1-3.1-7.3-7-7.3c-1,0-1.8,0.2-2.8,0.6l-1.1,0.5
		l-0.2-1.2c-0.8-4.2-4.5-7.2-8.7-7.2c-4.8,0-8.6,3.7-8.9,8.5l0,0.8l-0.8,0.1c-3,0.4-5.4,3.4-5.4,6.7c0,3.6,3,6.8,6.3,6.8H18v2h-5.7
		c-4.4,0-8.3-4.1-8.3-8.8c0-4,2.8-7.6,6.3-8.6c0.6-5.5,5.2-9.6,10.8-9.6c4.8,0,8.9,3.2,10.3,7.7c0.8-0.2,1.6-0.4,2.5-0.4
		c5.1,0,9,4.1,9,9.3c0,4.7-4,8.2-7.9,9.1V-96z"/>
	<path class="st0" d="M28.6-103.8l-4.9-5c-0.4-0.4-1-0.4-1.4,0l-4.9,5c-0.4,0.4-0.4,1,0,1.4s1,0.4,1.4,0l3.3-3.2V-91h2v-14.6
		l3.2,3.2c0.2,0.2,0.4,0.3,0.7,0.3s0.5-0.1,0.7-0.3C29-102.7,29-103.4,28.6-103.8z"/>
</g>
<g id="Cloud_1_">
	<path class="st0" d="M-33-96h-22.7c-4.4,0-8.3-4.1-8.3-8.8c0-4,2.8-7.6,6.3-8.6c0.6-5.5,5.2-9.6,10.8-9.6c4.8,0,8.9,3.2,10.3,7.7
		c0.8-0.2,1.6-0.4,2.5-0.4c5.1,0,9,4.1,9,9.3c0,4.7-4,8.2-7.9,9.1V-96z M-46.9-121c-4.8,0-8.6,3.7-8.9,8.5l0,0.8l-0.8,0.1
		c-3,0.4-5.4,3.4-5.4,6.7c0,3.6,3,6.8,6.3,6.8H-35v-1l0.9-0.1c3.4-0.4,7.1-3.5,7.1-7.3c0-4.1-3.1-7.3-7-7.3c-1,0-1.8,0.2-2.8,0.6
		l-1.1,0.5l-0.2-1.2C-39.1-118-42.7-121-46.9-121z"/>
</g>
<g id="Award_1_">
	<path class="st0" d="M228.1-167.4l-2.9-1.7l-3.4,0l-1.7-2.9l-2.9-1.7l0-3.4l-1.7-2.9l1.7-2.9l0-3.4l2.9-1.7l1.7-2.9l3.4,0l2.9-1.7
		l2.9,1.7l3.4,0l1.7,2.9l2.9,1.7l0,3.4l1.7,2.9l-1.7,2.9l0,3.4l-2.9,1.7l-1.7,2.9l-3.4,0L228.1-167.4z M225.7-171.1l2.4,1.4l2.4-1.4
		l2.7,0l1.4-2.4l2.4-1.4l0-2.7l1.4-2.4l-1.4-2.4l0-2.7l-2.4-1.4l-1.4-2.4l-2.7,0l-2.4-1.4l-2.4,1.4l-2.7,0l-1.4,2.4l-2.4,1.4l0,2.7
		l-1.4,2.4l1.4,2.4l0,2.7l2.4,1.4l1.4,2.4L225.7-171.1z"/>
	<path class="st0" d="M228-172c-1,0-2-0.2-3-0.6c-2-0.8-3.5-2.3-4.4-4.3c-0.8-2-0.9-4.1-0.1-6.1s2.3-3.5,4.3-4.4
		c2-0.8,4.1-0.9,6.1-0.1c2,0.8,3.5,2.3,4.4,4.3c0.8,2,0.9,4.1,0.1,6.1s-2.3,3.5-4.3,4.4C230.1-172.2,229.1-172,228-172z M228-186
		c-0.8,0-1.6,0.2-2.4,0.5c-1.5,0.6-2.6,1.8-3.2,3.3c-0.6,1.5-0.6,3.1,0.1,4.6c0.6,1.5,1.8,2.6,3.3,3.2c1.5,0.6,3.1,0.6,4.6-0.1
		c1.5-0.6,2.6-1.8,3.2-3.3v0c0.6-1.5,0.6-3.1-0.1-4.6c-0.6-1.5-1.8-2.6-3.3-3.2C229.5-185.9,228.8-186,228-186z"/>
	<path class="st0" d="M221.7-150l-4.6-3.6l-4.9,0.8l5.3-16.4l9.4,3L221.7-150z M217.7-155.8l3,2.4l3.7-11.5l-5.6-1.8l-3.7,11.4
		L217.7-155.8z"/>
	<path class="st0" d="M234-150l-5.2-16.2l9.4-3l5.3,16.4l-4.9-0.8L234-150z M231.3-165l3.7,11.5l3-2.4l2.6,0.4l-3.7-11.4L231.3-165z
		"/>
</g>
<g id="Clipboard_1_">
	<path class="st0" d="M167-191v-2h-15v2h-8v41h31v-41H167z M154-191h11v1h-1v2h-9v-2h-1V-191z M173-152h-27v-37h6v1h1v2h13v-2h1v-1
		h6V-152z"/>
	<rect x="148" y="-182" class="st0" width="15" height="2"/>
	<rect x="148" y="-168" class="st0" width="13" height="2"/>
	<rect x="148" y="-175" class="st0" width="17" height="2"/>
	<rect x="148" y="-161" class="st0" width="15" height="2"/>
</g>
<g id="Stopwatch_1_">
	<path class="st0" d="M95-189.7v-2.3h1c0.6,0,1-0.4,1-1s-0.4-1-1-1h-2h-4h-2c-0.6,0-1,0.4-1,1s0.4,1,1,1h1v2.3
		c-9.6,1.5-17,9.7-17,19.7c0,11,9,20,20,20c11,0,20-9,20-20C112-180,104.6-188.3,95-189.7z M91-190v-2h2v2H91z M92-152
		c-9.9,0-18-8.1-18-18c0-9.9,8.1-18,18-18c9.9,0,18,8.1,18,18C110-160.1,101.9-152,92-152z"/>
	<path class="st0" d="M92-186c-8.8,0-16,7.2-16,16s7.2,16,16,16s16-7.2,16-16S100.8-186,92-186z M92-156c-7.7,0-14-6.3-14-14
		s6.3-14,14-14s14,6.3,14,14S99.7-156,92-156z"/>
	<path class="st0" d="M99.3-178.7l-6,6c-0.4-0.2-0.8-0.3-1.3-0.3c-1.3,0-2.4,0.8-2.8,2H82c-0.6,0-1,0.4-1,1s0.4,1,1,1h7.2
		c0.4,1.2,1.5,2,2.8,2c1.7,0,3-1.3,3-3c0-0.5-0.1-0.9-0.3-1.3l6-6c0.4-0.4,0.4-1,0-1.4S99.7-179.1,99.3-178.7z M92-169
		c-0.6,0-1-0.4-1-1s0.4-1,1-1c0,0.3,0.1,0.5,0.3,0.7s0.5,0.3,0.7,0.3C93-169.4,92.6-169,92-169z"/>
</g>
<g id="Bulb_1_">
	<g>
		<path class="st0" d="M20.2-159.1h-1v-2.7c-1-0.8-1.7-2-1.7-3.3c0.3-2.8-2.1-6.8-3.1-8.4c-0.2-0.3-0.4-0.6-0.6-0.9l-0.5-0.7
			l0.1-0.1c-1-1.9-1.5-4-1.5-6.1c0-7.4,6-13.4,13.4-13.4s13.4,6,13.4,13.4c0,2.1-0.5,4.2-1.5,6.1l0,0.1l-0.5,0.7
			c-0.2,0.3-0.4,0.6-0.6,0.9c-1,1.5-3.3,5.5-3,8.1c0,1.2,0,3-1,4v2.1h-1c-1.1,0-3.5,0-5.9,0C23.1-159.1,21.1-159.1,20.2-159.1z
			 M15.6-175.5L15.6-175.5c0.2,0.3,0.4,0.6,0.6,0.8c1.4,2.2,3.7,6.4,3.4,9.6c0,0.7,0.4,1.4,1.1,1.8l0.5,0.3v1.9c1,0,2.5,0,4,0
			c1.8,0,3.6,0,4.9,0v-1.2l0.5-0.3c0.5-0.3,0.5-1.9,0.5-2.5c-0.3-3.1,2-7.2,3.4-9.4c0.2-0.3,0.4-0.6,0.6-0.9l0.1-0.1
			c1-1.7,1.6-3.7,1.6-5.7c0-6.3-5.1-11.4-11.4-11.4S14-187.6,14-181.3C14-179.3,14.5-177.3,15.6-175.5L15.6-175.5z"/>
	</g>
	<rect x="19" y="-158" class="st0" width="13" height="2"/>
	<rect x="19" y="-155.1" class="st0" width="13" height="2"/>
	<rect x="22" y="-152" class="st0" width="7" height="2"/>
</g>
<g id="Trash_1_">
	<path class="st0" d="M-52-181c-0.6,0-1,0.4-1,1v22c0,0.6,0.4,1,1,1s1-0.4,1-1v-22C-51-180.6-51.4-181-52-181z"/>
	<path class="st0" d="M-44-181c-0.6,0-1,0.4-1,1v22c0,0.6,0.4,1,1,1s1-0.4,1-1v-22C-43-180.6-43.4-181-44-181z"/>
	<path class="st0" d="M-36-157c0.6,0,1-0.4,1-1v-22c0-0.6-0.4-1-1-1s-1,0.4-1,1v22C-37-157.4-36.6-157-36-157z"/>
	<path class="st0" d="M-28-185h-3h-8v-3c0-0.6-0.4-1-1-1h-8c-0.6,0-1,0.4-1,1v3h-8h-3c-0.6,0-1,0.4-1,1s0.4,1,1,1h2v29
		c0,0.6,0.4,1,1,1h26c0.6,0,1-0.4,1-1v-29h2c0.6,0,1-0.4,1-1S-27.4-185-28-185z M-47-187h6v2h-6V-187z M-32-155h-24v-28h8h8h8V-155z
		"/>
</g>
<g id="Bolt_1_">
	<path class="st0" d="M221-218c-0.1,0-0.2,0-0.3-0.1c-0.4-0.2-0.7-0.6-0.6-1.1l2.8-19.9H218c-0.3,0-0.6-0.2-0.8-0.4
		c-0.2-0.3-0.2-0.6-0.1-0.9l7-22c0.1-0.4,0.5-0.7,1-0.7h15c0.3,0,0.7,0.2,0.8,0.5c0.2,0.3,0.2,0.7,0.1,1l-6.3,13.6h4.4
		c0.4,0,0.7,0.2,0.9,0.5c0.2,0.3,0.2,0.7,0,1l-18,28C221.7-218.2,221.3-218,221-218z M219.4-241h4.6c0.3,0,0.6,0.1,0.8,0.3
		c0.2,0.2,0.3,0.5,0.2,0.8l-2.4,16.5l14.5-22.6H233c-0.3,0-0.7-0.2-0.8-0.5c-0.2-0.3-0.2-0.7-0.1-1l6.3-13.6h-12.7L219.4-241z"/>
</g>
<g id="Magnifying_Glass_1_">
	<path class="st0" d="M173.4-254.1c-2.1-2.1-4.9-3.2-7.8-3.2c-2.9,0-5.7,1.1-7.8,3.2c-4.3,4.3-4.3,11.3,0,15.6
		c2.1,2.1,4.9,3.2,7.8,3.2c2.9,0,5.7-1.1,7.8-3.2C177.7-242.8,177.7-249.8,173.4-254.1z M172-239.9c-1.7,1.7-4,2.6-6.4,2.6
		c-2.4,0-4.7-0.9-6.4-2.6c-3.5-3.5-3.5-9.3,0-12.8c1.7-1.7,4-2.6,6.4-2.6c2.4,0,4.7,0.9,6.4,2.6C175.5-249.2,175.5-243.5,172-239.9z
		"/>
	<path class="st0" d="M176.6-257.3c-6-6-15.9-6-21.9,0c-4.7,4.7-5.7,11.6-3.1,17.3c0,0,0,0,0,0l-13.4,13.4c-0.2,0.2-0.3,0.4-0.3,0.7
		s0.1,0.5,0.3,0.7l6.3,6.3c0.2,0.2,0.5,0.3,0.7,0.3s0.5-0.1,0.7-0.3l13.4-13.4c0,0,0,0,0,0c2,0.9,4.1,1.4,6.4,1.4
		c4.1,0,8-1.6,11-4.5c2.9-2.9,4.5-6.8,4.5-11S179.5-254.4,176.6-257.3z M157.1-232.9l-12,12l-4.9-4.9l12-12l2.4,2.4c0,0,0,0,0,0
		c0,0,0,0,0,0L157.1-232.9z M175.2-236.8c-2.5,2.5-5.9,4-9.5,4c-3.6,0-7-1.4-9.5-4l0,0c-5.3-5.3-5.3-13.8,0-19.1
		c2.6-2.6,6.1-3.9,9.5-3.9c3.5,0,6.9,1.3,9.5,3.9c2.5,2.5,4,5.9,4,9.5S177.7-239.3,175.2-236.8z"/>
</g>
<g id="Pencil_1_">
	<path class="st0" d="M114.4-253.2l-8.6-8.6c-0.4-0.4-1-0.4-1.4,0l-31.8,31.8c-0.1,0.1-0.2,0.3-0.3,0.4l-2.7,10.8
		c-0.1,0.3,0,0.7,0.2,0.9c0.2,0.2,0.4,0.3,0.7,0.3c0.1,0,0.1,0,0.2,0l11.3-2.3c0.2,0,0.4-0.1,0.5-0.3l31.8-31.8
		C114.7-252.2,114.7-252.8,114.4-253.2z M99.3-253.7l7.1,7.1l-1.6,1.6l-7.1-7.1c0,0-0.1-0.1-0.1-0.1l1.6-1.6
		C99.3-253.8,99.3-253.8,99.3-253.7z M73-224.1l3.5,3.5l-4.7,0.9L73-224.1z M81.4-221.5l-2.8,0.6c0-0.2-0.1-0.3-0.2-0.5l-4.5-4.5
		c-0.1-0.1-0.2-0.2-0.3-0.2l0.6-2.6l22.2-22.2c0,0,0,0.1,0.1,0.1l7.1,7.1L81.4-221.5z M107.8-248l-7.1-7.1c0,0-0.1-0.1-0.1-0.1
		l4.5-4.5l7.2,7.2L107.8-248z"/>
</g>
<g id="Chart_Up">
	<path class="st0" d="M37.2-248.3l1.5-6.8c0.1-0.5-0.2-1.1-0.8-1.2l-6.8-1.5c-0.5-0.1-1.1,0.2-1.2,0.8c-0.1,0.5,0.2,1.1,0.8,1.2
		l4.5,1L5.9-235.9l1.1,1.7l29.3-18.9l-1,4.5c-0.1,0.3,0,0.5,0.1,0.7c0.1,0.2,0.4,0.4,0.6,0.4C36.5-247.4,37.1-247.7,37.2-248.3z"/>
	<path class="st0" d="M45-254c-0.6,0-1,0.4-1,1v29h-2v-20c0-0.6-0.4-1-1-1h-6c-0.6,0-1,0.4-1,1v20h-2v-15c0-0.6-0.4-1-1-1h-6
		c-0.6,0-1,0.4-1,1v15h-2v-10c0-0.6-0.4-1-1-1h-6c-0.6,0-1,0.4-1,1v10h-2v-5c0-0.6-0.4-1-1-1H5c-0.6,0-1,0.4-1,1v5H3
		c-0.6,0-1,0.4-1,1s0.4,1,1,1h2h6h4h6h4h6h4h6h5v-31C46-253.6,45.6-254,45-254z M6-224v-4h4v4H6z M16-224v-9h4v9H16z M26-224v-14h4
		v14H26z M36-224v-19h4v19H36z"/>
</g>
<g id="Graph_2_">
	<path class="st0" d="M-23-254c-0.6,0-1,0.4-1,1v29h-2v-27c0-0.6-0.4-1-1-1h-6c-0.6,0-1,0.4-1,1v27h-2v-18c0-0.6-0.4-1-1-1h-6
		c-0.6,0-1,0.4-1,1v18h-2v-21c0-0.6-0.4-1-1-1h-6c-0.6,0-1,0.4-1,1v21h-2v-16c0-0.6-0.4-1-1-1h-6c-0.6,0-1,0.4-1,1v16h-1
		c-0.6,0-1,0.4-1,1s0.4,1,1,1h2h6h4h6h4h6h4h6h5v-31C-22-253.6-22.4-254-23-254z M-62-224v-15h4v15H-62z M-52-224v-20h4v20H-52z
		 M-42-224v-17h4v17H-42z M-32-224v-26h4v26H-32z"/>
</g>
<g id="Mail_1_">
	<path class="st0" d="M251-323c0-0.5-0.4-1-1-1H206c-0.5,0-1,0.4-1,1v31.1c0,0.5,0.4,1,1,1H250c0.5,0,1-0.4,1-1V-323z M247.7-322
		l-19.5,18.9L208.6-322H247.7z M207-293v-27.4l20.4,19.6c0.2,0.2,0.5,0.3,0.7,0.3s0.5-0.1,0.7-0.3l20.3-19.6v27.4H207z"/>
</g>
<g id="Pin_1_">
	<path class="st0" d="M159.6-285.8c-0.3,0-0.6-0.2-0.8-0.4c-0.6-0.9-14-21.2-14-29.1c0-8.2,6.6-14.8,14.8-14.8s14.8,6.6,14.8,14.8
		c0,7.8-13.4,28.2-14,29.1C160.3-286,159.9-285.8,159.6-285.8z M159.6-328.2c-7.1,0-12.8,5.7-12.8,12.8c0,6.2,9.8,22,12.8,26.7
		c3-4.6,12.8-20.5,12.8-26.7C172.4-322.4,166.7-328.2,159.6-328.2z"/>
	<path class="st0" d="M159.6-308.9c-3.6,0-6.5-2.9-6.5-6.5s2.9-6.5,6.5-6.5s6.5,2.9,6.5,6.5S163.2-308.9,159.6-308.9z M159.6-319.9
		c-2.5,0-4.5,2-4.5,4.5s2,4.5,4.5,4.5c2.5,0,4.5-2,4.5-4.5S162.1-319.9,159.6-319.9z"/>
</g>
<g id="House_1_">
	<path class="st0" d="M114.4-315.9l-22-11c-0.3-0.1-0.6-0.1-0.9,0l-22,11c-0.5,0.2-0.7,0.8-0.4,1.3c0.2,0.5,0.8,0.7,1.3,0.4l4.6-2.3
		v28.4c0,0.6,0.4,1,1,1h11h10h11c0.6,0,1-0.4,1-1v-28.4l4.6,2.3c0.1,0.1,0.3,0.1,0.4,0.1c0.4,0,0.7-0.2,0.9-0.6
		C115.1-315,114.9-315.6,114.4-315.9z M88-289v-16h8v16H88z M107-289h-9v-16.9c0-0.6-0.4-1.1-1-1.1H87c-0.6,0-1,0.5-1,1.1v16.9h-9
		v-28.4l15-7.5l15,7.5V-289z"/>
</g>
<g id="Money_1_">
	<rect x="11" y="-298" class="st0" width="5" height="2"/>
	<rect x="7" y="-305" class="st0" width="5" height="2"/>
	<rect x="33" y="-321" class="st0" width="5" height="2"/>
	<path class="st0" d="M42-318v-7H2v26h4v7h40v-26H42z M4-301v-22h36v5v17H6H4z M44-294H8v-5h34v-12h1v-2h-1v-3h2V-294z"/>
	<path class="st0" d="M23.4-306h-2.8c-2.5,0-4.6-2.1-4.6-4.6v-2.8c0-2.5,2.1-4.6,4.6-4.6h2.8c2.5,0,4.6,2.1,4.6,4.6v2.8
		C28-308.1,25.9-306,23.4-306z M20.6-316c-1.4,0-2.6,1.2-2.6,2.6v2.8c0,1.4,1.2,2.6,2.6,2.6h2.8c1.4,0,2.6-1.2,2.6-2.6v-2.8
		c0-1.4-1.2-2.6-2.6-2.6H20.6z"/>
</g>
<g id="Shopping_Cart">
	<path class="st0" d="M-53.5-287.9c-1.8,0-3.3-1.5-3.3-3.3s1.5-3.3,3.3-3.3s3.3,1.5,3.3,3.3S-51.7-287.9-53.5-287.9z M-53.5-292.5
		c-0.7,0-1.3,0.6-1.3,1.3c0,0.7,0.6,1.3,1.3,1.3c0.7,0,1.3-0.6,1.3-1.3C-52.2-291.9-52.8-292.5-53.5-292.5z"/>
	<path class="st0" d="M-32.5-287.9c-1.8,0-3.3-1.5-3.3-3.3s1.5-3.3,3.3-3.3s3.3,1.5,3.3,3.3S-30.6-287.9-32.5-287.9z M-32.5-292.5
		c-0.7,0-1.3,0.6-1.3,1.3c0,0.7,0.6,1.3,1.3,1.3s1.3-0.6,1.3-1.3C-31.2-291.9-31.7-292.5-32.5-292.5z"/>
	<path class="st0" d="M-22-326h-7c-0.6,0-1,0.4-1,1v4h-35c-0.3,0-0.6,0.1-0.8,0.4s-0.3,0.5-0.2,0.8l3.8,19c0.1,0.5,0.5,0.8,1,0.8
		H-30v3h-28c-0.6,0-1,0.4-1,1s0.4,1,1,1h29c0.6,0,1-0.4,1-1v-28h6c0.6,0,1-0.4,1-1S-21.4-326-22-326z M-60.4-302l-3.4-17H-30v17
		H-60.4z"/>
</g>
</svg>
