<?xml version="1.0" encoding="utf-8"?>
<!-- Generator: Adobe Illustrator 21.0.2, SVG Export Plug-In . SVG Version: 6.00 Build 0)  -->
<svg version="1.1" xmlns="http://www.w3.org/2000/svg" xmlns:xlink="http://www.w3.org/1999/xlink" x="0px" y="0px"
	 viewBox="0 0 48 48" style="enable-background:new 0 0 48 48;" xml:space="preserve">
<style type="text/css">
	.st0{fill:#6B6B6B;}
	.st1{fill:none;stroke:#6B6B6B;}
	.st2{fill:none;stroke:#6B6B6B;stroke-width:3;stroke-linecap:round;stroke-linejoin:round;stroke-miterlimit:10;}
	.st3{fill:none;stroke:#6B6B6B;stroke-width:3;stroke-linecap:round;stroke-linejoin:round;}
	.st4{fill:none;stroke:#6B6B6B;stroke-linecap:round;stroke-linejoin:round;stroke-miterlimit:10;}
</style>
<g id="Monitor_1_">
	<path class="st0" d="M109.4,5H74.6C72.1,5,70,7.1,70,9.6v21.8c0,2.5,2.1,4.6,4.6,4.6H85v4h-1.8c-0.6,0-1,0.4-1,1s0.4,1,1,1H101
		c0.6,0,1-0.4,1-1s-0.4-1-1-1h-2v-4h10.4c2.5,0,4.6-2.1,4.6-4.6V9.6C114,7.1,111.9,5,109.4,5z M97,36v4H87v-4H97z M72,9.6
		C72,8.2,73.2,7,74.6,7h34.8c1.4,0,2.6,1.2,2.6,2.6V29c0,0-0.1,0-0.1,0H72V9.6z M109.4,34H74.6c-1.4,0-2.6-1.2-2.6-2.6V31h39.9
		c0,0,0.1,0,0.1,0v0.4C112,32.8,110.8,34,109.4,34z"/>
	<g>
		<path class="st1" d="M-112.4,63.6c-0.1,0.1-6.1,6.1-15.6,3.1l-0.6-0.2l-0.1,0.6c-0.1,0.6-2.2,15.9-1,21.8l0,0.1l0,0.1
			c0.1,0.1,6.1,10.8,17.4,15.7l0.2,0.1l0.2-0.1c11.3-4.9,17.3-15.6,17.4-15.7l0-0.1l0-0.1c0.5-2.5,0.5-6.9-0.1-13.2
			c-0.2-2.4-0.5-4.6-0.6-6.1l-0.2-1.9c-0.1-1-0.1-1-0.4-1.1l-0.2-0.1l-0.2,0.1c-9.6,3-15.6-3-15.6-3.1l-0.4-0.4L-112.4,63.6z"/>
	</g>
	<g>
		<path class="st0" d="M-112,65.3c1.5,1.2,5.2,3.7,10.6,3.7c1.5,0,3.1-0.2,4.6-0.6c0.5,3.7,1.8,15.1,0.9,20
			c-0.7,1.2-6.3,10.3-16.2,14.7c-9.9-4.4-15.5-13.5-16.2-14.7c-0.9-4.9,0.4-16.3,0.9-20c1.6,0.4,3.1,0.6,4.6,0.6
			C-117.2,69-113.5,66.5-112,65.3 M-112,63.9c0,0-3.9,4.1-10.6,4.1c-1.7,0-3.5-0.3-5.5-0.9c0,0-2.2,15.7-1,21.6
			c0,0,5.9,10.6,17.2,15.5c11.3-4.8,17.2-15.5,17.2-15.5c1.2-5.9-1-21.6-1-21.6c-2,0.6-3.8,0.9-5.5,0.9C-108.1,68-112,63.9-112,63.9
			L-112,63.9z"/>
	</g>
	<g>
		<path class="st0" d="M-112,70.5c1.6,1.1,4.5,2.7,8.5,2.7c0.9,0,1.8-0.1,2.7-0.2c0.5,4.1,1.1,11,0.6,14.1
			c-0.8,1.4-4.9,7.6-11.8,10.9c-6.9-3.3-11-9.5-11.8-10.9c-0.5-3.2,0.1-10,0.6-14.1c0.9,0.2,1.8,0.2,2.7,0.2
			C-116.6,73.2-113.6,71.7-112,70.5 M-112,68c0,0-3.2,3.3-8.5,3.3c-1.3,0-2.8-0.2-4.4-0.7c0,0-1.8,12.6-0.8,17.3
			c0,0,4.7,8.5,13.7,12.4c9-3.9,13.7-12.4,13.7-12.4c0.9-4.7-0.8-17.3-0.8-17.3c-1.6,0.5-3.1,0.7-4.4,0.7C-108.9,71.2-112,68-112,68
			L-112,68z"/>
	</g>
	<polyline class="st2" points="-193.7,86.4 -185.7,92.1 -166.4,73.7 	"/>
	<circle class="st0" cx="-44.5" cy="70.5" r="7"/>
	<path class="st0" d="M-44.5,79.5L-44.5,79.5c-3.9,0-7,3.1-7,7v3c0,3.8,3.1,7,7,7h0c3.8,0,7-3.1,7-7v-3
		C-37.5,82.6-40.6,79.5-44.5,79.5z"/>
	<circle class="st0" cx="-59.5" cy="76.5" r="5.5"/>
	<path class="st0" d="M-59.5,83.6L-59.5,83.6c-3,0-5.5,2.5-5.5,5.5v2.4c0,3,2.5,5.5,5.5,5.5h0c3,0,5.5-2.5,5.5-5.5v-2.4
		C-54,86.1-56.5,83.6-59.5,83.6z"/>
	<circle class="st0" cx="-29.5" cy="76.5" r="5.5"/>
	<path class="st0" d="M-29.5,83.6L-29.5,83.6c-3,0-5.5,2.5-5.5,5.5v2.4c0,3,2.5,5.5,5.5,5.5h0c3,0,5.5-2.5,5.5-5.5v-2.4
		C-24,86.1-26.5,83.6-29.5,83.6z"/>
	<g>
		<g>
			<path class="st3" d="M37.4,64.4c0,0,0,4.2,0,5c-0.8,0-3.4,0-4.2,0c0-0.9,0-5,0-5h-6.3c0,0,0,4.2,0,5c-0.8,0-3.4,0-4.2,0
				c0-0.9,0-5,0-5h-6.3c0,0,0,4.2,0,5c-0.8,0-3.4,0-4.2,0c0-0.9,0-5,0-5H5.8l0,0.5c-0.1,1-1.9,24.5,4.3,31.7
				c6.7,7.8,14.2,8.9,14.6,8.9l0.1,0l0.1,0c0.3,0,7.9-1.1,14.6-8.9c6.2-7.2,4.4-30.7,4.3-31.6l0-0.5H37.4z"/>
		</g>
	</g>
	<g>
		<path class="st3" d="M14.7,93.6c4.7,5.5,10.1,6.2,10.1,6.2s5.4-0.7,10.1-6.2c2.8-3.2,3.2-11.5,3.2-17H11.5
			C11.4,82.1,11.9,90.3,14.7,93.6z"/>
	</g>
	<polygon class="st2" points="91.2,70 72,77.9 91.2,85.5 110.6,77.7 	"/>
	<path class="st2" d="M79.6,82.4v9.1c0,0,4.3,3.5,11.3,3.4s11.5-3,11.5-3v-9.5"/>
	<line class="st4" x1="109" y1="77.9" x2="109" y2="83.1"/>
	<circle class="st0" cx="109" cy="83" r="1"/>
	<polygon class="st0" points="109,83 107.2,86 110.7,86 	"/>
</g>
<g id="Computer_1_">
	<path class="st0" d="M45.9,36.6L42,27.8V6c0-0.6-0.4-1-1-1H7C6.4,5,6,5.4,6,6v21.8l-3.9,8.8c-0.1,0.3-0.1,0.7,0.1,1S2.7,38,3,38h42
		c0.3,0,0.7-0.2,0.8-0.5S46.1,36.9,45.9,36.6z M8,7h32v20H8V7z M4.5,36l3.1-7h32.7l3.1,7H4.5z"/>
	<path class="st0" d="M37,9H11c-0.6,0-1,0.4-1,1v14c0,0.6,0.4,1,1,1h26c0.6,0,1-0.4,1-1V10C38,9.4,37.6,9,37,9z M36,23H12V11h24V23z
		"/>
</g>
<g id="Wifi_1_">
	<path class="st0" d="M-43.7,38.5c-2.4,0-4.3-1.9-4.3-4.3s1.9-4.3,4.3-4.3s4.3,1.9,4.3,4.3S-41.3,38.5-43.7,38.5z M-43.7,32.1
		c-1.1,0-2,0.9-2,2c0,1.1,0.9,2,2,2c1.1,0,2-0.9,2-2C-41.6,33-42.5,32.1-43.7,32.1z"/>
	<g>
		<path class="st0" d="M-43.7,39"/>
		<path class="st0" d="M-24.4,20.9c-0.3,0-0.7-0.2-0.9-0.5c-4.4-5.8-11-9.2-18.3-9.2s-13.9,3.3-18.3,9.2c-0.4,0.5-1.1,0.6-1.6,0.2
			c-0.5-0.4-0.6-1.1-0.2-1.6C-59,12.7-51.6,9-43.7,9c8,0,15.3,3.7,20.1,10.1c0.4,0.5,0.3,1.2-0.2,1.6C-24,20.8-24.2,20.9-24.4,20.9z
			"/>
	</g>
	<g>
		<path class="st0" d="M-43.7,39"/>
		<path class="st0" d="M-28.6,25.1c-0.4,0-0.7-0.2-0.9-0.5c-3.2-4.7-8.5-7.5-14.1-7.5s-10.9,2.8-14.1,7.5c-0.3,0.5-1,0.6-1.6,0.3
			c-0.5-0.3-0.6-1-0.3-1.6c3.6-5.3,9.6-8.5,16-8.5c6.4,0,12.4,3.2,16,8.5c0.3,0.5,0.2,1.2-0.3,1.6C-28.2,25-28.4,25.1-28.6,25.1z"/>
	</g>
	<g>
		<path class="st0" d="M-32.3,28.7c-0.4,0-0.8-0.2-1-0.6c-2.2-3.7-6.1-6-10.4-6c-4.3,0-8.3,2.3-10.4,6c-0.3,0.5-1,0.7-1.5,0.4
			c-0.5-0.3-0.7-1-0.4-1.5c2.6-4.4,7.3-7.2,12.4-7.2c5.1,0,9.8,2.7,12.4,7.2c0.3,0.5,0.1,1.2-0.4,1.5
			C-31.9,28.7-32.1,28.7-32.3,28.7z"/>
		<path class="st0" d="M-55.1,27.6"/>
		<path class="st0" d="M-32.3,27.6"/>
	</g>
	<g>
		<path class="st0" d="M-43.7,39"/>
		<path class="st0" d="M-36,32.5c-0.5,0-0.9-0.3-1.1-0.7c-1-2.8-3.7-4.6-6.6-4.6c-2.9,0-5.6,1.9-6.6,4.6c-0.2,0.6-0.9,0.9-1.4,0.7
			c-0.6-0.2-0.9-0.9-0.7-1.4c1.3-3.6,4.8-6.1,8.7-6.1c3.9,0,7.4,2.4,8.7,6.1c0.2,0.6-0.1,1.2-0.7,1.4C-35.7,32.4-35.9,32.5-36,32.5z
			"/>
		<path class="st0" d="M-51.3,31.3"/>
		<path class="st0" d="M-43.7,39"/>
		<path class="st0" d="M-36,31.3"/>
	</g>
</g>
<g id="Credit_Card_1_">
	<path class="st0" d="M-96.6,9h-27.8c-2.4,0-4.3,1.8-4.5,4.1c-2.3,0.3-4.1,2.2-4.1,4.5v16.8c0,2.5,2.1,4.6,4.6,4.6h27.8
		c2.4,0,4.3-1.8,4.5-4.1c2.3-0.3,4.1-2.2,4.1-4.5V13.6C-92,11.1-94.1,9-96.6,9z M-98,34.4c0,1.4-1.2,2.6-2.6,2.6h-27.8
		c-1.4,0-2.6-1.2-2.6-2.6V17.6c0-1.4,1.2-2.6,2.6-2.6h27.8c1.4,0,2.6,1.2,2.6,2.6V34.4z M-94,30.4c0,1.2-0.9,2.3-2,2.5V17.6
		c0-2.5-2.1-4.6-4.6-4.6h-26.3c0.3-1.1,1.3-2,2.5-2h27.8c1.4,0,2.6,1.2,2.6,2.6V30.4z"/>
	<path class="st0" d="M-108,19"/>
	<path class="st0" d="M-128,19"/>
	<rect x="-128" y="29" class="st0" width="7" height="2"/>
	<rect x="-128" y="33" class="st0" width="10" height="2"/>
	<path class="st0" d="M-103,29c-0.8,0-1.5,0.3-2,0.8c-0.5-0.5-1.2-0.8-2-0.8c-1.7,0-3,1.3-3,3s1.3,3,3,3c0.8,0,1.5-0.3,2-0.8
		c0.5,0.5,1.2,0.8,2,0.8c1.7,0,3-1.3,3-3S-101.3,29-103,29z M-107,33c-0.6,0-1-0.4-1-1s0.4-1,1-1s1,0.4,1,1S-106.4,33-107,33z
		 M-103,33c-0.6,0-1-0.4-1-1s0.4-1,1-1s1,0.4,1,1S-102.4,33-103,33z"/>
	<path class="st0" d="M-108,21.1"/>
	<path class="st0" d="M-128,21.1"/>
	<rect x="-128" y="18" class="st0" width="20" height="3"/>
</g>
<g id="Lock_1_">
	<path class="st0" d="M-169,18.3V17c0-6.1-4.9-11-11-11s-11,4.9-11,11v1.1c-2.3,0.3-4,2.2-4,4.5v15.8c0,2.5,2.1,4.6,4.6,4.6h19.8
		c2.5,0,4.6-2.1,4.6-4.6V22.6C-166,20.6-167.3,19-169,18.3z M-189,17c0-5,4-9,9-9s9,4,9,9v1h-4v-1c0-2.8-2.2-5-5-5s-5,2.2-5,5v1h-4
		V17z M-177,18h-6v-1c0-1.7,1.3-3,3-3s3,1.3,3,3V18z M-168,38.4c0,1.4-1.2,2.6-2.6,2.6h-19.8c-1.4,0-2.6-1.2-2.6-2.6V22.6
		c0-1.4,1.2-2.6,2.6-2.6h5.4h10h4.4c1.4,0,2.6,1.2,2.6,2.6V38.4z"/>
</g>
<g id="Documents_1_">
	<path class="st0" d="M109.6-56.8l-12-10C97.5-66.9,97.2-67,97-67H79c-0.6,0-1,0.4-1,1v3h-3c-0.6,0-1,0.4-1,1v39c0,0.6,0.4,1,1,1h30
		c0.6,0,1-0.4,1-1v-3h3c0.6,0,1-0.4,1-1v-29C110-56.3,109.9-56.6,109.6-56.8z M107.4-56H97v-8.7L107.4-56z M104-24H76v-37h2v34
		c0,0.6,0.4,1,1,1h25V-24z M80-28v-37h15v10c0,0.6,0.4,1,1,1h12v26H80z"/>
</g>
<g id="Phone_1_">
	<path class="st0" d="M34-23H12c-0.6,0-1-0.4-1-1v-40c0-0.6,0.4-1,1-1h22c0.6,0,1,0.4,1,1v40C35-23.4,34.6-23,34-23z M13-25h20v-38
		H13V-25z"/>
	<path class="st0" d="M30-32H16c-0.6,0-1-0.4-1-1v-25c0-0.6,0.4-1,1-1h14c0.6,0,1,0.4,1,1v25C31-32.4,30.6-32,30-32z M17-34h12v-23
		H17V-34z"/>
	<path class="st0" d="M25.5-60h-5c-0.6,0-1-0.4-1-1s0.4-1,1-1h5c0.6,0,1,0.4,1,1S26.1-60,25.5-60z"/>
	<path class="st0" d="M23-26c-1.4,0-2.5-1.1-2.5-2.5S21.6-31,23-31s2.5,1.1,2.5,2.5S24.4-26,23-26z M23-29c-0.3,0-0.5,0.2-0.5,0.5
		S22.7-28,23-28s0.5-0.2,0.5-0.5S23.3-29,23-29z"/>
</g>
<g id="Download_1_">
	<path class="st0" d="M-33-36h-7v-2h5v-1l0.9-0.1c3.4-0.4,7.1-3.5,7.1-7.3c0-4.1-3.1-7.3-7-7.3c-1,0-1.8,0.2-2.8,0.6l-1.1,0.5
		l-0.2-1.2c-0.8-4.2-4.5-7.2-8.7-7.2c-4.8,0-8.6,3.7-8.9,8.5l0,0.8l-0.8,0.1c-3,0.4-5.4,3.4-5.4,6.7c0,3.6,3,6.8,6.3,6.8h5.7v2h-5.7
		c-4.4,0-8.3-4.1-8.3-8.8c0-4,2.8-7.6,6.3-8.6c0.6-5.5,5.2-9.6,10.8-9.6c4.8,0,8.9,3.2,10.3,7.7c0.8-0.2,1.6-0.4,2.5-0.4
		c5.1,0,9,4.1,9,9.3c0,4.7-4,8.2-7.9,9.1V-36z"/>
	<path class="st0" d="M-39.4-32.7c-0.4-0.4-1-0.4-1.4,0l-3.2,3.2V-44h-2v14.6l-3.3-3.2c-0.4-0.4-1-0.4-1.4,0s-0.4,1,0,1.4l4.9,5
		c0.2,0.2,0.4,0.3,0.7,0.3s0.5-0.1,0.7-0.3l4.9-5C-39-31.6-39-32.3-39.4-32.7z"/>
</g>
<g id="Upload_1_">
	<path class="st0" d="M-101-36h-7v-2h5v-1l0.9-0.1c3.4-0.4,7.1-3.5,7.1-7.3c0-4.1-3.1-7.3-7-7.3c-1,0-1.8,0.2-2.8,0.6l-1.1,0.5
		l-0.2-1.2c-0.8-4.2-4.5-7.2-8.7-7.2c-4.8,0-8.6,3.7-8.9,8.5l0,0.8l-0.8,0.1c-3,0.4-5.4,3.4-5.4,6.7c0,3.6,3,6.8,6.3,6.8h5.7v2h-5.7
		c-4.4,0-8.3-4.1-8.3-8.8c0-4,2.8-7.6,6.3-8.6c0.6-5.5,5.2-9.6,10.8-9.6c4.8,0,8.9,3.2,10.3,7.7c0.8-0.2,1.6-0.4,2.5-0.4
		c5.1,0,9,4.1,9,9.3c0,4.7-4,8.2-7.9,9.1V-36z"/>
	<path class="st0" d="M-107.4-43.8l-4.9-5c-0.4-0.4-1-0.4-1.4,0l-4.9,5c-0.4,0.4-0.4,1,0,1.4s1,0.4,1.4,0l3.3-3.2V-31h2v-14.6
		l3.2,3.2c0.2,0.2,0.4,0.3,0.7,0.3s0.5-0.1,0.7-0.3C-107-42.7-107-43.4-107.4-43.8z"/>
</g>
<g id="Cloud_1_">
	<path class="st0" d="M-169-36h-22.7c-4.4,0-8.3-4.1-8.3-8.8c0-4,2.8-7.6,6.3-8.6c0.6-5.5,5.2-9.6,10.8-9.6c4.8,0,8.9,3.2,10.3,7.7
		c0.8-0.2,1.6-0.4,2.5-0.4c5.1,0,9,4.1,9,9.3c0,4.7-4,8.2-7.9,9.1V-36z M-182.9-61c-4.8,0-8.6,3.7-8.9,8.5l0,0.8l-0.8,0.1
		c-3,0.4-5.4,3.4-5.4,6.7c0,3.6,3,6.8,6.3,6.8h20.7v-1l0.9-0.1c3.4-0.4,7.1-3.5,7.1-7.3c0-4.1-3.1-7.3-7-7.3c-1,0-1.8,0.2-2.8,0.6
		l-1.1,0.5l-0.2-1.2C-175.1-58-178.7-61-182.9-61z"/>
</g>
<g id="Award_1_">
	<path class="st0" d="M92.1-107.4l-2.9-1.7l-3.4,0l-1.7-2.9l-2.9-1.7l0-3.4l-1.7-2.9l1.7-2.9l0-3.4l2.9-1.7l1.7-2.9l3.4,0l2.9-1.7
		l2.9,1.7l3.4,0l1.7,2.9l2.9,1.7l0,3.4l1.7,2.9l-1.7,2.9l0,3.4l-2.9,1.7l-1.7,2.9l-3.4,0L92.1-107.4z M89.7-111.1l2.4,1.4l2.4-1.4
		l2.7,0l1.4-2.4l2.4-1.4l0-2.7l1.4-2.4l-1.4-2.4l0-2.7l-2.4-1.4l-1.4-2.4l-2.7,0l-2.4-1.4l-2.4,1.4l-2.7,0l-1.4,2.4l-2.4,1.4l0,2.7
		l-1.4,2.4l1.4,2.4l0,2.7l2.4,1.4l1.4,2.4L89.7-111.1z"/>
	<path class="st0" d="M92-112c-1,0-2-0.2-3-0.6c-2-0.8-3.5-2.3-4.4-4.3c-0.8-2-0.9-4.1-0.1-6.1s2.3-3.5,4.3-4.4
		c2-0.8,4.1-0.9,6.1-0.1c2,0.8,3.5,2.3,4.4,4.3c0.8,2,0.9,4.1,0.1,6.1s-2.3,3.5-4.3,4.4C94.1-112.2,93.1-112,92-112z M92-126
		c-0.8,0-1.6,0.2-2.4,0.5c-1.5,0.6-2.6,1.8-3.2,3.3c-0.6,1.5-0.6,3.1,0.1,4.6c0.6,1.5,1.8,2.6,3.3,3.2c1.5,0.6,3.1,0.6,4.6-0.1
		c1.5-0.6,2.6-1.8,3.2-3.3v0c0.6-1.5,0.6-3.1-0.1-4.6c-0.6-1.5-1.8-2.6-3.3-3.2C93.5-125.9,92.8-126,92-126z"/>
	<path class="st0" d="M85.7-90l-4.6-3.6l-4.9,0.8l5.3-16.4l9.4,3L85.7-90z M81.7-95.8l3,2.4l3.7-11.5l-5.6-1.8l-3.7,11.4L81.7-95.8z
		"/>
	<path class="st0" d="M98-90l-5.2-16.2l9.4-3l5.3,16.4l-4.9-0.8L98-90z M95.3-105L99-93.4l3-2.4l2.6,0.4l-3.7-11.4L95.3-105z"/>
</g>
<g id="Clipboard_1_">
	<path class="st0" d="M31-131v-2H16v2H8v41h31v-41H31z M18-131h11v1h-1v2h-9v-2h-1V-131z M37-92H10v-37h6v1h1v2h13v-2h1v-1h6V-92z"
		/>
	<rect x="12" y="-122" class="st0" width="15" height="2"/>
	<rect x="12" y="-108" class="st0" width="13" height="2"/>
	<rect x="12" y="-115" class="st0" width="17" height="2"/>
	<rect x="12" y="-101" class="st0" width="15" height="2"/>
</g>
<g id="Stopwatch_1_">
	<path class="st0" d="M-41-129.7v-2.3h1c0.6,0,1-0.4,1-1s-0.4-1-1-1h-2h-4h-2c-0.6,0-1,0.4-1,1s0.4,1,1,1h1v2.3
		c-9.6,1.5-17,9.7-17,19.7c0,11,9,20,20,20c11,0,20-9,20-20C-24-120-31.4-128.3-41-129.7z M-45-130v-2h2v2H-45z M-44-92
		c-9.9,0-18-8.1-18-18c0-9.9,8.1-18,18-18c9.9,0,18,8.1,18,18C-26-100.1-34.1-92-44-92z"/>
	<path class="st0" d="M-44-126c-8.8,0-16,7.2-16,16s7.2,16,16,16s16-7.2,16-16S-35.2-126-44-126z M-44-96c-7.7,0-14-6.3-14-14
		s6.3-14,14-14s14,6.3,14,14S-36.3-96-44-96z"/>
	<path class="st0" d="M-36.7-118.7l-6,6c-0.4-0.2-0.8-0.3-1.3-0.3c-1.3,0-2.4,0.8-2.8,2H-54c-0.6,0-1,0.4-1,1s0.4,1,1,1h7.2
		c0.4,1.2,1.5,2,2.8,2c1.7,0,3-1.3,3-3c0-0.5-0.1-0.9-0.3-1.3l6-6c0.4-0.4,0.4-1,0-1.4S-36.3-119.1-36.7-118.7z M-44-109
		c-0.6,0-1-0.4-1-1s0.4-1,1-1c0,0.3,0.1,0.5,0.3,0.7s0.5,0.3,0.7,0.3C-43-109.4-43.4-109-44-109z"/>
</g>
<g id="Bulb_1_">
	<g>
		<path class="st0" d="M-115.8-99.1h-1v-2.7c-1-0.8-1.7-2-1.7-3.3c0.3-2.8-2.1-6.8-3.1-8.4c-0.2-0.3-0.4-0.6-0.6-0.9l-0.5-0.7
			l0.1-0.1c-1-1.9-1.5-4-1.5-6.1c0-7.4,6-13.4,13.4-13.4s13.4,6,13.4,13.4c0,2.1-0.5,4.2-1.5,6.1l0,0.1l-0.5,0.7
			c-0.2,0.3-0.4,0.6-0.6,0.9c-1,1.5-3.3,5.5-3,8.1c0,1.2,0,3-1,4v2.1h-1c-1.1,0-3.5,0-5.9,0C-112.9-99.1-114.9-99.1-115.8-99.1z
			 M-120.4-115.5L-120.4-115.5c0.2,0.3,0.4,0.6,0.6,0.8c1.4,2.2,3.7,6.4,3.4,9.6c0,0.7,0.4,1.4,1.1,1.8l0.5,0.3v1.9c1,0,2.5,0,4,0
			c1.8,0,3.6,0,4.9,0v-1.2l0.5-0.3c0.5-0.3,0.5-1.9,0.5-2.5c-0.3-3.1,2-7.2,3.4-9.4c0.2-0.3,0.4-0.6,0.6-0.9l0.1-0.1
			c1-1.7,1.6-3.7,1.6-5.7c0-6.3-5.1-11.4-11.4-11.4s-11.4,5.1-11.4,11.4C-122-119.3-121.5-117.3-120.4-115.5L-120.4-115.5z"/>
	</g>
	<rect x="-117" y="-98" class="st0" width="13" height="2"/>
	<rect x="-117" y="-95.1" class="st0" width="13" height="2"/>
	<rect x="-114" y="-92" class="st0" width="7" height="2"/>
</g>
<g id="Trash_1_">
	<path class="st0" d="M-188-121c-0.6,0-1,0.4-1,1v22c0,0.6,0.4,1,1,1s1-0.4,1-1v-22C-187-120.6-187.4-121-188-121z"/>
	<path class="st0" d="M-180-121c-0.6,0-1,0.4-1,1v22c0,0.6,0.4,1,1,1s1-0.4,1-1v-22C-179-120.6-179.4-121-180-121z"/>
	<path class="st0" d="M-172-97c0.6,0,1-0.4,1-1v-22c0-0.6-0.4-1-1-1s-1,0.4-1,1v22C-173-97.4-172.6-97-172-97z"/>
	<path class="st0" d="M-164-125h-3h-8v-3c0-0.6-0.4-1-1-1h-8c-0.6,0-1,0.4-1,1v3h-8h-3c-0.6,0-1,0.4-1,1s0.4,1,1,1h2v29
		c0,0.6,0.4,1,1,1h26c0.6,0,1-0.4,1-1v-29h2c0.6,0,1-0.4,1-1S-163.4-125-164-125z M-183-127h6v2h-6V-127z M-168-95h-24v-28h8h8h8
		V-95z"/>
</g>
<g id="Bolt_1_">
	<path class="st0" d="M85-158c-0.1,0-0.2,0-0.3-0.1c-0.4-0.2-0.7-0.6-0.6-1.1l2.8-19.9H82c-0.3,0-0.6-0.2-0.8-0.4
		c-0.2-0.3-0.2-0.6-0.1-0.9l7-22c0.1-0.4,0.5-0.7,1-0.7h15c0.3,0,0.7,0.2,0.8,0.5c0.2,0.3,0.2,0.7,0.1,1L98.6-188h4.4
		c0.4,0,0.7,0.2,0.9,0.5c0.2,0.3,0.2,0.7,0,1l-18,28C85.7-158.2,85.3-158,85-158z M83.4-181H88c0.3,0,0.6,0.1,0.8,0.3
		c0.2,0.2,0.3,0.5,0.2,0.8l-2.4,16.5l14.5-22.6H97c-0.3,0-0.7-0.2-0.8-0.5c-0.2-0.3-0.2-0.7-0.1-1l6.3-13.6H89.7L83.4-181z"/>
</g>
<g id="Magnifying_Glass_1_">
	<path class="st0" d="M37.4-194.1c-2.1-2.1-4.9-3.2-7.8-3.2c-2.9,0-5.7,1.1-7.8,3.2c-4.3,4.3-4.3,11.3,0,15.6
		c2.1,2.1,4.9,3.2,7.8,3.2c2.9,0,5.7-1.1,7.8-3.2C41.7-182.8,41.7-189.8,37.4-194.1z M36-179.9c-1.7,1.7-4,2.6-6.4,2.6
		c-2.4,0-4.7-0.9-6.4-2.6c-3.5-3.5-3.5-9.3,0-12.8c1.7-1.7,4-2.6,6.4-2.6c2.4,0,4.7,0.9,6.4,2.6C39.5-189.2,39.5-183.5,36-179.9z"/>
	<path class="st0" d="M40.6-197.3c-6-6-15.9-6-21.9,0c-4.7,4.7-5.7,11.6-3.1,17.3c0,0,0,0,0,0L2.1-166.5c-0.2,0.2-0.3,0.4-0.3,0.7
		s0.1,0.5,0.3,0.7l6.3,6.3c0.2,0.2,0.5,0.3,0.7,0.3s0.5-0.1,0.7-0.3l13.4-13.4c0,0,0,0,0,0c2,0.9,4.1,1.4,6.4,1.4
		c4.1,0,8-1.6,11-4.5c2.9-2.9,4.5-6.8,4.5-11S43.5-194.4,40.6-197.3z M21.1-172.9l-12,12l-4.9-4.9l12-12l2.4,2.4c0,0,0,0,0,0
		c0,0,0,0,0,0L21.1-172.9z M39.2-176.8c-2.5,2.5-5.9,4-9.5,4c-3.6,0-7-1.4-9.5-4l0,0c-5.3-5.3-5.3-13.8,0-19.1
		c2.6-2.6,6.1-3.9,9.5-3.9c3.5,0,6.9,1.3,9.5,3.9c2.5,2.5,4,5.9,4,9.5S41.7-179.3,39.2-176.8z"/>
</g>
<g id="Pencil_1_">
	<path class="st0" d="M-21.6-193.2l-8.6-8.6c-0.4-0.4-1-0.4-1.4,0l-31.8,31.8c-0.1,0.1-0.2,0.3-0.3,0.4l-2.7,10.8
		c-0.1,0.3,0,0.7,0.2,0.9c0.2,0.2,0.4,0.3,0.7,0.3c0.1,0,0.1,0,0.2,0l11.3-2.3c0.2,0,0.4-0.1,0.5-0.3l31.8-31.8
		C-21.3-192.2-21.3-192.8-21.6-193.2z M-36.7-193.7l7.1,7.1l-1.6,1.6l-7.1-7.1c0,0-0.1-0.1-0.1-0.1l1.6-1.6
		C-36.7-193.8-36.7-193.8-36.7-193.7z M-63-164.1l3.5,3.5l-4.7,0.9L-63-164.1z M-54.6-161.5l-2.8,0.6c0-0.2-0.1-0.3-0.2-0.5
		l-4.5-4.5c-0.1-0.1-0.2-0.2-0.3-0.2l0.6-2.6l22.2-22.2c0,0,0,0.1,0.1,0.1l7.1,7.1L-54.6-161.5z M-28.2-188l-7.1-7.1
		c0,0-0.1-0.1-0.1-0.1l4.5-4.5l7.2,7.2L-28.2-188z"/>
</g>
<g id="Chart_Up">
	<path class="st0" d="M-98.8-188.3l1.5-6.8c0.1-0.5-0.2-1.1-0.8-1.2l-6.8-1.5c-0.5-0.1-1.1,0.2-1.2,0.8c-0.1,0.5,0.2,1.1,0.8,1.2
		l4.5,1l-29.3,18.9l1.1,1.7l29.3-18.9l-1,4.5c-0.1,0.3,0,0.5,0.1,0.7c0.1,0.2,0.4,0.4,0.6,0.4C-99.5-187.4-98.9-187.7-98.8-188.3z"
		/>
	<path class="st0" d="M-91-194c-0.6,0-1,0.4-1,1v29h-2v-20c0-0.6-0.4-1-1-1h-6c-0.6,0-1,0.4-1,1v20h-2v-15c0-0.6-0.4-1-1-1h-6
		c-0.6,0-1,0.4-1,1v15h-2v-10c0-0.6-0.4-1-1-1h-6c-0.6,0-1,0.4-1,1v10h-2v-5c0-0.6-0.4-1-1-1h-6c-0.6,0-1,0.4-1,1v5h-1
		c-0.6,0-1,0.4-1,1s0.4,1,1,1h2h6h4h6h4h6h4h6h5v-31C-90-193.6-90.4-194-91-194z M-130-164v-4h4v4H-130z M-120-164v-9h4v9H-120z
		 M-110-164v-14h4v14H-110z M-100-164v-19h4v19H-100z"/>
</g>
<g id="Graph_2_">
	<path class="st0" d="M-159-194c-0.6,0-1,0.4-1,1v29h-2v-27c0-0.6-0.4-1-1-1h-6c-0.6,0-1,0.4-1,1v27h-2v-18c0-0.6-0.4-1-1-1h-6
		c-0.6,0-1,0.4-1,1v18h-2v-21c0-0.6-0.4-1-1-1h-6c-0.6,0-1,0.4-1,1v21h-2v-16c0-0.6-0.4-1-1-1h-6c-0.6,0-1,0.4-1,1v16h-1
		c-0.6,0-1,0.4-1,1s0.4,1,1,1h2h6h4h6h4h6h4h6h5v-31C-158-193.6-158.4-194-159-194z M-198-164v-15h4v15H-198z M-188-164v-20h4v20
		H-188z M-178-164v-17h4v17H-178z M-168-164v-26h4v26H-168z"/>
</g>
<g id="Mail_1_">
	<path class="st0" d="M115-263c0-0.5-0.4-1-1-1H70c-0.5,0-1,0.4-1,1v31.1c0,0.5,0.4,1,1,1H114c0.5,0,1-0.4,1-1V-263z M111.7-262
		l-19.5,18.9L72.6-262H111.7z M71-233v-27.4l20.4,19.6c0.2,0.2,0.5,0.3,0.7,0.3c0.2,0,0.5-0.1,0.7-0.3l20.3-19.6v27.4H71z"/>
</g>
<g id="Pin_1_">
	<path class="st0" d="M23.6-225.8c-0.3,0-0.6-0.2-0.8-0.4c-0.6-0.9-14-21.2-14-29.1c0-8.2,6.6-14.8,14.8-14.8s14.8,6.6,14.8,14.8
		c0,7.8-13.4,28.2-14,29.1C24.3-226,23.9-225.8,23.6-225.8z M23.6-268.2c-7.1,0-12.8,5.7-12.8,12.8c0,6.2,9.8,22,12.8,26.7
		c3-4.6,12.8-20.5,12.8-26.7C36.4-262.4,30.7-268.2,23.6-268.2z"/>
	<path class="st0" d="M23.6-248.9c-3.6,0-6.5-2.9-6.5-6.5s2.9-6.5,6.5-6.5s6.5,2.9,6.5,6.5S27.2-248.9,23.6-248.9z M23.6-259.9
		c-2.5,0-4.5,2-4.5,4.5s2,4.5,4.5,4.5c2.5,0,4.5-2,4.5-4.5S26.1-259.9,23.6-259.9z"/>
</g>
<g id="House_1_">
	<path class="st0" d="M-21.6-255.9l-22-11c-0.3-0.1-0.6-0.1-0.9,0l-22,11c-0.5,0.2-0.7,0.8-0.4,1.3c0.2,0.5,0.8,0.7,1.3,0.4l4.6-2.3
		v28.4c0,0.6,0.4,1,1,1h11h10h11c0.6,0,1-0.4,1-1v-28.4l4.6,2.3c0.1,0.1,0.3,0.1,0.4,0.1c0.4,0,0.7-0.2,0.9-0.6
		C-20.9-255-21.1-255.6-21.6-255.9z M-48-229v-16h8v16H-48z M-29-229h-9v-16.9c0-0.6-0.4-1.1-1-1.1h-10c-0.6,0-1,0.5-1,1.1v16.9h-9
		v-28.4l15-7.5l15,7.5V-229z"/>
</g>
<g id="Money_1_">
	<rect x="-125" y="-238" class="st0" width="5" height="2"/>
	<rect x="-129" y="-245" class="st0" width="5" height="2"/>
	<rect x="-103" y="-261" class="st0" width="5" height="2"/>
	<path class="st0" d="M-94-258v-7h-40v26h4v7h40v-26H-94z M-132-241v-22h36v5v17h-34H-132z M-92-234h-36v-5h34v-12h1v-2h-1v-3h2
		V-234z"/>
	<path class="st0" d="M-112.6-246h-2.8c-2.5,0-4.6-2.1-4.6-4.6v-2.8c0-2.5,2.1-4.6,4.6-4.6h2.8c2.5,0,4.6,2.1,4.6,4.6v2.8
		C-108-248.1-110.1-246-112.6-246z M-115.4-256c-1.4,0-2.6,1.2-2.6,2.6v2.8c0,1.4,1.2,2.6,2.6,2.6h2.8c1.4,0,2.6-1.2,2.6-2.6v-2.8
		c0-1.4-1.2-2.6-2.6-2.6H-115.4z"/>
</g>
<g id="Shopping_Cart">
	<path class="st0" d="M-189.5-227.9c-1.8,0-3.3-1.5-3.3-3.3s1.5-3.3,3.3-3.3s3.3,1.5,3.3,3.3S-187.7-227.9-189.5-227.9z
		 M-189.5-232.5c-0.7,0-1.3,0.6-1.3,1.3c0,0.7,0.6,1.3,1.3,1.3c0.7,0,1.3-0.6,1.3-1.3C-188.2-231.9-188.8-232.5-189.5-232.5z"/>
	<path class="st0" d="M-168.5-227.9c-1.8,0-3.3-1.5-3.3-3.3s1.5-3.3,3.3-3.3s3.3,1.5,3.3,3.3S-166.6-227.9-168.5-227.9z
		 M-168.5-232.5c-0.7,0-1.3,0.6-1.3,1.3c0,0.7,0.6,1.3,1.3,1.3s1.3-0.6,1.3-1.3C-167.2-231.9-167.7-232.5-168.5-232.5z"/>
	<path class="st0" d="M-158-266h-7c-0.6,0-1,0.4-1,1v4h-35c-0.3,0-0.6,0.1-0.8,0.4s-0.3,0.5-0.2,0.8l3.8,19c0.1,0.5,0.5,0.8,1,0.8
		h31.2v3h-28c-0.6,0-1,0.4-1,1s0.4,1,1,1h29c0.6,0,1-0.4,1-1v-28h6c0.6,0,1-0.4,1-1S-157.4-266-158-266z M-196.4-242l-3.4-17h33.8
		v17H-196.4z"/>
</g>
</svg>
