<?xml version="1.0" encoding="utf-8"?>
<!-- Generator: Adobe Illustrator 21.0.2, SVG Export Plug-In . SVG Version: 6.00 Build 0)  -->
<svg version="1.1" xmlns="http://www.w3.org/2000/svg" xmlns:xlink="http://www.w3.org/1999/xlink" x="0px" y="0px"
	 viewBox="0 0 48 48" style="enable-background:new 0 0 48 48;" xml:space="preserve">
<style type="text/css">
	.st0{fill:#6B6B6B;}
	.st1{fill:none;stroke:#6B6B6B;}
	.st2{fill:none;stroke:#6B6B6B;stroke-width:3;stroke-linecap:round;stroke-linejoin:round;stroke-miterlimit:10;}
	.st3{fill:none;stroke:#6B6B6B;stroke-width:3;stroke-linecap:round;stroke-linejoin:round;}
	.st4{fill:none;stroke:#6B6B6B;stroke-linecap:round;stroke-linejoin:round;stroke-miterlimit:10;}
	.st5{fill:none;stroke:#636466;stroke-width:3;stroke-linecap:round;stroke-linejoin:round;stroke-miterlimit:10;}
</style>
<g id="Monitor_1_">
	<path class="st0" d="M177.4,209h-34.8c-2.5,0-4.6,2.1-4.6,4.6v21.8c0,2.5,2.1,4.6,4.6,4.6H153v4h-1.8c-0.6,0-1,0.4-1,1s0.4,1,1,1
		H169c0.6,0,1-0.4,1-1s-0.4-1-1-1h-2v-4h10.4c2.5,0,4.6-2.1,4.6-4.6v-21.8C182,211.1,179.9,209,177.4,209z M165,240v4h-10v-4H165z
		 M140,213.6c0-1.4,1.2-2.6,2.6-2.6h34.8c1.4,0,2.6,1.2,2.6,2.6V233c0,0-0.1,0-0.1,0H140V213.6z M177.4,238h-34.8
		c-1.4,0-2.6-1.2-2.6-2.6V235h39.9c0,0,0.1,0,0.1,0v0.4C180,236.8,178.8,238,177.4,238z"/>
	<g>
		<path class="st1" d="M-44.4,267.6c-0.1,0.1-6.1,6.1-15.6,3.1l-0.6-0.2l-0.1,0.6c-0.1,0.6-2.2,15.9-1,21.8l0,0.1l0,0.1
			c0.1,0.1,6.1,10.8,17.4,15.7l0.2,0.1l0.2-0.1c11.3-4.9,17.3-15.6,17.4-15.7l0-0.1l0-0.1c0.5-2.5,0.5-6.9-0.1-13.2
			c-0.2-2.4-0.5-4.6-0.6-6.1l-0.2-1.9c-0.1-1-0.1-1-0.4-1.1l-0.2-0.1l-0.2,0.1c-9.6,3-15.6-3-15.6-3.1l-0.4-0.4L-44.4,267.6z"/>
	</g>
	<g>
		<path class="st0" d="M-44,269.3c1.5,1.2,5.2,3.7,10.6,3.7c1.5,0,3.1-0.2,4.6-0.6c0.5,3.7,1.8,15.1,0.9,20
			c-0.7,1.2-6.3,10.3-16.2,14.7c-9.9-4.4-15.5-13.5-16.2-14.7c-0.9-4.9,0.4-16.3,0.9-20c1.6,0.4,3.1,0.6,4.6,0.6
			C-49.2,273-45.5,270.5-44,269.3 M-44,267.9c0,0-3.9,4.1-10.6,4.1c-1.7,0-3.5-0.3-5.5-0.9c0,0-2.2,15.7-1,21.6
			c0,0,5.9,10.6,17.2,15.5c11.3-4.8,17.2-15.5,17.2-15.5c1.2-5.9-1-21.6-1-21.6c-2,0.6-3.8,0.9-5.5,0.9C-40.1,272-44,267.9-44,267.9
			L-44,267.9z"/>
	</g>
	<g>
		<path class="st0" d="M-44,274.5c1.6,1.1,4.5,2.7,8.5,2.7c0.9,0,1.8-0.1,2.7-0.2c0.5,4.1,1.1,11,0.6,14.1
			c-0.8,1.4-4.9,7.6-11.8,10.9c-6.9-3.3-11-9.5-11.8-10.9c-0.5-3.2,0.1-10,0.6-14.1c0.9,0.2,1.8,0.2,2.7,0.2
			C-48.6,277.2-45.6,275.7-44,274.5 M-44,272c0,0-3.2,3.3-8.5,3.3c-1.3,0-2.8-0.2-4.4-0.7c0,0-1.8,12.6-0.8,17.3
			c0,0,4.7,8.5,13.7,12.4c9-3.9,13.7-12.4,13.7-12.4c0.9-4.7-0.8-17.3-0.8-17.3c-1.6,0.5-3.1,0.7-4.4,0.7C-40.9,275.2-44,272-44,272
			L-44,272z"/>
	</g>
	<polyline class="st2" points="-125.7,290.4 -117.7,296.1 -98.4,277.7 	"/>
	<circle class="st0" cx="23.5" cy="274.5" r="7"/>
	<path class="st0" d="M23.5,283.5L23.5,283.5c-3.9,0-7,3.1-7,7v3c0,3.9,3.1,7,7,7h0c3.8,0,7-3.1,7-7v-3
		C30.5,286.6,27.4,283.5,23.5,283.5z"/>
	<circle class="st0" cx="8.5" cy="280.5" r="5.5"/>
	<path class="st0" d="M8.5,287.6L8.5,287.6c-3,0-5.5,2.5-5.5,5.5v2.4c0,3,2.5,5.5,5.5,5.5h0c3,0,5.5-2.5,5.5-5.5v-2.4
		C14,290.1,11.5,287.6,8.5,287.6z"/>
	<circle class="st0" cx="38.5" cy="280.5" r="5.5"/>
	<path class="st0" d="M38.5,287.6L38.5,287.6c-3,0-5.5,2.5-5.5,5.5v2.4c0,3,2.5,5.5,5.5,5.5h0c3,0,5.5-2.5,5.5-5.5v-2.4
		C44,290.1,41.5,287.6,38.5,287.6z"/>
	<g>
		<g>
			<path class="st3" d="M105.4,268.4c0,0,0,4.2,0,5c-0.8,0-3.4,0-4.2,0c0-0.9,0-5,0-5h-6.3c0,0,0,4.2,0,5c-0.8,0-3.4,0-4.2,0
				c0-0.9,0-5,0-5h-6.3c0,0,0,4.2,0,5c-0.8,0-3.4,0-4.2,0c0-0.9,0-5,0-5h-6.3l0,0.5c-0.1,1-1.9,24.5,4.3,31.7
				c6.7,7.8,14.2,8.9,14.6,8.9l0.1,0l0.1,0c0.3,0,7.9-1.1,14.6-8.9c6.2-7.2,4.4-30.7,4.3-31.6l0-0.5H105.4z"/>
		</g>
	</g>
	<g>
		<path class="st3" d="M82.7,297.6c4.7,5.5,10.1,6.2,10.1,6.2s5.4-0.7,10.1-6.2c2.8-3.2,3.2-11.5,3.2-17H79.5
			C79.4,286.1,79.9,294.3,82.7,297.6z"/>
	</g>
	<polygon class="st2" points="159.2,274 140,281.9 159.2,289.5 178.6,281.7 	"/>
	<path class="st2" d="M147.6,286.4v9.1c0,0,4.3,3.5,11.3,3.4c7-0.1,11.5-3,11.5-3v-9.5"/>
	<line class="st4" x1="177" y1="281.9" x2="177" y2="287.1"/>
	<circle class="st0" cx="177" cy="287" r="1"/>
	<polygon class="st0" points="177,287 175.2,290 178.7,290 	"/>
	<path class="st5" d="M-124,333.4c0,0-12.1,5-1.1,20.4s23.1,16.3,25,16c1.8-0.3,7.1-6.4,7.1-6.4l-8.6-8.8l-5.9,5.3l-12.7-12.4
		l5.6-5.3L-124,333.4z"/>
</g>
<g id="Computer_1_">
	<path class="st0" d="M113.9,240.6l-3.9-8.8V210c0-0.6-0.4-1-1-1H75c-0.6,0-1,0.4-1,1v21.8l-3.9,8.8c-0.1,0.3-0.1,0.7,0.1,1
		s0.5,0.5,0.8,0.5h42c0.3,0,0.7-0.2,0.8-0.5S114.1,240.9,113.9,240.6z M76,211h32v20H76V211z M72.5,240l3.1-7h32.7l3.1,7H72.5z"/>
	<path class="st0" d="M105,213H79c-0.6,0-1,0.4-1,1v14c0,0.6,0.4,1,1,1h26c0.6,0,1-0.4,1-1v-14C106,213.4,105.6,213,105,213z
		 M104,227H80v-12h24V227z"/>
</g>
<g id="Wifi_1_">
	<path class="st0" d="M24.3,242.5c-2.4,0-4.3-1.9-4.3-4.3s1.9-4.3,4.3-4.3s4.3,1.9,4.3,4.3S26.7,242.5,24.3,242.5z M24.3,236.1
		c-1.1,0-2,0.9-2,2c0,1.1,0.9,2,2,2c1.1,0,2-0.9,2-2C26.4,237,25.5,236.1,24.3,236.1z"/>
	<g>
		<path class="st0" d="M24.3,243"/>
		<path class="st0" d="M43.6,224.9c-0.3,0-0.7-0.2-0.9-0.5c-4.4-5.8-11-9.2-18.3-9.2s-13.9,3.3-18.3,9.2c-0.4,0.5-1.1,0.6-1.6,0.2
			c-0.5-0.4-0.6-1.1-0.2-1.6C9,216.7,16.4,213,24.3,213c8,0,15.3,3.7,20.1,10.1c0.4,0.5,0.3,1.2-0.2,1.6
			C44,224.8,43.8,224.9,43.6,224.9z"/>
	</g>
	<g>
		<path class="st0" d="M24.3,243"/>
		<path class="st0" d="M39.4,229.1c-0.4,0-0.7-0.2-0.9-0.5c-3.2-4.7-8.5-7.5-14.1-7.5s-10.9,2.8-14.1,7.5c-0.3,0.5-1,0.6-1.6,0.3
			c-0.5-0.3-0.6-1-0.3-1.6c3.6-5.3,9.6-8.5,16-8.5c6.4,0,12.4,3.2,16,8.5c0.3,0.5,0.2,1.2-0.3,1.6C39.8,229,39.6,229.1,39.4,229.1z"
			/>
	</g>
	<g>
		<path class="st0" d="M35.7,232.7c-0.4,0-0.8-0.2-1-0.6c-2.2-3.7-6.1-6-10.4-6c-4.3,0-8.3,2.3-10.4,6c-0.3,0.5-1,0.7-1.5,0.4
			c-0.5-0.3-0.7-1-0.4-1.5c2.6-4.4,7.3-7.2,12.4-7.2c5.1,0,9.8,2.7,12.4,7.2c0.3,0.5,0.1,1.2-0.4,1.5
			C36.1,232.7,35.9,232.7,35.7,232.7z"/>
		<path class="st0" d="M12.9,231.6"/>
		<path class="st0" d="M35.7,231.6"/>
	</g>
	<g>
		<path class="st0" d="M24.3,243"/>
		<path class="st0" d="M32,236.5c-0.5,0-0.9-0.3-1.1-0.7c-1-2.8-3.7-4.6-6.6-4.6c-2.9,0-5.6,1.9-6.6,4.6c-0.2,0.6-0.9,0.9-1.4,0.7
			c-0.6-0.2-0.9-0.9-0.7-1.4c1.3-3.6,4.8-6.1,8.7-6.1c3.9,0,7.4,2.4,8.7,6.1c0.2,0.6-0.1,1.2-0.7,1.4
			C32.3,236.4,32.1,236.5,32,236.5z"/>
		<path class="st0" d="M16.7,235.3"/>
		<path class="st0" d="M24.3,243"/>
		<path class="st0" d="M32,235.3"/>
	</g>
</g>
<g id="Credit_Card_1_">
	<path class="st0" d="M-28.6,213h-27.8c-2.4,0-4.3,1.8-4.5,4.1c-2.3,0.3-4.1,2.2-4.1,4.5v16.8c0,2.5,2.1,4.6,4.6,4.6h27.8
		c2.4,0,4.3-1.8,4.5-4.1c2.3-0.3,4.1-2.2,4.1-4.5v-16.8C-24,215.1-26.1,213-28.6,213z M-30,238.4c0,1.4-1.2,2.6-2.6,2.6h-27.8
		c-1.4,0-2.6-1.2-2.6-2.6v-16.8c0-1.4,1.2-2.6,2.6-2.6h27.8c1.4,0,2.6,1.2,2.6,2.6V238.4z M-26,234.4c0,1.2-0.9,2.3-2,2.5v-15.3
		c0-2.5-2.1-4.6-4.6-4.6h-26.3c0.3-1.1,1.3-2,2.5-2h27.8c1.4,0,2.6,1.2,2.6,2.6V234.4z"/>
	<path class="st0" d="M-40,223"/>
	<path class="st0" d="M-60,223"/>
	<rect x="-60" y="233" class="st0" width="7" height="2"/>
	<rect x="-60" y="237" class="st0" width="10" height="2"/>
	<path class="st0" d="M-35,233c-0.8,0-1.5,0.3-2,0.8c-0.5-0.5-1.2-0.8-2-0.8c-1.7,0-3,1.3-3,3s1.3,3,3,3c0.8,0,1.5-0.3,2-0.8
		c0.5,0.5,1.2,0.8,2,0.8c1.7,0,3-1.3,3-3S-33.3,233-35,233z M-39,237c-0.6,0-1-0.4-1-1s0.4-1,1-1s1,0.4,1,1S-38.4,237-39,237z
		 M-35,237c-0.6,0-1-0.4-1-1s0.4-1,1-1s1,0.4,1,1S-34.4,237-35,237z"/>
	<path class="st0" d="M-40,225.1"/>
	<path class="st0" d="M-60,225.1"/>
	<rect x="-60" y="222" class="st0" width="20" height="3"/>
</g>
<g id="Lock_1_">
	<path class="st0" d="M-101,222.3V221c0-6.1-4.9-11-11-11s-11,4.9-11,11v1.1c-2.3,0.3-4,2.2-4,4.5v15.8c0,2.5,2.1,4.6,4.6,4.6h19.8
		c2.5,0,4.6-2.1,4.6-4.6v-15.8C-98,224.6-99.3,223-101,222.3z M-121,221c0-5,4-9,9-9s9,4,9,9v1h-4v-1c0-2.8-2.2-5-5-5s-5,2.2-5,5v1
		h-4V221z M-109,222h-6v-1c0-1.7,1.3-3,3-3s3,1.3,3,3V222z M-100,242.4c0,1.4-1.2,2.6-2.6,2.6h-19.8c-1.4,0-2.6-1.2-2.6-2.6v-15.8
		c0-1.4,1.2-2.6,2.6-2.6h5.4h10h4.4c1.4,0,2.6,1.2,2.6,2.6V242.4z"/>
</g>
<g id="Documents_1_">
	<path class="st0" d="M177.6,147.2l-12-10c-0.2-0.1-0.4-0.2-0.6-0.2h-18c-0.6,0-1,0.4-1,1v3h-3c-0.6,0-1,0.4-1,1v39c0,0.6,0.4,1,1,1
		h30c0.6,0,1-0.4,1-1v-3h3c0.6,0,1-0.4,1-1v-29C178,147.7,177.9,147.4,177.6,147.2z M175.4,148H165v-8.7L175.4,148z M172,180h-28
		v-37h2v34c0,0.6,0.4,1,1,1h25V180z M148,176v-37h15v10c0,0.6,0.4,1,1,1h12v26H148z"/>
</g>
<g id="Phone_1_">
	<path class="st0" d="M102,181H80c-0.6,0-1-0.4-1-1v-40c0-0.6,0.4-1,1-1h22c0.6,0,1,0.4,1,1v40C103,180.6,102.6,181,102,181z
		 M81,179h20v-38H81V179z"/>
	<path class="st0" d="M98,172H84c-0.6,0-1-0.4-1-1v-25c0-0.6,0.4-1,1-1h14c0.6,0,1,0.4,1,1v25C99,171.6,98.6,172,98,172z M85,170h12
		v-23H85V170z"/>
	<path class="st0" d="M93.5,144h-5c-0.6,0-1-0.4-1-1s0.4-1,1-1h5c0.6,0,1,0.4,1,1S94.1,144,93.5,144z"/>
	<path class="st0" d="M91,178c-1.4,0-2.5-1.1-2.5-2.5s1.1-2.5,2.5-2.5s2.5,1.1,2.5,2.5S92.4,178,91,178z M91,175
		c-0.3,0-0.5,0.2-0.5,0.5s0.2,0.5,0.5,0.5s0.5-0.2,0.5-0.5S91.3,175,91,175z"/>
</g>
<g id="Download_1_">
	<path class="st0" d="M35,168h-7v-2h5v-1l0.9-0.1c3.4-0.4,7.1-3.5,7.1-7.3c0-4.1-3.1-7.3-7-7.3c-1,0-1.8,0.2-2.8,0.6l-1.1,0.5
		l-0.2-1.2c-0.8-4.2-4.5-7.2-8.7-7.2c-4.8,0-8.6,3.7-8.9,8.5l0,0.8l-0.8,0.1c-3,0.4-5.4,3.4-5.4,6.7c0,3.6,3,6.8,6.3,6.8H18v2h-5.7
		c-4.4,0-8.3-4.1-8.3-8.8c0-4,2.8-7.6,6.3-8.6c0.6-5.5,5.2-9.6,10.8-9.6c4.8,0,8.9,3.2,10.3,7.7c0.8-0.2,1.6-0.4,2.5-0.4
		c5.1,0,9,4.1,9,9.3c0,4.7-4,8.2-7.9,9.1V168z"/>
	<path class="st0" d="M28.6,171.3c-0.4-0.4-1-0.4-1.4,0l-3.2,3.2V160h-2v14.6l-3.3-3.2c-0.4-0.4-1-0.4-1.4,0s-0.4,1,0,1.4l4.9,5
		c0.2,0.2,0.4,0.3,0.7,0.3s0.5-0.1,0.7-0.3l4.9-5C29,172.4,29,171.7,28.6,171.3z"/>
</g>
<g id="Upload_1_">
	<path class="st0" d="M-33,168h-7v-2h5v-1l0.9-0.1c3.4-0.4,7.1-3.5,7.1-7.3c0-4.1-3.1-7.3-7-7.3c-1,0-1.8,0.2-2.8,0.6l-1.1,0.5
		l-0.2-1.2c-0.8-4.2-4.5-7.2-8.7-7.2c-4.8,0-8.6,3.7-8.9,8.5l0,0.8l-0.8,0.1c-3,0.4-5.4,3.4-5.4,6.7c0,3.6,3,6.8,6.3,6.8h5.7v2h-5.7
		c-4.4,0-8.3-4.1-8.3-8.8c0-4,2.8-7.6,6.3-8.6c0.6-5.5,5.2-9.6,10.8-9.6c4.8,0,8.9,3.2,10.3,7.7c0.8-0.2,1.6-0.4,2.5-0.4
		c5.1,0,9,4.1,9,9.3c0,4.7-4,8.2-7.9,9.1V168z"/>
	<path class="st0" d="M-39.4,160.2l-4.9-5c-0.4-0.4-1-0.4-1.4,0l-4.9,5c-0.4,0.4-0.4,1,0,1.4s1,0.4,1.4,0l3.3-3.2V173h2v-14.6
		l3.2,3.2c0.2,0.2,0.4,0.3,0.7,0.3s0.5-0.1,0.7-0.3C-39,161.3-39,160.6-39.4,160.2z"/>
</g>
<g id="Cloud_1_">
	<path class="st0" d="M-101,168h-22.7c-4.4,0-8.3-4.1-8.3-8.8c0-4,2.8-7.6,6.3-8.6c0.6-5.5,5.2-9.6,10.8-9.6c4.8,0,8.9,3.2,10.3,7.7
		c0.8-0.2,1.6-0.4,2.5-0.4c5.1,0,9,4.1,9,9.3c0,4.7-4,8.2-7.9,9.1V168z M-114.9,143c-4.8,0-8.6,3.7-8.9,8.5l0,0.8l-0.8,0.1
		c-3,0.4-5.4,3.4-5.4,6.7c0,3.6,3,6.8,6.3,6.8h20.7v-1l0.9-0.1c3.4-0.4,7.1-3.5,7.1-7.3c0-4.1-3.1-7.3-7-7.3c-1,0-1.8,0.2-2.8,0.6
		l-1.1,0.5l-0.2-1.2C-107.1,146-110.7,143-114.9,143z"/>
</g>
<g id="Award_1_">
	<path class="st0" d="M160.1,96.6l-2.9-1.7l-3.4,0l-1.7-2.9l-2.9-1.7l0-3.4l-1.7-2.9l1.7-2.9l0-3.4l2.9-1.7l1.7-2.9l3.4,0l2.9-1.7
		l2.9,1.7l3.4,0l1.7,2.9l2.9,1.7l0,3.4l1.7,2.9l-1.7,2.9l0,3.4l-2.9,1.7l-1.7,2.9l-3.4,0L160.1,96.6z M157.7,92.9l2.4,1.4l2.4-1.4
		l2.7,0l1.4-2.4l2.4-1.4l0-2.7l1.4-2.4l-1.4-2.4l0-2.7l-2.4-1.4l-1.4-2.4l-2.7,0l-2.4-1.4l-2.4,1.4l-2.7,0l-1.4,2.4l-2.4,1.4l0,2.7
		l-1.4,2.4l1.4,2.4l0,2.7l2.4,1.4l1.4,2.4L157.7,92.9z"/>
	<path class="st0" d="M160,92c-1,0-2-0.2-3-0.6c-2-0.8-3.5-2.3-4.4-4.3c-0.8-2-0.9-4.1-0.1-6.1s2.3-3.5,4.3-4.4
		c2-0.8,4.1-0.9,6.1-0.1c2,0.8,3.5,2.3,4.4,4.3c0.8,2,0.9,4.1,0.1,6.1s-2.3,3.5-4.3,4.4C162.1,91.8,161.1,92,160,92z M160,78
		c-0.8,0-1.6,0.2-2.4,0.5c-1.5,0.6-2.6,1.8-3.2,3.3c-0.6,1.5-0.6,3.1,0.1,4.6c0.6,1.5,1.8,2.6,3.3,3.2c1.5,0.6,3.1,0.6,4.6-0.1
		c1.5-0.6,2.6-1.8,3.2-3.3v0c0.6-1.5,0.6-3.1-0.1-4.6c-0.6-1.5-1.8-2.6-3.3-3.2C161.5,78.1,160.8,78,160,78z"/>
	<path class="st0" d="M153.7,114l-4.6-3.6l-4.9,0.8l5.3-16.4l9.4,3L153.7,114z M149.7,108.2l3,2.4l3.7-11.5l-5.6-1.8l-3.7,11.4
		L149.7,108.2z"/>
	<path class="st0" d="M166,114l-5.2-16.2l9.4-3l5.3,16.4l-4.9-0.8L166,114z M163.3,99l3.7,11.5l3-2.4l2.6,0.4l-3.7-11.4L163.3,99z"
		/>
</g>
<g id="Clipboard_1_">
	<path class="st0" d="M99,73v-2H84v2h-8v41h31V73H99z M86,73h11v1h-1v2h-9v-2h-1V73z M105,112H78V75h6v1h1v2h13v-2h1v-1h6V112z"/>
	<rect x="80" y="82" class="st0" width="15" height="2"/>
	<rect x="80" y="96" class="st0" width="13" height="2"/>
	<rect x="80" y="89" class="st0" width="17" height="2"/>
	<rect x="80" y="103" class="st0" width="15" height="2"/>
</g>
<g id="Stopwatch_1_">
	<path class="st0" d="M27,74.3V72h1c0.6,0,1-0.4,1-1s-0.4-1-1-1h-2h-4h-2c-0.6,0-1,0.4-1,1s0.4,1,1,1h1v2.3C11.4,75.7,4,84,4,94
		c0,11,9,20,20,20c11,0,20-9,20-20C44,84,36.6,75.7,27,74.3z M23,74v-2h2v2H23z M24,112c-9.9,0-18-8.1-18-18c0-9.9,8.1-18,18-18
		c9.9,0,18,8.1,18,18C42,103.9,33.9,112,24,112z"/>
	<path class="st0" d="M24,78c-8.8,0-16,7.2-16,16s7.2,16,16,16s16-7.2,16-16S32.8,78,24,78z M24,108c-7.7,0-14-6.3-14-14
		s6.3-14,14-14s14,6.3,14,14S31.7,108,24,108z"/>
	<path class="st0" d="M31.3,85.3l-6,6C24.9,91.1,24.5,91,24,91c-1.3,0-2.4,0.8-2.8,2H14c-0.6,0-1,0.4-1,1s0.4,1,1,1h7.2
		c0.4,1.2,1.5,2,2.8,2c1.7,0,3-1.3,3-3c0-0.5-0.1-0.9-0.3-1.3l6-6c0.4-0.4,0.4-1,0-1.4S31.7,84.9,31.3,85.3z M24,95
		c-0.6,0-1-0.4-1-1s0.4-1,1-1c0,0.3,0.1,0.5,0.3,0.7S24.7,94,25,94C25,94.6,24.6,95,24,95z"/>
</g>
<g id="Bulb_1_">
	<g>
		<path class="st0" d="M-47.8,104.9h-1v-2.7c-1-0.8-1.7-2-1.7-3.3c0.3-2.8-2.1-6.8-3.1-8.4c-0.2-0.3-0.4-0.6-0.6-0.9l-0.5-0.7
			l0.1-0.1c-1-1.9-1.5-4-1.5-6.1c0-7.4,6-13.4,13.4-13.4s13.4,6,13.4,13.4c0,2.1-0.5,4.2-1.5,6.1l0,0.1l-0.5,0.7
			c-0.2,0.3-0.4,0.6-0.6,0.9c-1,1.5-3.3,5.5-3,8.1c0,1.2,0,3-1,4v2.1h-1c-1.1,0-3.5,0-5.9,0C-44.9,104.9-46.9,104.9-47.8,104.9z
			 M-52.4,88.5L-52.4,88.5c0.2,0.3,0.4,0.6,0.6,0.8c1.4,2.2,3.7,6.4,3.4,9.6c0,0.7,0.4,1.4,1.1,1.8l0.5,0.3v1.9c1,0,2.5,0,4,0
			c1.8,0,3.6,0,4.9,0v-1.2l0.5-0.3c0.5-0.3,0.5-1.9,0.5-2.5c-0.3-3.1,2-7.2,3.4-9.4c0.2-0.3,0.4-0.6,0.6-0.9l0.1-0.1
			c1-1.7,1.6-3.7,1.6-5.7c0-6.3-5.1-11.4-11.4-11.4S-54,76.4-54,82.7C-54,84.7-53.5,86.7-52.4,88.5L-52.4,88.5z"/>
	</g>
	<rect x="-49" y="106" class="st0" width="13" height="2"/>
	<rect x="-49" y="108.9" class="st0" width="13" height="2"/>
	<rect x="-46" y="112" class="st0" width="7" height="2"/>
</g>
<g id="Trash_1_">
	<path class="st0" d="M-120,83c-0.6,0-1,0.4-1,1v22c0,0.6,0.4,1,1,1s1-0.4,1-1V84C-119,83.4-119.4,83-120,83z"/>
	<path class="st0" d="M-112,83c-0.6,0-1,0.4-1,1v22c0,0.6,0.4,1,1,1s1-0.4,1-1V84C-111,83.4-111.4,83-112,83z"/>
	<path class="st0" d="M-104,107c0.6,0,1-0.4,1-1V84c0-0.6-0.4-1-1-1s-1,0.4-1,1v22C-105,106.6-104.6,107-104,107z"/>
	<path class="st0" d="M-96,79h-3h-8v-3c0-0.6-0.4-1-1-1h-8c-0.6,0-1,0.4-1,1v3h-8h-3c-0.6,0-1,0.4-1,1s0.4,1,1,1h2v29
		c0,0.6,0.4,1,1,1h26c0.6,0,1-0.4,1-1V81h2c0.6,0,1-0.4,1-1S-95.4,79-96,79z M-115,77h6v2h-6V77z M-100,109h-24V81h8h8h8V109z"/>
</g>
<g id="Bolt_1_">
	<path class="st0" d="M153,46c-0.1,0-0.2,0-0.3-0.1c-0.4-0.2-0.7-0.6-0.6-1.1l2.8-19.9H150c-0.3,0-0.6-0.2-0.8-0.4
		c-0.2-0.3-0.2-0.6-0.1-0.9l7-22c0.1-0.4,0.5-0.7,1-0.7h15c0.3,0,0.7,0.2,0.8,0.5c0.2,0.3,0.2,0.7,0.1,1L166.6,16h4.4
		c0.4,0,0.7,0.2,0.9,0.5c0.2,0.3,0.2,0.7,0,1l-18,28C153.7,45.8,153.3,46,153,46z M151.4,23h4.6c0.3,0,0.6,0.1,0.8,0.3
		c0.2,0.2,0.3,0.5,0.2,0.8l-2.4,16.5L169.2,18H165c-0.3,0-0.7-0.2-0.8-0.5c-0.2-0.3-0.2-0.7-0.1-1L170.4,3h-12.7L151.4,23z"/>
</g>
<g id="Magnifying_Glass_1_">
	<path class="st0" d="M105.4,9.9c-2.1-2.1-4.9-3.2-7.8-3.2c-2.9,0-5.7,1.1-7.8,3.2c-4.3,4.3-4.3,11.3,0,15.6
		c2.1,2.1,4.9,3.2,7.8,3.2c2.9,0,5.7-1.1,7.8-3.2C109.7,21.2,109.7,14.2,105.4,9.9z M104,24.1c-1.7,1.7-4,2.6-6.4,2.6
		c-2.4,0-4.7-0.9-6.4-2.6c-3.5-3.5-3.5-9.3,0-12.8c1.7-1.7,4-2.6,6.4-2.6c2.4,0,4.7,0.9,6.4,2.6C107.5,14.8,107.5,20.5,104,24.1z"/>
	<path class="st0" d="M108.6,6.7c-6-6-15.9-6-21.9,0C82,11.4,81,18.3,83.5,24.1c0,0,0,0,0,0L70.1,37.5c-0.2,0.2-0.3,0.4-0.3,0.7
		s0.1,0.5,0.3,0.7l6.3,6.3c0.2,0.2,0.5,0.3,0.7,0.3s0.5-0.1,0.7-0.3l13.4-13.4c0,0,0,0,0,0c2,0.9,4.1,1.4,6.4,1.4
		c4.1,0,8-1.6,11-4.5c2.9-2.9,4.5-6.8,4.5-11S111.5,9.6,108.6,6.7z M89.1,31.1l-12,12l-4.9-4.9l12-12l2.4,2.4c0,0,0,0,0,0
		c0,0,0,0,0,0L89.1,31.1z M107.2,27.2c-2.5,2.5-5.9,4-9.5,4c-3.6,0-7-1.4-9.5-4l0,0c-5.3-5.3-5.3-13.8,0-19.1
		c2.6-2.6,6.1-3.9,9.5-3.9c3.5,0,6.9,1.3,9.5,3.9c2.5,2.5,4,5.9,4,9.5S109.7,24.7,107.2,27.2z"/>
</g>
<g id="Pencil_1_">
	<path class="st0" d="M46.4,10.8l-8.6-8.6c-0.4-0.4-1-0.4-1.4,0L4.6,34.1c-0.1,0.1-0.2,0.3-0.3,0.4L1.6,45.4c-0.1,0.3,0,0.7,0.2,0.9
		c0.2,0.2,0.4,0.3,0.7,0.3c0.1,0,0.1,0,0.2,0L14,44.3c0.2,0,0.4-0.1,0.5-0.3l31.8-31.8C46.7,11.8,46.7,11.2,46.4,10.8z M31.3,10.3
		l7.1,7.1L36.9,19l-7.1-7.1c0,0-0.1-0.1-0.1-0.1l1.6-1.6C31.3,10.2,31.3,10.2,31.3,10.3z M5,39.9l3.5,3.5l-4.7,0.9L5,39.9z
		 M13.4,42.5L10.6,43c0-0.2-0.1-0.3-0.2-0.5L5.8,38c-0.1-0.1-0.2-0.2-0.3-0.2l0.6-2.6l22.2-22.2c0,0,0,0.1,0.1,0.1l7.1,7.1
		L13.4,42.5z M39.8,16l-7.1-7.1c0,0-0.1-0.1-0.1-0.1l4.5-4.5l7.2,7.2L39.8,16z"/>
</g>
<g id="Chart_Up">
	<path class="st0" d="M-30.8,15.7l1.5-6.8c0.1-0.5-0.2-1.1-0.8-1.2l-6.8-1.5C-37.5,6.1-38,6.4-38.1,7c-0.1,0.5,0.2,1.1,0.8,1.2
		l4.5,1l-29.3,18.9l1.1,1.7l29.3-18.9l-1,4.5c-0.1,0.3,0,0.5,0.1,0.7c0.1,0.2,0.4,0.4,0.6,0.4C-31.5,16.6-30.9,16.3-30.8,15.7z"/>
	<path class="st0" d="M-23,10c-0.6,0-1,0.4-1,1v29h-2V20c0-0.6-0.4-1-1-1h-6c-0.6,0-1,0.4-1,1v20h-2V25c0-0.6-0.4-1-1-1h-6
		c-0.6,0-1,0.4-1,1v15h-2V30c0-0.6-0.4-1-1-1h-6c-0.6,0-1,0.4-1,1v10h-2v-5c0-0.6-0.4-1-1-1h-6c-0.6,0-1,0.4-1,1v5h-1
		c-0.6,0-1,0.4-1,1s0.4,1,1,1h2h6h4h6h4h6h4h6h5V11C-22,10.4-22.4,10-23,10z M-62,40v-4h4v4H-62z M-52,40v-9h4v9H-52z M-42,40V26h4
		v14H-42z M-32,40V21h4v19H-32z"/>
</g>
<g id="Graph_2_">
	<path class="st0" d="M-91,10c-0.6,0-1,0.4-1,1v29h-2V13c0-0.6-0.4-1-1-1h-6c-0.6,0-1,0.4-1,1v27h-2V22c0-0.6-0.4-1-1-1h-6
		c-0.6,0-1,0.4-1,1v18h-2V19c0-0.6-0.4-1-1-1h-6c-0.6,0-1,0.4-1,1v21h-2V24c0-0.6-0.4-1-1-1h-6c-0.6,0-1,0.4-1,1v16h-1
		c-0.6,0-1,0.4-1,1s0.4,1,1,1h2h6h4h6h4h6h4h6h5V11C-90,10.4-90.4,10-91,10z M-130,40V25h4v15H-130z M-120,40V20h4v20H-120z
		 M-110,40V23h4v17H-110z M-100,40V14h4v26H-100z"/>
</g>
<g id="Mail_1_">
	<path class="st0" d="M183-59c0-0.5-0.4-1-1-1H138c-0.5,0-1,0.4-1,1V-28c0,0.5,0.4,1,1,1H182c0.5,0,1-0.4,1-1V-59z M179.7-58
		l-19.5,18.9L140.6-58H179.7z M139-29v-27.4l20.4,19.6c0.2,0.2,0.5,0.3,0.7,0.3s0.5-0.1,0.7-0.3L181-56.4V-29H139z"/>
</g>
<g id="Pin_1_">
	<path class="st0" d="M91.6-21.8c-0.3,0-0.6-0.2-0.8-0.4c-0.6-0.9-14-21.2-14-29.1c0-8.2,6.6-14.8,14.8-14.8s14.8,6.6,14.8,14.8
		c0,7.8-13.4,28.2-14,29.1C92.3-22,91.9-21.8,91.6-21.8z M91.6-64.2c-7.1,0-12.8,5.7-12.8,12.8c0,6.2,9.8,22,12.8,26.7
		c3-4.6,12.8-20.5,12.8-26.7C104.4-58.4,98.7-64.2,91.6-64.2z"/>
	<path class="st0" d="M91.6-44.9c-3.6,0-6.5-2.9-6.5-6.5s2.9-6.5,6.5-6.5s6.5,2.9,6.5,6.5S95.2-44.9,91.6-44.9z M91.6-55.9
		c-2.5,0-4.5,2-4.5,4.5s2,4.5,4.5,4.5c2.5,0,4.5-2,4.5-4.5S94.1-55.9,91.6-55.9z"/>
</g>
<g id="House_1_">
	<path class="st0" d="M46.4-51.9l-22-11c-0.3-0.1-0.6-0.1-0.9,0l-22,11c-0.5,0.2-0.7,0.8-0.4,1.3c0.2,0.5,0.8,0.7,1.3,0.4L7-52.4
		V-24c0,0.6,0.4,1,1,1h11h10h11c0.6,0,1-0.4,1-1v-28.4l4.6,2.3C45.7-50,45.8-50,46-50c0.4,0,0.7-0.2,0.9-0.6
		C47.1-51,46.9-51.6,46.4-51.9z M20-25v-16h8v16H20z M39-25h-9v-16.9c0-0.6-0.4-1.1-1-1.1H19c-0.6,0-1,0.5-1,1.1V-25H9v-28.4l15-7.5
		l15,7.5V-25z"/>
</g>
<g id="Money_1_">
	<rect x="-57" y="-34" class="st0" width="5" height="2"/>
	<rect x="-61" y="-41" class="st0" width="5" height="2"/>
	<rect x="-35" y="-57" class="st0" width="5" height="2"/>
	<path class="st0" d="M-26-54v-7h-40v26h4v7h40v-26H-26z M-64-37v-22h36v5v17h-34H-64z M-24-30h-36v-5h34v-12h1v-2h-1v-3h2V-30z"/>
	<path class="st0" d="M-44.6-42h-2.8c-2.5,0-4.6-2.1-4.6-4.6v-2.8c0-2.5,2.1-4.6,4.6-4.6h2.8c2.5,0,4.6,2.1,4.6,4.6v2.8
		C-40-44.1-42.1-42-44.6-42z M-47.4-52c-1.4,0-2.6,1.2-2.6,2.6v2.8c0,1.4,1.2,2.6,2.6,2.6h2.8c1.4,0,2.6-1.2,2.6-2.6v-2.8
		c0-1.4-1.2-2.6-2.6-2.6H-47.4z"/>
</g>
<g id="Shopping_Cart">
	<path class="st0" d="M-121.5-23.9c-1.8,0-3.3-1.5-3.3-3.3s1.5-3.3,3.3-3.3s3.3,1.5,3.3,3.3S-119.7-23.9-121.5-23.9z M-121.5-28.5
		c-0.7,0-1.3,0.6-1.3,1.3c0,0.7,0.6,1.3,1.3,1.3c0.7,0,1.3-0.6,1.3-1.3C-120.2-27.9-120.8-28.5-121.5-28.5z"/>
	<path class="st0" d="M-100.5-23.9c-1.8,0-3.3-1.5-3.3-3.3s1.5-3.3,3.3-3.3s3.3,1.5,3.3,3.3S-98.6-23.9-100.5-23.9z M-100.5-28.5
		c-0.7,0-1.3,0.6-1.3,1.3c0,0.7,0.6,1.3,1.3,1.3s1.3-0.6,1.3-1.3C-99.2-27.9-99.7-28.5-100.5-28.5z"/>
	<path class="st0" d="M-90-62h-7c-0.6,0-1,0.4-1,1v4h-35c-0.3,0-0.6,0.1-0.8,0.4s-0.3,0.5-0.2,0.8l3.8,19c0.1,0.5,0.5,0.8,1,0.8H-98
		v3h-28c-0.6,0-1,0.4-1,1s0.4,1,1,1h29c0.6,0,1-0.4,1-1v-28h6c0.6,0,1-0.4,1-1S-89.4-62-90-62z M-128.4-38l-3.4-17H-98v17H-128.4z"
		/>
</g>
</svg>
