<?xml version="1.0" encoding="utf-8"?>
<!-- Generator: Adobe Illustrator 21.0.2, SVG Export Plug-In . SVG Version: 6.00 Build 0)  -->
<svg version="1.1" xmlns="http://www.w3.org/2000/svg" xmlns:xlink="http://www.w3.org/1999/xlink" x="0px" y="0px"
	 viewBox="0 0 48 48" style="enable-background:new 0 0 48 48;" xml:space="preserve">
<style type="text/css">
	.st0{fill:#6B6B6B;}
	.st1{fill:none;stroke:#6B6B6B;}
	.st2{fill:none;stroke:#6B6B6B;stroke-width:3;stroke-linecap:round;stroke-linejoin:round;stroke-miterlimit:10;}
</style>
<g id="Monitor_1_">
	<path class="st0" d="M313.4-55h-34.8c-2.5,0-4.6,2.1-4.6,4.6v21.8c0,2.5,2.1,4.6,4.6,4.6H289v4h-1.8c-0.6,0-1,0.4-1,1s0.4,1,1,1
		H305c0.6,0,1-0.4,1-1s-0.4-1-1-1h-2v-4h10.4c2.5,0,4.6-2.1,4.6-4.6v-21.8C318-52.9,315.9-55,313.4-55z M301-24v4h-10v-4H301z
		 M276-50.4c0-1.4,1.2-2.6,2.6-2.6h34.8c1.4,0,2.6,1.2,2.6,2.6V-31c0,0-0.1,0-0.1,0H276V-50.4z M313.4-26h-34.8
		c-1.4,0-2.6-1.2-2.6-2.6V-29h39.9c0,0,0.1,0,0.1,0v0.4C316-27.2,314.8-26,313.4-26z"/>
	<g>
		<path class="st1" d="M91.6,3.6C91.6,3.7,85.6,9.7,76,6.7l-0.6-0.2l-0.1,0.6c-0.1,0.6-2.2,15.9-1,21.8l0,0.1l0,0.1
			c0.1,0.1,6.1,10.8,17.4,15.7l0.2,0.1l0.2-0.1c11.3-4.9,17.3-15.6,17.4-15.7l0-0.1l0-0.1c0.5-2.5,0.5-6.9-0.1-13.2
			c-0.2-2.4-0.5-4.6-0.6-6.1l-0.2-1.9c-0.1-1-0.1-1-0.4-1.1l-0.2-0.1L108,6.7c-9.6,3-15.6-3-15.6-3.1L92,3.2L91.6,3.6z"/>
	</g>
	<g>
		<path class="st0" d="M92,5.3C93.5,6.5,97.2,9,102.6,9c1.5,0,3.1-0.2,4.6-0.6c0.5,3.7,1.8,15.1,0.9,20c-0.7,1.2-6.3,10.3-16.2,14.7
			c-9.9-4.4-15.5-13.5-16.2-14.7c-0.9-4.9,0.4-16.3,0.9-20C78.3,8.8,79.8,9,81.4,9C86.8,9,90.5,6.5,92,5.3 M92,3.9
			c0,0-3.9,4.1-10.6,4.1c-1.7,0-3.5-0.3-5.5-0.9c0,0-2.2,15.7-1,21.6c0,0,5.9,10.6,17.2,15.5c11.3-4.8,17.2-15.5,17.2-15.5
			c1.2-5.9-1-21.6-1-21.6c-2,0.6-3.8,0.9-5.5,0.9C95.9,8,92,3.9,92,3.9L92,3.9z"/>
	</g>
	<g>
		<path class="st0" d="M92,10.5c1.6,1.1,4.5,2.7,8.5,2.7c0.9,0,1.8-0.1,2.7-0.2c0.5,4.1,1.1,11,0.6,14.1C103,28.5,98.9,34.7,92,38
			c-6.9-3.3-11-9.5-11.8-10.9c-0.5-3.2,0.1-10,0.6-14.1c0.9,0.2,1.8,0.2,2.7,0.2C87.4,13.2,90.4,11.7,92,10.5 M92,8
			c0,0-3.2,3.3-8.5,3.3c-1.3,0-2.8-0.2-4.4-0.7c0,0-1.8,12.6-0.8,17.3c0,0,4.7,8.5,13.7,12.4c9-3.9,13.7-12.4,13.7-12.4
			c0.9-4.7-0.8-17.3-0.8-17.3c-1.6,0.5-3.1,0.7-4.4,0.7C95.1,11.2,92,8,92,8L92,8z"/>
	</g>
	<polyline class="st2" points="10.3,26.4 18.3,32.1 37.6,13.7 	"/>
</g>
<g id="Computer_1_">
	<path class="st0" d="M249.9-23.4l-3.9-8.8V-54c0-0.6-0.4-1-1-1h-34c-0.6,0-1,0.4-1,1v21.8l-3.9,8.8c-0.1,0.3-0.1,0.7,0.1,1
		s0.5,0.5,0.8,0.5h42c0.3,0,0.7-0.2,0.8-0.5S250.1-23.1,249.9-23.4z M212-53h32v20h-32V-53z M208.5-24l3.1-7h32.7l3.1,7H208.5z"/>
	<path class="st0" d="M241-51h-26c-0.6,0-1,0.4-1,1v14c0,0.6,0.4,1,1,1h26c0.6,0,1-0.4,1-1v-14C242-50.6,241.6-51,241-51z M240-37
		h-24v-12h24V-37z"/>
</g>
<g id="Wifi_1_">
	<path class="st0" d="M160.3-21.5c-2.4,0-4.3-1.9-4.3-4.3s1.9-4.3,4.3-4.3s4.3,1.9,4.3,4.3S162.7-21.5,160.3-21.5z M160.3-27.9
		c-1.1,0-2,0.9-2,2c0,1.1,0.9,2,2,2c1.1,0,2-0.9,2-2C162.4-27,161.5-27.9,160.3-27.9z"/>
	<g>
		<path class="st0" d="M160.3-21"/>
		<path class="st0" d="M179.6-39.1c-0.3,0-0.7-0.2-0.9-0.5c-4.4-5.8-11-9.2-18.3-9.2s-13.9,3.3-18.3,9.2c-0.4,0.5-1.1,0.6-1.6,0.2
			c-0.5-0.4-0.6-1.1-0.2-1.6C145-47.3,152.4-51,160.3-51c8,0,15.3,3.7,20.1,10.1c0.4,0.5,0.3,1.2-0.2,1.6
			C180-39.2,179.8-39.1,179.6-39.1z"/>
	</g>
	<g>
		<path class="st0" d="M160.3-21"/>
		<path class="st0" d="M175.4-34.9c-0.4,0-0.7-0.2-0.9-0.5c-3.2-4.7-8.5-7.5-14.1-7.5s-10.9,2.8-14.1,7.5c-0.3,0.5-1,0.6-1.6,0.3
			c-0.5-0.3-0.6-1-0.3-1.6c3.6-5.3,9.6-8.5,16-8.5c6.4,0,12.4,3.2,16,8.5c0.3,0.5,0.2,1.2-0.3,1.6C175.8-35,175.6-34.9,175.4-34.9z"
			/>
	</g>
	<g>
		<path class="st0" d="M171.7-31.3c-0.4,0-0.8-0.2-1-0.6c-2.2-3.7-6.1-6-10.4-6c-4.3,0-8.3,2.3-10.4,6c-0.3,0.5-1,0.7-1.5,0.4
			c-0.5-0.3-0.7-1-0.4-1.5c2.6-4.4,7.3-7.2,12.4-7.2c5.1,0,9.8,2.7,12.4,7.2c0.3,0.5,0.1,1.2-0.4,1.5
			C172.1-31.3,171.9-31.3,171.7-31.3z"/>
		<path class="st0" d="M148.9-32.4"/>
		<path class="st0" d="M171.7-32.4"/>
	</g>
	<g>
		<path class="st0" d="M160.3-21"/>
		<path class="st0" d="M168-27.5c-0.5,0-0.9-0.3-1.1-0.7c-1-2.8-3.7-4.6-6.6-4.6c-2.9,0-5.6,1.9-6.6,4.6c-0.2,0.6-0.9,0.9-1.4,0.7
			c-0.6-0.2-0.9-0.9-0.7-1.4c1.3-3.6,4.8-6.1,8.7-6.1c3.9,0,7.4,2.4,8.7,6.1c0.2,0.6-0.1,1.2-0.7,1.4
			C168.3-27.6,168.1-27.5,168-27.5z"/>
		<path class="st0" d="M152.7-28.7"/>
		<path class="st0" d="M160.3-21"/>
		<path class="st0" d="M168-28.7"/>
	</g>
</g>
<g id="Credit_Card_1_">
	<path class="st0" d="M107.4-51H79.6c-2.4,0-4.3,1.8-4.5,4.1c-2.3,0.3-4.1,2.2-4.1,4.5v16.8c0,2.5,2.1,4.6,4.6,4.6h27.8
		c2.4,0,4.3-1.8,4.5-4.1c2.3-0.3,4.1-2.2,4.1-4.5v-16.8C112-48.9,109.9-51,107.4-51z M106-25.6c0,1.4-1.2,2.6-2.6,2.6H75.6
		c-1.4,0-2.6-1.2-2.6-2.6v-16.8c0-1.4,1.2-2.6,2.6-2.6h27.8c1.4,0,2.6,1.2,2.6,2.6V-25.6z M110-29.6c0,1.2-0.9,2.3-2,2.5v-15.3
		c0-2.5-2.1-4.6-4.6-4.6H77.1c0.3-1.1,1.3-2,2.5-2h27.8c1.4,0,2.6,1.2,2.6,2.6V-29.6z"/>
	<path class="st0" d="M96-41"/>
	<path class="st0" d="M76-41"/>
	<rect x="76" y="-31" class="st0" width="7" height="2"/>
	<rect x="76" y="-27" class="st0" width="10" height="2"/>
	<path class="st0" d="M101-31c-0.8,0-1.5,0.3-2,0.8c-0.5-0.5-1.2-0.8-2-0.8c-1.7,0-3,1.3-3,3s1.3,3,3,3c0.8,0,1.5-0.3,2-0.8
		c0.5,0.5,1.2,0.8,2,0.8c1.7,0,3-1.3,3-3S102.7-31,101-31z M97-27c-0.6,0-1-0.4-1-1s0.4-1,1-1s1,0.4,1,1S97.6-27,97-27z M101-27
		c-0.6,0-1-0.4-1-1s0.4-1,1-1s1,0.4,1,1S101.6-27,101-27z"/>
	<path class="st0" d="M96-38.9"/>
	<path class="st0" d="M76-38.9"/>
	<rect x="76" y="-42" class="st0" width="20" height="3"/>
</g>
<g id="Lock_1_">
	<path class="st0" d="M35-41.7V-43c0-6.1-4.9-11-11-11s-11,4.9-11,11v1.1c-2.3,0.3-4,2.2-4,4.5v15.8c0,2.5,2.1,4.6,4.6,4.6h19.8
		c2.5,0,4.6-2.1,4.6-4.6v-15.8C38-39.4,36.7-41,35-41.7z M15-43c0-5,4-9,9-9s9,4,9,9v1h-4v-1c0-2.8-2.2-5-5-5s-5,2.2-5,5v1h-4V-43z
		 M27-42h-6v-1c0-1.7,1.3-3,3-3s3,1.3,3,3V-42z M36-21.6c0,1.4-1.2,2.6-2.6,2.6H13.6c-1.4,0-2.6-1.2-2.6-2.6v-15.8
		c0-1.4,1.2-2.6,2.6-2.6H19h10h4.4c1.4,0,2.6,1.2,2.6,2.6V-21.6z"/>
</g>
<g id="Documents_1_">
	<path class="st0" d="M313.6-116.8l-12-10c-0.2-0.1-0.4-0.2-0.6-0.2h-18c-0.6,0-1,0.4-1,1v3h-3c-0.6,0-1,0.4-1,1v39c0,0.6,0.4,1,1,1
		h30c0.6,0,1-0.4,1-1v-3h3c0.6,0,1-0.4,1-1v-29C314-116.3,313.9-116.6,313.6-116.8z M311.4-116H301v-8.7L311.4-116z M308-84h-28v-37
		h2v34c0,0.6,0.4,1,1,1h25V-84z M284-88v-37h15v10c0,0.6,0.4,1,1,1h12v26H284z"/>
</g>
<g id="Phone_1_">
	<path class="st0" d="M238-83h-22c-0.6,0-1-0.4-1-1v-40c0-0.6,0.4-1,1-1h22c0.6,0,1,0.4,1,1v40C239-83.4,238.6-83,238-83z M217-85
		h20v-38h-20V-85z"/>
	<path class="st0" d="M234-92h-14c-0.6,0-1-0.4-1-1v-25c0-0.6,0.4-1,1-1h14c0.6,0,1,0.4,1,1v25C235-92.4,234.6-92,234-92z M221-94
		h12v-23h-12V-94z"/>
	<path class="st0" d="M229.5-120h-5c-0.6,0-1-0.4-1-1s0.4-1,1-1h5c0.6,0,1,0.4,1,1S230.1-120,229.5-120z"/>
	<path class="st0" d="M227-86c-1.4,0-2.5-1.1-2.5-2.5s1.1-2.5,2.5-2.5s2.5,1.1,2.5,2.5S228.4-86,227-86z M227-89
		c-0.3,0-0.5,0.2-0.5,0.5s0.2,0.5,0.5,0.5s0.5-0.2,0.5-0.5S227.3-89,227-89z"/>
</g>
<g id="Download_1_">
	<path class="st0" d="M171-96h-7v-2h5v-1l0.9-0.1c3.4-0.4,7.1-3.5,7.1-7.3c0-4.1-3.1-7.3-7-7.3c-1,0-1.8,0.2-2.8,0.6l-1.1,0.5
		l-0.2-1.2c-0.8-4.2-4.5-7.2-8.7-7.2c-4.8,0-8.6,3.7-8.9,8.5l0,0.8l-0.8,0.1c-3,0.4-5.4,3.4-5.4,6.7c0,3.6,3,6.8,6.3,6.8h5.7v2h-5.7
		c-4.4,0-8.3-4.1-8.3-8.8c0-4,2.8-7.6,6.3-8.6c0.6-5.5,5.2-9.6,10.8-9.6c4.8,0,8.9,3.2,10.3,7.7c0.8-0.2,1.6-0.4,2.5-0.4
		c5.1,0,9,4.1,9,9.3c0,4.7-4,8.2-7.9,9.1V-96z"/>
	<path class="st0" d="M164.6-92.7c-0.4-0.4-1-0.4-1.4,0l-3.2,3.2V-104h-2v14.6l-3.3-3.2c-0.4-0.4-1-0.4-1.4,0s-0.4,1,0,1.4l4.9,5
		c0.2,0.2,0.4,0.3,0.7,0.3s0.5-0.1,0.7-0.3l4.9-5C165-91.6,165-92.3,164.6-92.7z"/>
</g>
<g id="Upload_1_">
	<path class="st0" d="M103-96h-7v-2h5v-1l0.9-0.1c3.4-0.4,7.1-3.5,7.1-7.3c0-4.1-3.1-7.3-7-7.3c-1,0-1.8,0.2-2.8,0.6l-1.1,0.5
		l-0.2-1.2c-0.8-4.2-4.5-7.2-8.7-7.2c-4.8,0-8.6,3.7-8.9,8.5l0,0.8l-0.8,0.1c-3,0.4-5.4,3.4-5.4,6.7c0,3.6,3,6.8,6.3,6.8H86v2h-5.7
		c-4.4,0-8.3-4.1-8.3-8.8c0-4,2.8-7.6,6.3-8.6c0.6-5.5,5.2-9.6,10.8-9.6c4.8,0,8.9,3.2,10.3,7.7c0.8-0.2,1.6-0.4,2.5-0.4
		c5.1,0,9,4.1,9,9.3c0,4.7-4,8.2-7.9,9.1V-96z"/>
	<path class="st0" d="M96.6-103.8l-4.9-5c-0.4-0.4-1-0.4-1.4,0l-4.9,5c-0.4,0.4-0.4,1,0,1.4s1,0.4,1.4,0l3.3-3.2V-91h2v-14.6
		l3.2,3.2c0.2,0.2,0.4,0.3,0.7,0.3s0.5-0.1,0.7-0.3C97-102.7,97-103.4,96.6-103.8z"/>
</g>
<g id="Cloud_1_">
	<path class="st0" d="M35-96H12.3c-4.4,0-8.3-4.1-8.3-8.8c0-4,2.8-7.6,6.3-8.6c0.6-5.5,5.2-9.6,10.8-9.6c4.8,0,8.9,3.2,10.3,7.7
		c0.8-0.2,1.6-0.4,2.5-0.4c5.1,0,9,4.1,9,9.3c0,4.7-4,8.2-7.9,9.1V-96z M21.1-121c-4.8,0-8.6,3.7-8.9,8.5l0,0.8l-0.8,0.1
		c-3,0.4-5.4,3.4-5.4,6.7c0,3.6,3,6.8,6.3,6.8H33v-1l0.9-0.1c3.4-0.4,7.1-3.5,7.1-7.3c0-4.1-3.1-7.3-7-7.3c-1,0-1.8,0.2-2.8,0.6
		l-1.1,0.5l-0.2-1.2C28.9-118,25.3-121,21.1-121z"/>
</g>
<g id="Award_1_">
	<path class="st0" d="M296.1-167.4l-2.9-1.7l-3.4,0l-1.7-2.9l-2.9-1.7l0-3.4l-1.7-2.9l1.7-2.9l0-3.4l2.9-1.7l1.7-2.9l3.4,0l2.9-1.7
		l2.9,1.7l3.4,0l1.7,2.9l2.9,1.7l0,3.4l1.7,2.9l-1.7,2.9l0,3.4l-2.9,1.7l-1.7,2.9l-3.4,0L296.1-167.4z M293.7-171.1l2.4,1.4l2.4-1.4
		l2.7,0l1.4-2.4l2.4-1.4l0-2.7l1.4-2.4l-1.4-2.4l0-2.7l-2.4-1.4l-1.4-2.4l-2.7,0l-2.4-1.4l-2.4,1.4l-2.7,0l-1.4,2.4l-2.4,1.4l0,2.7
		l-1.4,2.4l1.4,2.4l0,2.7l2.4,1.4l1.4,2.4L293.7-171.1z"/>
	<path class="st0" d="M296-172c-1,0-2-0.2-3-0.6c-2-0.8-3.5-2.3-4.4-4.3c-0.8-2-0.9-4.1-0.1-6.1s2.3-3.5,4.3-4.4
		c2-0.8,4.1-0.9,6.1-0.1c2,0.8,3.5,2.3,4.4,4.3c0.8,2,0.9,4.1,0.1,6.1s-2.3,3.5-4.3,4.4C298.1-172.2,297.1-172,296-172z M296-186
		c-0.8,0-1.6,0.2-2.4,0.5c-1.5,0.6-2.6,1.8-3.2,3.3c-0.6,1.5-0.6,3.1,0.1,4.6c0.6,1.5,1.8,2.6,3.3,3.2c1.5,0.6,3.1,0.6,4.6-0.1
		c1.5-0.6,2.6-1.8,3.2-3.3v0c0.6-1.5,0.6-3.1-0.1-4.6c-0.6-1.5-1.8-2.6-3.3-3.2C297.5-185.9,296.8-186,296-186z"/>
	<path class="st0" d="M289.7-150l-4.6-3.6l-4.9,0.8l5.3-16.4l9.4,3L289.7-150z M285.7-155.8l3,2.4l3.7-11.5l-5.6-1.8l-3.7,11.4
		L285.7-155.8z"/>
	<path class="st0" d="M302-150l-5.2-16.2l9.4-3l5.3,16.4l-4.9-0.8L302-150z M299.3-165l3.7,11.5l3-2.4l2.6,0.4l-3.7-11.4L299.3-165z
		"/>
</g>
<g id="Clipboard_1_">
	<path class="st0" d="M235-191v-2h-15v2h-8v41h31v-41H235z M222-191h11v1h-1v2h-9v-2h-1V-191z M241-152h-27v-37h6v1h1v2h13v-2h1v-1
		h6V-152z"/>
	<rect x="216" y="-182" class="st0" width="15" height="2"/>
	<rect x="216" y="-168" class="st0" width="13" height="2"/>
	<rect x="216" y="-175" class="st0" width="17" height="2"/>
	<rect x="216" y="-161" class="st0" width="15" height="2"/>
</g>
<g id="Stopwatch_1_">
	<path class="st0" d="M163-189.7v-2.3h1c0.6,0,1-0.4,1-1s-0.4-1-1-1h-2h-4h-2c-0.6,0-1,0.4-1,1s0.4,1,1,1h1v2.3
		c-9.6,1.5-17,9.7-17,19.7c0,11,9,20,20,20c11,0,20-9,20-20C180-180,172.6-188.3,163-189.7z M159-190v-2h2v2H159z M160-152
		c-9.9,0-18-8.1-18-18c0-9.9,8.1-18,18-18c9.9,0,18,8.1,18,18C178-160.1,169.9-152,160-152z"/>
	<path class="st0" d="M160-186c-8.8,0-16,7.2-16,16s7.2,16,16,16s16-7.2,16-16S168.8-186,160-186z M160-156c-7.7,0-14-6.3-14-14
		s6.3-14,14-14s14,6.3,14,14S167.7-156,160-156z"/>
	<path class="st0" d="M167.3-178.7l-6,6c-0.4-0.2-0.8-0.3-1.3-0.3c-1.3,0-2.4,0.8-2.8,2H150c-0.6,0-1,0.4-1,1s0.4,1,1,1h7.2
		c0.4,1.2,1.5,2,2.8,2c1.7,0,3-1.3,3-3c0-0.5-0.1-0.9-0.3-1.3l6-6c0.4-0.4,0.4-1,0-1.4S167.7-179.1,167.3-178.7z M160-169
		c-0.6,0-1-0.4-1-1s0.4-1,1-1c0,0.3,0.1,0.5,0.3,0.7s0.5,0.3,0.7,0.3C161-169.4,160.6-169,160-169z"/>
</g>
<g id="Bulb_1_">
	<g>
		<path class="st0" d="M88.2-159.1h-1v-2.7c-1-0.8-1.7-2-1.7-3.3c0.3-2.8-2.1-6.8-3.1-8.4c-0.2-0.3-0.4-0.6-0.6-0.9l-0.5-0.7
			l0.1-0.1c-1-1.9-1.5-4-1.5-6.1c0-7.4,6-13.4,13.4-13.4s13.4,6,13.4,13.4c0,2.1-0.5,4.2-1.5,6.1l0,0.1l-0.5,0.7
			c-0.2,0.3-0.4,0.6-0.6,0.9c-1,1.5-3.3,5.5-3,8.1c0,1.2,0,3-1,4v2.1h-1c-1.1,0-3.5,0-5.9,0C91.1-159.1,89.1-159.1,88.2-159.1z
			 M83.6-175.5L83.6-175.5c0.2,0.3,0.4,0.6,0.6,0.8c1.4,2.2,3.7,6.4,3.4,9.6c0,0.7,0.4,1.4,1.1,1.8l0.5,0.3v1.9c1,0,2.5,0,4,0
			c1.8,0,3.6,0,4.9,0v-1.2l0.5-0.3c0.5-0.3,0.5-1.9,0.5-2.5c-0.3-3.1,2-7.2,3.4-9.4c0.2-0.3,0.4-0.6,0.6-0.9l0.1-0.1
			c1-1.7,1.6-3.7,1.6-5.7c0-6.3-5.1-11.4-11.4-11.4S82-187.6,82-181.3C82-179.3,82.5-177.3,83.6-175.5L83.6-175.5z"/>
	</g>
	<rect x="87" y="-158" class="st0" width="13" height="2"/>
	<rect x="87" y="-155.1" class="st0" width="13" height="2"/>
	<rect x="90" y="-152" class="st0" width="7" height="2"/>
</g>
<g id="Trash_1_">
	<path class="st0" d="M16-181c-0.6,0-1,0.4-1,1v22c0,0.6,0.4,1,1,1s1-0.4,1-1v-22C17-180.6,16.6-181,16-181z"/>
	<path class="st0" d="M24-181c-0.6,0-1,0.4-1,1v22c0,0.6,0.4,1,1,1s1-0.4,1-1v-22C25-180.6,24.6-181,24-181z"/>
	<path class="st0" d="M32-157c0.6,0,1-0.4,1-1v-22c0-0.6-0.4-1-1-1s-1,0.4-1,1v22C31-157.4,31.4-157,32-157z"/>
	<path class="st0" d="M40-185h-3h-8v-3c0-0.6-0.4-1-1-1h-8c-0.6,0-1,0.4-1,1v3h-8H8c-0.6,0-1,0.4-1,1s0.4,1,1,1h2v29
		c0,0.6,0.4,1,1,1h26c0.6,0,1-0.4,1-1v-29h2c0.6,0,1-0.4,1-1S40.6-185,40-185z M21-187h6v2h-6V-187z M36-155H12v-28h8h8h8V-155z"/>
</g>
<g id="Bolt_1_">
	<path class="st0" d="M289-218c-0.1,0-0.2,0-0.3-0.1c-0.4-0.2-0.7-0.6-0.6-1.1l2.8-19.9H286c-0.3,0-0.6-0.2-0.8-0.4
		c-0.2-0.3-0.2-0.6-0.1-0.9l7-22c0.1-0.4,0.5-0.7,1-0.7h15c0.3,0,0.7,0.2,0.8,0.5c0.2,0.3,0.2,0.7,0.1,1l-6.3,13.6h4.4
		c0.4,0,0.7,0.2,0.9,0.5c0.2,0.3,0.2,0.7,0,1l-18,28C289.7-218.2,289.3-218,289-218z M287.4-241h4.6c0.3,0,0.6,0.1,0.8,0.3
		c0.2,0.2,0.3,0.5,0.2,0.8l-2.4,16.5l14.5-22.6H301c-0.3,0-0.7-0.2-0.8-0.5c-0.2-0.3-0.2-0.7-0.1-1l6.3-13.6h-12.7L287.4-241z"/>
</g>
<g id="Magnifying_Glass_1_">
	<path class="st0" d="M241.4-254.1c-2.1-2.1-4.9-3.2-7.8-3.2c-2.9,0-5.7,1.1-7.8,3.2c-4.3,4.3-4.3,11.3,0,15.6
		c2.1,2.1,4.9,3.2,7.8,3.2c2.9,0,5.7-1.1,7.8-3.2C245.7-242.8,245.7-249.8,241.4-254.1z M240-239.9c-1.7,1.7-4,2.6-6.4,2.6
		c-2.4,0-4.7-0.9-6.4-2.6c-3.5-3.5-3.5-9.3,0-12.8c1.7-1.7,4-2.6,6.4-2.6c2.4,0,4.7,0.9,6.4,2.6C243.5-249.2,243.5-243.5,240-239.9z
		"/>
	<path class="st0" d="M244.6-257.3c-6-6-15.9-6-21.9,0c-4.7,4.7-5.7,11.6-3.1,17.3c0,0,0,0,0,0l-13.4,13.4c-0.2,0.2-0.3,0.4-0.3,0.7
		s0.1,0.5,0.3,0.7l6.3,6.3c0.2,0.2,0.5,0.3,0.7,0.3s0.5-0.1,0.7-0.3l13.4-13.4c0,0,0,0,0,0c2,0.9,4.1,1.4,6.4,1.4
		c4.1,0,8-1.6,11-4.5c2.9-2.9,4.5-6.8,4.5-11S247.5-254.4,244.6-257.3z M225.1-232.9l-12,12l-4.9-4.9l12-12l2.4,2.4c0,0,0,0,0,0
		c0,0,0,0,0,0L225.1-232.9z M243.2-236.8c-2.5,2.5-5.9,4-9.5,4c-3.6,0-7-1.4-9.5-4l0,0c-5.3-5.3-5.3-13.8,0-19.1
		c2.6-2.6,6.1-3.9,9.5-3.9c3.5,0,6.9,1.3,9.5,3.9c2.5,2.5,4,5.9,4,9.5S245.7-239.3,243.2-236.8z"/>
</g>
<g id="Pencil_1_">
	<path class="st0" d="M182.4-253.2l-8.6-8.6c-0.4-0.4-1-0.4-1.4,0l-31.8,31.8c-0.1,0.1-0.2,0.3-0.3,0.4l-2.7,10.8
		c-0.1,0.3,0,0.7,0.2,0.9c0.2,0.2,0.4,0.3,0.7,0.3c0.1,0,0.1,0,0.2,0l11.3-2.3c0.2,0,0.4-0.1,0.5-0.3l31.8-31.8
		C182.7-252.2,182.7-252.8,182.4-253.2z M167.3-253.7l7.1,7.1l-1.6,1.6l-7.1-7.1c0,0-0.1-0.1-0.1-0.1l1.6-1.6
		C167.3-253.8,167.3-253.8,167.3-253.7z M141-224.1l3.5,3.5l-4.7,0.9L141-224.1z M149.4-221.5l-2.8,0.6c0-0.2-0.1-0.3-0.2-0.5
		l-4.5-4.5c-0.1-0.1-0.2-0.2-0.3-0.2l0.6-2.6l22.2-22.2c0,0,0,0.1,0.1,0.1l7.1,7.1L149.4-221.5z M175.8-248l-7.1-7.1
		c0,0-0.1-0.1-0.1-0.1l4.5-4.5l7.2,7.2L175.8-248z"/>
</g>
<g id="Chart_Up">
	<path class="st0" d="M105.2-248.3l1.5-6.8c0.1-0.5-0.2-1.1-0.8-1.2l-6.8-1.5c-0.5-0.1-1.1,0.2-1.2,0.8c-0.1,0.5,0.2,1.1,0.8,1.2
		l4.5,1l-29.3,18.9l1.1,1.7l29.3-18.9l-1,4.5c-0.1,0.3,0,0.5,0.1,0.7c0.1,0.2,0.4,0.4,0.6,0.4C104.5-247.4,105.1-247.7,105.2-248.3z
		"/>
	<path class="st0" d="M113-254c-0.6,0-1,0.4-1,1v29h-2v-20c0-0.6-0.4-1-1-1h-6c-0.6,0-1,0.4-1,1v20h-2v-15c0-0.6-0.4-1-1-1h-6
		c-0.6,0-1,0.4-1,1v15h-2v-10c0-0.6-0.4-1-1-1h-6c-0.6,0-1,0.4-1,1v10h-2v-5c0-0.6-0.4-1-1-1h-6c-0.6,0-1,0.4-1,1v5h-1
		c-0.6,0-1,0.4-1,1s0.4,1,1,1h2h6h4h6h4h6h4h6h5v-31C114-253.6,113.6-254,113-254z M74-224v-4h4v4H74z M84-224v-9h4v9H84z M94-224
		v-14h4v14H94z M104-224v-19h4v19H104z"/>
</g>
<g id="Graph_2_">
	<path class="st0" d="M45-254c-0.6,0-1,0.4-1,1v29h-2v-27c0-0.6-0.4-1-1-1h-6c-0.6,0-1,0.4-1,1v27h-2v-18c0-0.6-0.4-1-1-1h-6
		c-0.6,0-1,0.4-1,1v18h-2v-21c0-0.6-0.4-1-1-1h-6c-0.6,0-1,0.4-1,1v21h-2v-16c0-0.6-0.4-1-1-1H5c-0.6,0-1,0.4-1,1v16H3
		c-0.6,0-1,0.4-1,1s0.4,1,1,1h2h6h4h6h4h6h4h6h5v-31C46-253.6,45.6-254,45-254z M6-224v-15h4v15H6z M16-224v-20h4v20H16z M26-224
		v-17h4v17H26z M36-224v-26h4v26H36z"/>
</g>
<g id="Mail_1_">
	<path class="st0" d="M319-323c0-0.5-0.4-1-1-1H274c-0.5,0-1,0.4-1,1v31.1c0,0.5,0.4,1,1,1H318c0.5,0,1-0.4,1-1V-323z M315.7-322
		l-19.5,18.9L276.6-322H315.7z M275-293v-27.4l20.4,19.6c0.2,0.2,0.5,0.3,0.7,0.3c0.2,0,0.5-0.1,0.7-0.3l20.3-19.6v27.4H275z"/>
</g>
<g id="Pin_1_">
	<path class="st0" d="M227.6-285.8c-0.3,0-0.6-0.2-0.8-0.4c-0.6-0.9-14-21.2-14-29.1c0-8.2,6.6-14.8,14.8-14.8s14.8,6.6,14.8,14.8
		c0,7.8-13.4,28.2-14,29.1C228.3-286,227.9-285.8,227.6-285.8z M227.6-328.2c-7.1,0-12.8,5.7-12.8,12.8c0,6.2,9.8,22,12.8,26.7
		c3-4.6,12.8-20.5,12.8-26.7C240.4-322.4,234.7-328.2,227.6-328.2z"/>
	<path class="st0" d="M227.6-308.9c-3.6,0-6.5-2.9-6.5-6.5s2.9-6.5,6.5-6.5s6.5,2.9,6.5,6.5S231.2-308.9,227.6-308.9z M227.6-319.9
		c-2.5,0-4.5,2-4.5,4.5s2,4.5,4.5,4.5c2.5,0,4.5-2,4.5-4.5S230.1-319.9,227.6-319.9z"/>
</g>
<g id="House_1_">
	<path class="st0" d="M182.4-315.9l-22-11c-0.3-0.1-0.6-0.1-0.9,0l-22,11c-0.5,0.2-0.7,0.8-0.4,1.3c0.2,0.5,0.8,0.7,1.3,0.4l4.6-2.3
		v28.4c0,0.6,0.4,1,1,1h11h10h11c0.6,0,1-0.4,1-1v-28.4l4.6,2.3c0.1,0.1,0.3,0.1,0.4,0.1c0.4,0,0.7-0.2,0.9-0.6
		C183.1-315,182.9-315.6,182.4-315.9z M156-289v-16h8v16H156z M175-289h-9v-16.9c0-0.6-0.4-1.1-1-1.1h-10c-0.6,0-1,0.5-1,1.1v16.9
		h-9v-28.4l15-7.5l15,7.5V-289z"/>
</g>
<g id="Money_1_">
	<rect x="79" y="-298" class="st0" width="5" height="2"/>
	<rect x="75" y="-305" class="st0" width="5" height="2"/>
	<rect x="101" y="-321" class="st0" width="5" height="2"/>
	<path class="st0" d="M110-318v-7H70v26h4v7h40v-26H110z M72-301v-22h36v5v17H74H72z M112-294H76v-5h34v-12h1v-2h-1v-3h2V-294z"/>
	<path class="st0" d="M91.4-306h-2.8c-2.5,0-4.6-2.1-4.6-4.6v-2.8c0-2.5,2.1-4.6,4.6-4.6h2.8c2.5,0,4.6,2.1,4.6,4.6v2.8
		C96-308.1,93.9-306,91.4-306z M88.6-316c-1.4,0-2.6,1.2-2.6,2.6v2.8c0,1.4,1.2,2.6,2.6,2.6h2.8c1.4,0,2.6-1.2,2.6-2.6v-2.8
		c0-1.4-1.2-2.6-2.6-2.6H88.6z"/>
</g>
<g id="Shopping_Cart">
	<path class="st0" d="M14.5-287.9c-1.8,0-3.3-1.5-3.3-3.3s1.5-3.3,3.3-3.3s3.3,1.5,3.3,3.3S16.3-287.9,14.5-287.9z M14.5-292.5
		c-0.7,0-1.3,0.6-1.3,1.3c0,0.7,0.6,1.3,1.3,1.3c0.7,0,1.3-0.6,1.3-1.3C15.8-291.9,15.2-292.5,14.5-292.5z"/>
	<path class="st0" d="M35.5-287.9c-1.8,0-3.3-1.5-3.3-3.3s1.5-3.3,3.3-3.3s3.3,1.5,3.3,3.3S37.4-287.9,35.5-287.9z M35.5-292.5
		c-0.7,0-1.3,0.6-1.3,1.3c0,0.7,0.6,1.3,1.3,1.3s1.3-0.6,1.3-1.3C36.8-291.9,36.3-292.5,35.5-292.5z"/>
	<path class="st0" d="M46-326h-7c-0.6,0-1,0.4-1,1v4H3c-0.3,0-0.6,0.1-0.8,0.4S2-320.1,2-319.8l3.8,19c0.1,0.5,0.5,0.8,1,0.8H38v3
		H10c-0.6,0-1,0.4-1,1s0.4,1,1,1h29c0.6,0,1-0.4,1-1v-28h6c0.6,0,1-0.4,1-1S46.6-326,46-326z M7.6-302l-3.4-17H38v17H7.6z"/>
</g>
</svg>
