<?xml version="1.0" encoding="utf-8"?>
<!-- Generator: Adobe Illustrator 21.1.0, SVG Export Plug-In . SVG Version: 6.00 Build 0)  -->
<svg version="1.1" id="Layer_1" xmlns="http://www.w3.org/2000/svg" xmlns:xlink="http://www.w3.org/1999/xlink" x="0px" y="0px"
	 viewBox="0 0 75 40" style="enable-background:new 0 0 75 40;" xml:space="preserve">
<style type="text/css">
	.st0{fill:#FAAF40;}
	.st1{fill:#4E4F51;}
	.st2{fill:#00BCF1;}
	.st3{fill:#B2D235;}
	.st4{opacity:0.74;fill:url(#SVGID_1_);}
	.st5{opacity:0.74;fill:url(#SVGID_2_);}
</style>
<g>
	<polygon class="st0" points="17.8,4.1 27,4.1 30,11.7 25.4,24.1 	"/>
	<polygon class="st1" points="46.7,4.1 55.4,4.1 51,16 	"/>
	<polygon class="st2" points="48.3,23.6 43.8,35.8 36.9,16.2 41.3,4.1 	"/>
	<polygon class="st3" points="32.7,4.1 41.3,4.1 29.9,35.8 25.4,24.1 	"/>
	<g>
		<path class="st1" d="M1.7,35.8V4.1h14.6v5.7H8V17h7.1v5.7H8v7.4h8.3v5.7H1.7z"/>
	</g>
	<g>
		<path class="st1" d="M63.4,35.8c-3.6,0-5.4-1.4-6.9-3.1c-2.5-3-2.4-8.6-2.4-12.8c0-4.2-0.2-9.8,2.4-12.8c1.5-1.7,3.3-3.1,6.9-3.1
			c2.7,0,4.8,0.9,6.3,2.3c1.7,1.7,2.6,4.1,2.7,6.9h-6.3c0-1.3-0.3-3.7-2.7-3.7c-1.2,0-1.7,0.5-2.1,1.2c-0.8,1.4-0.8,5.3-0.8,9.1
			s0.1,7.6,0.8,9.1c0.4,0.7,0.9,1.2,2.1,1.2c2.1,0,2.7-1.9,2.7-3.6v-3.2h-2.6v-5h8.9v7.9C72.4,32.5,68.8,35.8,63.4,35.8z"/>
	</g>
	<linearGradient id="SVGID_1_" gradientUnits="userSpaceOnUse" x1="22.4069" y1="7.9357" x2="29.4542" y2="19.3002">
		<stop  offset="0" style="stop-color:#FAAF40;stop-opacity:0"/>
		<stop  offset="1" style="stop-color:#000000;stop-opacity:0.3"/>
	</linearGradient>
	<polygon class="st4" points="17.8,4.1 27,4.1 30,11.7 25.4,24.1 	"/>
	<linearGradient id="SVGID_2_" gradientUnits="userSpaceOnUse" x1="44.311" y1="23.167" x2="38.8006" y2="13.0776">
		<stop  offset="0" style="stop-color:#00C1F2;stop-opacity:0"/>
		<stop  offset="1" style="stop-color:#000000;stop-opacity:0.3"/>
	</linearGradient>
	<polygon class="st5" points="48.3,23.6 43.8,35.8 36.9,16.2 41.3,4.1 	"/>
</g>
</svg>
